M48
;Layer_Color=6321
;FILE_FORMAT=2:5
INCH,TZ
;TYPE=PLATED
T1F00S00C0.02800
T2F00S00C0.03543
T3F00S00C0.03937
T4F00S00C0.04724
T5F00S00C0.05118
T6F00S00C0.05906
T7F00S00C0.07283
T8F00S00C0.07874
T9F00S00C0.15748
;TYPE=NON_PLATED
T10F00S00C0.15748
T11F00S00C0.19685
%
T01
X50000Y45000
X60039Y83661
X78000Y105000
X95000Y114000
X109252Y109252
Y90551
X110236Y71850
X131890Y70866
X136000Y79000
X135000Y89000
X132000Y114000
X133000Y121000
X121000Y118000
X125000Y128937
X109252
X135000Y138000
X144685Y128937
X160433
X183071
Y110236
Y90551
X171000Y98000
X164370Y70866
X150591
X141000Y63000
X183071Y70866
X148000Y147000
X67000Y163000
X26654Y95653
X25000Y74000
X303000Y353331
X272638Y397638
X229331Y484252
X213583Y526575
T02
X11811Y27559
Y37559
Y47559
X164000Y26000
X216535Y210630
X206535
X98425Y210472
X88425
X106299Y157480
X116299
X126299
X136299
X11811Y97559
Y87559
Y77559
Y67559
Y57559
X21181Y334646
X31181
X41181
X51181
X291339Y324961
Y314961
X300000Y401811
Y411811
X200000Y388760
Y378760
X216535Y544291
X226535
T03
X224410Y107283
X61024Y138779
T04
X50000Y427520
Y516102
T05
X60000Y391811
X80000
Y551811
X100000
T06
X264374Y47839
X283965Y36528
X306587
X326177Y47839
X337488Y67429
Y90051
X326177Y109642
X306587Y120953
X283965
X264374Y109642
X253063Y90051
Y67429
X284559Y68024
Y89457
X305992
Y68024
T07
X88917Y304331
Y322835
Y341339
X107933
Y322835
Y304331
X207028
Y322835
Y341339
X226043
Y322835
Y304331
X325138
Y322835
Y341339
X344153
Y322835
Y304331
T08
X78425Y190472
X196535Y190630
X118425Y230472
X236535Y230630
T09
X137795Y19685
X370079Y153543
X19685Y137795
X137795Y314961
X275590Y295276
T10
X157480Y196850
X19685
X374016Y374016
X19685
Y551181
X196850
X374016
T11
X125716Y461811
X184772
M30
