G04*
G04 #@! TF.GenerationSoftware,Altium Limited,CircuitStudio,1.5.2 (30)*
G04*
G04 Layer_Color=11767835*
%FSLAX25Y25*%
%MOIN*%
G70*
G01*
G75*
%ADD10R,0.07087X0.03543*%
%ADD11R,0.24410X0.21457*%
%ADD12R,0.11417X0.09449*%
%ADD13R,0.05315X0.03740*%
%ADD14R,0.06693X0.03740*%
G04:AMPARAMS|DCode=15|XSize=78.74mil|YSize=78.74mil|CornerRadius=19.69mil|HoleSize=0mil|Usage=FLASHONLY|Rotation=270.000|XOffset=0mil|YOffset=0mil|HoleType=Round|Shape=RoundedRectangle|*
%AMROUNDEDRECTD15*
21,1,0.07874,0.03937,0,0,270.0*
21,1,0.03937,0.07874,0,0,270.0*
1,1,0.03937,-0.01969,-0.01969*
1,1,0.03937,-0.01969,0.01969*
1,1,0.03937,0.01969,0.01969*
1,1,0.03937,0.01969,-0.01969*
%
%ADD15ROUNDEDRECTD15*%
%ADD16R,0.05512X0.06102*%
%ADD17R,0.06102X0.05512*%
%ADD18R,0.03740X0.05315*%
%ADD19R,0.11024X0.05512*%
G04:AMPARAMS|DCode=20|XSize=29.92mil|YSize=35.43mil|CornerRadius=7.48mil|HoleSize=0mil|Usage=FLASHONLY|Rotation=0.000|XOffset=0mil|YOffset=0mil|HoleType=Round|Shape=RoundedRectangle|*
%AMROUNDEDRECTD20*
21,1,0.02992,0.02047,0,0,0.0*
21,1,0.01496,0.03543,0,0,0.0*
1,1,0.01496,0.00748,-0.01024*
1,1,0.01496,-0.00748,-0.01024*
1,1,0.01496,-0.00748,0.01024*
1,1,0.01496,0.00748,0.01024*
%
%ADD20ROUNDEDRECTD20*%
%ADD21R,0.06299X0.07874*%
%ADD22R,0.07874X0.05118*%
G04:AMPARAMS|DCode=23|XSize=59.06mil|YSize=82.68mil|CornerRadius=14.76mil|HoleSize=0mil|Usage=FLASHONLY|Rotation=0.000|XOffset=0mil|YOffset=0mil|HoleType=Round|Shape=RoundedRectangle|*
%AMROUNDEDRECTD23*
21,1,0.05906,0.05315,0,0,0.0*
21,1,0.02953,0.08268,0,0,0.0*
1,1,0.02953,0.01476,-0.02658*
1,1,0.02953,-0.01476,-0.02658*
1,1,0.02953,-0.01476,0.02658*
1,1,0.02953,0.01476,0.02658*
%
%ADD23ROUNDEDRECTD23*%
%ADD24R,0.07874X0.05906*%
%ADD25R,0.03543X0.03150*%
%ADD39R,0.05906X0.05906*%
%ADD40C,0.05906*%
%ADD41R,0.05906X0.05906*%
%ADD42C,0.11417*%
%ADD43C,0.11811*%
%ADD44C,0.05512*%
%ADD45C,0.15748*%
%ADD46R,0.09843X0.09843*%
%ADD47R,0.09843X0.09843*%
%ADD48C,0.19685*%
%ADD49C,0.09843*%
%ADD50C,0.07874*%
D10*
X273465Y470787D02*
D03*
Y452835D02*
D03*
D11*
X297874Y461811D02*
D03*
D12*
X280000Y489803D02*
D03*
Y513819D02*
D03*
X76000Y32992D02*
D03*
Y57008D02*
D03*
D13*
X232000Y507760D02*
D03*
Y513862D02*
D03*
X260000Y468760D02*
D03*
Y474862D02*
D03*
X248000Y124949D02*
D03*
Y131051D02*
D03*
X51181Y80807D02*
D03*
Y74705D02*
D03*
X58000Y99051D02*
D03*
Y92949D02*
D03*
X113000Y137949D02*
D03*
Y144051D02*
D03*
X126000D02*
D03*
Y137949D02*
D03*
X174213Y89665D02*
D03*
Y83563D02*
D03*
X173000Y104949D02*
D03*
Y111051D02*
D03*
X58000Y39051D02*
D03*
Y32949D02*
D03*
X220000Y394862D02*
D03*
Y388760D02*
D03*
D14*
X239500Y442299D02*
D03*
Y453323D02*
D03*
X240000Y427323D02*
D03*
Y416299D02*
D03*
X95000Y105512D02*
D03*
Y94488D02*
D03*
D15*
X103000Y126000D02*
D03*
X164000Y66000D02*
D03*
D16*
X74347Y75000D02*
D03*
X67654D02*
D03*
X148346Y95000D02*
D03*
X141654D02*
D03*
X147346Y120000D02*
D03*
X140654D02*
D03*
D17*
X39370Y74410D02*
D03*
Y81102D02*
D03*
X36000Y102347D02*
D03*
Y95653D02*
D03*
X47000Y102347D02*
D03*
Y95653D02*
D03*
X278000Y422157D02*
D03*
Y415465D02*
D03*
D18*
X260728Y129921D02*
D03*
X266831D02*
D03*
X292224Y137795D02*
D03*
X298327D02*
D03*
X311909D02*
D03*
X318012D02*
D03*
X335531D02*
D03*
X341634D02*
D03*
X359154Y129921D02*
D03*
X365256D02*
D03*
Y106299D02*
D03*
X359154D02*
D03*
X365256Y118110D02*
D03*
X359154D02*
D03*
Y94488D02*
D03*
X365256D02*
D03*
X359154Y82677D02*
D03*
X365256D02*
D03*
Y59055D02*
D03*
X359154D02*
D03*
X365256Y70866D02*
D03*
X359154D02*
D03*
X365256Y47244D02*
D03*
X359154D02*
D03*
Y35433D02*
D03*
X365256D02*
D03*
X339469Y19685D02*
D03*
X345571D02*
D03*
X323721D02*
D03*
X329823D02*
D03*
X307972D02*
D03*
X314075D02*
D03*
X292224D02*
D03*
X298327D02*
D03*
X276476D02*
D03*
X282579D02*
D03*
X260728D02*
D03*
X266831D02*
D03*
X235335Y39370D02*
D03*
X229232D02*
D03*
X235335Y27559D02*
D03*
X229232D02*
D03*
Y51181D02*
D03*
X235335D02*
D03*
X235051Y63000D02*
D03*
X228949D02*
D03*
X235051Y85000D02*
D03*
X228949D02*
D03*
Y74000D02*
D03*
X235051D02*
D03*
X40051Y65000D02*
D03*
X33949D02*
D03*
X149051Y84000D02*
D03*
X142949D02*
D03*
X147051Y106000D02*
D03*
X140949D02*
D03*
X133051D02*
D03*
X126949D02*
D03*
D19*
X97000Y39882D02*
D03*
Y50118D02*
D03*
X124000Y91118D02*
D03*
Y80882D02*
D03*
D20*
X74740Y86063D02*
D03*
X67260D02*
D03*
X71000Y93937D02*
D03*
D21*
X256209Y499811D02*
D03*
D22*
X244791Y494890D02*
D03*
Y504732D02*
D03*
D23*
X100000Y513917D02*
D03*
X120000D02*
D03*
X140000D02*
D03*
X180000D02*
D03*
X190000D02*
D03*
X200000D02*
D03*
X210000D02*
D03*
Y409705D02*
D03*
X200000D02*
D03*
X190000D02*
D03*
X180000D02*
D03*
X140000D02*
D03*
X120000D02*
D03*
X100000D02*
D03*
D24*
X259842Y444488D02*
D03*
Y433465D02*
D03*
D25*
X164937Y90000D02*
D03*
X157063Y86260D02*
D03*
Y93740D02*
D03*
X164339Y108653D02*
D03*
X156465Y104913D02*
D03*
Y112394D02*
D03*
D39*
X216535Y544291D02*
D03*
X106299Y157480D02*
D03*
X51181Y334646D02*
D03*
D40*
X226535Y544291D02*
D03*
X11811Y37559D02*
D03*
Y47559D02*
D03*
Y57559D02*
D03*
Y67559D02*
D03*
Y77559D02*
D03*
Y87559D02*
D03*
Y97559D02*
D03*
X116299Y157480D02*
D03*
X126299D02*
D03*
X136299D02*
D03*
X300000Y411811D02*
D03*
X291339Y324961D02*
D03*
X41181Y334646D02*
D03*
X31181D02*
D03*
X21181D02*
D03*
X200000Y378760D02*
D03*
D41*
X11811Y27559D02*
D03*
X164000Y26000D02*
D03*
X300000Y401811D02*
D03*
X291339Y314961D02*
D03*
X200000Y388760D02*
D03*
D42*
X226043Y341339D02*
D03*
Y322835D02*
D03*
Y304331D02*
D03*
X207028Y341339D02*
D03*
Y322835D02*
D03*
Y304331D02*
D03*
X88917D02*
D03*
Y322835D02*
D03*
Y341339D02*
D03*
X107933Y304331D02*
D03*
Y322835D02*
D03*
Y341339D02*
D03*
X344153D02*
D03*
Y322835D02*
D03*
Y304331D02*
D03*
X325138Y341339D02*
D03*
Y322835D02*
D03*
Y304331D02*
D03*
D43*
X196535Y190630D02*
D03*
X236535Y230630D02*
D03*
X118425Y230472D02*
D03*
X78425Y190472D02*
D03*
X50000Y516102D02*
D03*
Y427520D02*
D03*
D44*
X206535Y210630D02*
D03*
X216535D02*
D03*
X98425Y210472D02*
D03*
X88425D02*
D03*
D45*
X275590Y295276D02*
D03*
X157480Y196850D02*
D03*
X137795Y314961D02*
D03*
X19685Y137795D02*
D03*
X137795Y19685D02*
D03*
X19685Y196850D02*
D03*
X370079Y153543D02*
D03*
X196850Y551181D02*
D03*
X374016Y374016D02*
D03*
Y551181D02*
D03*
X19685Y374016D02*
D03*
Y551181D02*
D03*
D46*
X80000Y391811D02*
D03*
X60000D02*
D03*
D47*
X100000Y551811D02*
D03*
X80000D02*
D03*
D48*
X184772Y461811D02*
D03*
X125716D02*
D03*
D49*
X284559Y89457D02*
D03*
X305992Y68024D02*
D03*
Y89457D02*
D03*
X253063Y90051D02*
D03*
X264374Y109642D02*
D03*
X283965Y120953D02*
D03*
X306587D02*
D03*
X326177Y109642D02*
D03*
X337488Y90051D02*
D03*
Y67429D02*
D03*
X326177Y47839D02*
D03*
X306587Y36528D02*
D03*
X283965D02*
D03*
X264374Y47839D02*
D03*
X253063Y67429D02*
D03*
X284559Y68024D02*
D03*
D50*
X61024Y138779D02*
D03*
X224410Y107283D02*
D03*
M02*
