G04*
G04 #@! TF.GenerationSoftware,Altium Limited,CircuitStudio,1.5.2 (30)*
G04*
G04 Layer_Color=16740166*
%FSLAX25Y25*%
%MOIN*%
G70*
G01*
G75*
%ADD29C,0.01000*%
%ADD54C,0.00787*%
G36*
X78040Y40530D02*
X78057D01*
X78093Y40528D01*
X78137Y40527D01*
X78186Y40525D01*
X78239Y40521D01*
X78295Y40516D01*
X78354Y40510D01*
X78474Y40494D01*
X78534Y40483D01*
X78592Y40470D01*
X78648Y40457D01*
X78701Y40441D01*
X78705Y40439D01*
X78714Y40437D01*
X78727Y40432D01*
X78747Y40425D01*
X78769Y40414D01*
X78796Y40403D01*
X78825Y40388D01*
X78856Y40372D01*
X78889Y40355D01*
X78923Y40334D01*
X78960Y40312D01*
X78994Y40288D01*
X79029Y40261D01*
X79062Y40232D01*
X79093Y40201D01*
X79122Y40168D01*
X79124Y40166D01*
X79129Y40159D01*
X79136Y40150D01*
X79145Y40135D01*
X79156Y40117D01*
X79169Y40095D01*
X79182Y40071D01*
X79196Y40042D01*
X79209Y40011D01*
X79222Y39977D01*
X79234Y39939D01*
X79245Y39899D01*
X79256Y39855D01*
X79264Y39809D01*
X79267Y39762D01*
X79269Y39711D01*
Y39709D01*
Y39702D01*
Y39691D01*
X79267Y39676D01*
Y39660D01*
X79265Y39638D01*
X79262Y39617D01*
X79258Y39591D01*
X79249Y39536D01*
X79234Y39476D01*
X79214Y39415D01*
X79202Y39385D01*
X79187Y39356D01*
Y39354D01*
X79184Y39349D01*
X79178Y39342D01*
X79173Y39331D01*
X79163Y39318D01*
X79153Y39303D01*
X79142Y39285D01*
X79127Y39267D01*
X79094Y39227D01*
X79053Y39185D01*
X79005Y39143D01*
X78951Y39105D01*
X78949Y39103D01*
X78943Y39101D01*
X78934Y39096D01*
X78923Y39089D01*
X78909Y39080D01*
X78891Y39070D01*
X78870Y39060D01*
X78847Y39049D01*
X78821Y39036D01*
X78792Y39023D01*
X78761Y39010D01*
X78728Y38996D01*
X78694Y38983D01*
X78658Y38972D01*
X78618Y38960D01*
X78577Y38949D01*
X78576D01*
X78566Y38947D01*
X78556Y38943D01*
X78537Y38939D01*
X78516Y38936D01*
X78488Y38930D01*
X78457Y38925D01*
X78421Y38919D01*
X78381Y38914D01*
X78335Y38908D01*
X78286Y38903D01*
X78233Y38899D01*
X78177Y38896D01*
X78115Y38892D01*
X78052Y38890D01*
X77940D01*
X77926Y38892D01*
X77909D01*
X77871Y38894D01*
X77828Y38896D01*
X77780Y38898D01*
X77728Y38901D01*
X77671Y38907D01*
X77613Y38912D01*
X77495Y38928D01*
X77434Y38939D01*
X77376Y38952D01*
X77320Y38967D01*
X77267Y38983D01*
X77263Y38985D01*
X77254Y38987D01*
X77242Y38992D01*
X77222Y39000D01*
X77200Y39010D01*
X77172Y39021D01*
X77143Y39036D01*
X77112Y39050D01*
X77080Y39069D01*
X77045Y39090D01*
X77010Y39112D01*
X76974Y39136D01*
X76939Y39163D01*
X76907Y39192D01*
X76876Y39223D01*
X76847Y39256D01*
X76845Y39258D01*
X76841Y39265D01*
X76834Y39274D01*
X76823Y39289D01*
X76812Y39307D01*
X76799Y39327D01*
X76787Y39353D01*
X76774Y39380D01*
X76759Y39413D01*
X76746Y39447D01*
X76734Y39484D01*
X76723Y39524D01*
X76714Y39567D01*
X76706Y39613D01*
X76701Y39660D01*
X76699Y39711D01*
Y39713D01*
Y39715D01*
Y39720D01*
Y39728D01*
X76701Y39746D01*
X76703Y39771D01*
X76706Y39802D01*
X76714Y39838D01*
X76721Y39877D01*
X76732Y39920D01*
X76745Y39966D01*
X76763Y40011D01*
X76783Y40059D01*
X76808Y40108D01*
X76837Y40155D01*
X76872Y40201D01*
X76912Y40244D01*
X76958Y40284D01*
X76960D01*
X76961Y40286D01*
X76967Y40290D01*
X76972Y40295D01*
X76981Y40301D01*
X76992Y40308D01*
X77003Y40315D01*
X77018Y40323D01*
X77034Y40332D01*
X77052Y40343D01*
X77072Y40352D01*
X77094Y40363D01*
X77120Y40374D01*
X77145Y40385D01*
X77174Y40397D01*
X77203Y40408D01*
X77236Y40419D01*
X77271Y40432D01*
X77307Y40443D01*
X77347Y40454D01*
X77387Y40465D01*
X77431Y40474D01*
X77474Y40485D01*
X77524Y40494D01*
X77573Y40501D01*
X77624Y40508D01*
X77678Y40516D01*
X77735Y40521D01*
X77793Y40527D01*
X77853Y40528D01*
X77917Y40532D01*
X78026D01*
X78040Y40530D01*
D02*
G37*
G36*
X123206Y88226D02*
X123212Y88224D01*
X123219Y88222D01*
X123228Y88220D01*
X123241Y88217D01*
X123268Y88208D01*
X123303Y88195D01*
X123341Y88180D01*
X123385Y88162D01*
X123432Y88140D01*
X123483Y88117D01*
X123534Y88089D01*
X123585Y88058D01*
X123638Y88024D01*
X123689Y87986D01*
X123738Y87944D01*
X123783Y87898D01*
X123827Y87849D01*
X123829Y87845D01*
X123836Y87836D01*
X123847Y87822D01*
X123860Y87800D01*
X123876Y87774D01*
X123894Y87742D01*
X123915Y87705D01*
X123934Y87664D01*
X123954Y87618D01*
X123975Y87567D01*
X123993Y87512D01*
X124009Y87454D01*
X124022Y87391D01*
X124033Y87325D01*
X124040Y87256D01*
X124042Y87183D01*
Y87181D01*
Y87177D01*
Y87172D01*
Y87165D01*
Y87156D01*
X124040Y87143D01*
Y87116D01*
X124036Y87081D01*
X124033Y87041D01*
X124027Y86996D01*
X124022Y86948D01*
X124013Y86895D01*
X124002Y86843D01*
X123987Y86786D01*
X123973Y86732D01*
X123953Y86677D01*
X123931Y86622D01*
X123905Y86570D01*
X123876Y86520D01*
X123874Y86517D01*
X123869Y86510D01*
X123858Y86497D01*
X123845Y86479D01*
X123829Y86457D01*
X123807Y86433D01*
X123783Y86406D01*
X123754Y86377D01*
X123722Y86346D01*
X123687Y86315D01*
X123647Y86282D01*
X123605Y86249D01*
X123558Y86218D01*
X123509Y86187D01*
X123454Y86158D01*
X123398Y86133D01*
X123396D01*
X123394Y86131D01*
X123383Y86127D01*
X123367Y86120D01*
X123343Y86113D01*
X123314Y86102D01*
X123279Y86091D01*
X123239Y86078D01*
X123196Y86067D01*
X123146Y86055D01*
X123094Y86042D01*
X123039Y86031D01*
X122979Y86020D01*
X122919Y86013D01*
X122855Y86006D01*
X122790Y86002D01*
X122722Y86000D01*
X122695D01*
X122684Y86002D01*
X122657D01*
X122622Y86006D01*
X122582Y86007D01*
X122537Y86013D01*
X122488Y86018D01*
X122437Y86027D01*
X122382Y86036D01*
X122324Y86049D01*
X122266Y86064D01*
X122207Y86080D01*
X122149Y86100D01*
X122093Y86124D01*
X122036Y86149D01*
X122033Y86151D01*
X122023Y86156D01*
X122009Y86166D01*
X121987Y86177D01*
X121963Y86193D01*
X121936Y86211D01*
X121903Y86235D01*
X121871Y86260D01*
X121836Y86288D01*
X121798Y86320D01*
X121761Y86355D01*
X121725Y86393D01*
X121689Y86435D01*
X121654Y86479D01*
X121621Y86526D01*
X121590Y86577D01*
X121589Y86581D01*
X121583Y86590D01*
X121576Y86604D01*
X121567Y86626D01*
X121554Y86652D01*
X121541Y86682D01*
X121528Y86719D01*
X121514Y86757D01*
X121499Y86801D01*
X121487Y86848D01*
X121472Y86899D01*
X121461Y86952D01*
X121452Y87008D01*
X121445Y87067D01*
X121439Y87127D01*
X121437Y87189D01*
Y87190D01*
Y87192D01*
Y87198D01*
Y87205D01*
Y87214D01*
X121439Y87225D01*
X121441Y87252D01*
X121443Y87285D01*
X121448Y87321D01*
X121454Y87363D01*
X121461Y87410D01*
X121472Y87460D01*
X121485Y87511D01*
X121499Y87563D01*
X121519Y87616D01*
X121541Y87669D01*
X121567Y87723D01*
X121596Y87774D01*
X121630Y87824D01*
X121632Y87827D01*
X121640Y87835D01*
X121650Y87849D01*
X121667Y87866D01*
X121685Y87887D01*
X121710Y87911D01*
X121738Y87937D01*
X121771Y87966D01*
X121807Y87995D01*
X121847Y88026D01*
X121892Y88055D01*
X121940Y88084D01*
X121993Y88113D01*
X122049Y88139D01*
X122109Y88164D01*
X122173Y88184D01*
X122249Y87856D01*
X122246Y87855D01*
X122236Y87853D01*
X122224Y87847D01*
X122204Y87840D01*
X122182Y87831D01*
X122156Y87820D01*
X122127Y87805D01*
X122096Y87791D01*
X122064Y87774D01*
X122031Y87754D01*
X121998Y87735D01*
X121963Y87711D01*
X121932Y87685D01*
X121902Y87660D01*
X121874Y87631D01*
X121849Y87600D01*
X121847Y87598D01*
X121843Y87593D01*
X121838Y87583D01*
X121829Y87571D01*
X121820Y87554D01*
X121809Y87534D01*
X121798Y87511D01*
X121785Y87485D01*
X121774Y87456D01*
X121763Y87425D01*
X121752Y87391D01*
X121743Y87354D01*
X121734Y87314D01*
X121729Y87272D01*
X121725Y87229D01*
X121723Y87181D01*
Y87177D01*
Y87168D01*
Y87154D01*
X121725Y87134D01*
X121727Y87108D01*
X121730Y87079D01*
X121734Y87046D01*
X121741Y87012D01*
X121749Y86974D01*
X121758Y86936D01*
X121769Y86895D01*
X121781Y86854D01*
X121798Y86813D01*
X121818Y86774D01*
X121838Y86734D01*
X121863Y86695D01*
X121865Y86693D01*
X121869Y86686D01*
X121878Y86677D01*
X121889Y86664D01*
X121903Y86648D01*
X121920Y86630D01*
X121940Y86610D01*
X121962Y86588D01*
X121987Y86566D01*
X122014Y86542D01*
X122045Y86520D01*
X122080Y86499D01*
X122115Y86477D01*
X122153Y86457D01*
X122193Y86439D01*
X122236Y86422D01*
X122238D01*
X122247Y86419D01*
X122260Y86415D01*
X122276Y86409D01*
X122298Y86404D01*
X122324Y86397D01*
X122353Y86391D01*
X122386Y86384D01*
X122420Y86377D01*
X122459Y86370D01*
X122499Y86362D01*
X122540Y86357D01*
X122628Y86348D01*
X122673Y86346D01*
X122721Y86344D01*
X122751D01*
X122775Y86346D01*
X122802Y86348D01*
X122835Y86349D01*
X122872Y86351D01*
X122910Y86355D01*
X122953Y86360D01*
X122999Y86366D01*
X123092Y86384D01*
X123141Y86393D01*
X123188Y86406D01*
X123236Y86420D01*
X123281Y86437D01*
X123283Y86439D01*
X123292Y86440D01*
X123303Y86446D01*
X123319Y86455D01*
X123339Y86464D01*
X123363Y86477D01*
X123389Y86491D01*
X123416Y86508D01*
X123443Y86528D01*
X123472Y86550D01*
X123503Y86573D01*
X123532Y86599D01*
X123561Y86628D01*
X123589Y86659D01*
X123614Y86692D01*
X123638Y86728D01*
X123640Y86730D01*
X123643Y86737D01*
X123649Y86748D01*
X123656Y86763D01*
X123665Y86781D01*
X123676Y86803D01*
X123685Y86828D01*
X123696Y86855D01*
X123709Y86886D01*
X123718Y86919D01*
X123729Y86955D01*
X123738Y86992D01*
X123745Y87032D01*
X123751Y87072D01*
X123754Y87114D01*
X123756Y87156D01*
Y87159D01*
Y87168D01*
X123754Y87183D01*
Y87203D01*
X123751Y87227D01*
X123747Y87254D01*
X123743Y87287D01*
X123736Y87319D01*
X123727Y87356D01*
X123716Y87394D01*
X123703Y87434D01*
X123689Y87474D01*
X123671Y87514D01*
X123649Y87554D01*
X123623Y87593D01*
X123596Y87631D01*
X123594Y87633D01*
X123589Y87640D01*
X123580Y87649D01*
X123565Y87662D01*
X123549Y87678D01*
X123529Y87696D01*
X123503Y87716D01*
X123476Y87736D01*
X123443Y87758D01*
X123408Y87780D01*
X123369Y87804D01*
X123325Y87824D01*
X123279Y87845D01*
X123228Y87864D01*
X123176Y87880D01*
X123117Y87895D01*
X123201Y88228D01*
X123203D01*
X123206Y88226D01*
D02*
G37*
G36*
X98316Y44998D02*
X98343D01*
X98378Y44995D01*
X98418Y44993D01*
X98463Y44987D01*
X98512Y44982D01*
X98563Y44973D01*
X98618Y44964D01*
X98676Y44951D01*
X98734Y44936D01*
X98793Y44920D01*
X98851Y44900D01*
X98907Y44876D01*
X98964Y44851D01*
X98967Y44849D01*
X98976Y44844D01*
X98991Y44834D01*
X99013Y44824D01*
X99037Y44807D01*
X99064Y44789D01*
X99097Y44765D01*
X99129Y44740D01*
X99164Y44712D01*
X99202Y44680D01*
X99239Y44645D01*
X99275Y44607D01*
X99311Y44565D01*
X99346Y44521D01*
X99379Y44474D01*
X99410Y44423D01*
X99411Y44419D01*
X99417Y44410D01*
X99424Y44396D01*
X99433Y44374D01*
X99446Y44348D01*
X99459Y44317D01*
X99472Y44281D01*
X99486Y44243D01*
X99501Y44199D01*
X99513Y44152D01*
X99528Y44101D01*
X99539Y44048D01*
X99548Y43992D01*
X99555Y43933D01*
X99561Y43873D01*
X99563Y43812D01*
Y43810D01*
Y43808D01*
Y43802D01*
Y43795D01*
Y43786D01*
X99561Y43775D01*
X99559Y43748D01*
X99557Y43715D01*
X99552Y43679D01*
X99546Y43637D01*
X99539Y43589D01*
X99528Y43540D01*
X99515Y43489D01*
X99501Y43437D01*
X99481Y43384D01*
X99459Y43331D01*
X99433Y43277D01*
X99404Y43225D01*
X99370Y43176D01*
X99368Y43173D01*
X99361Y43165D01*
X99350Y43151D01*
X99333Y43134D01*
X99315Y43113D01*
X99290Y43089D01*
X99262Y43064D01*
X99230Y43034D01*
X99193Y43005D01*
X99153Y42974D01*
X99108Y42945D01*
X99060Y42916D01*
X99007Y42887D01*
X98951Y42862D01*
X98891Y42836D01*
X98827Y42816D01*
X98751Y43144D01*
X98755Y43145D01*
X98764Y43147D01*
X98776Y43153D01*
X98796Y43160D01*
X98818Y43169D01*
X98844Y43180D01*
X98873Y43195D01*
X98904Y43209D01*
X98936Y43225D01*
X98969Y43246D01*
X99002Y43266D01*
X99037Y43289D01*
X99067Y43315D01*
X99098Y43340D01*
X99126Y43369D01*
X99151Y43400D01*
X99153Y43402D01*
X99157Y43407D01*
X99162Y43417D01*
X99171Y43429D01*
X99180Y43446D01*
X99191Y43466D01*
X99202Y43489D01*
X99215Y43515D01*
X99226Y43544D01*
X99237Y43575D01*
X99248Y43609D01*
X99257Y43646D01*
X99266Y43686D01*
X99271Y43728D01*
X99275Y43771D01*
X99277Y43819D01*
Y43823D01*
Y43832D01*
Y43846D01*
X99275Y43866D01*
X99273Y43892D01*
X99269Y43921D01*
X99266Y43953D01*
X99259Y43988D01*
X99251Y44026D01*
X99242Y44065D01*
X99231Y44105D01*
X99219Y44146D01*
X99202Y44186D01*
X99182Y44227D01*
X99162Y44267D01*
X99137Y44305D01*
X99135Y44307D01*
X99131Y44314D01*
X99122Y44323D01*
X99111Y44336D01*
X99097Y44352D01*
X99080Y44370D01*
X99060Y44390D01*
X99038Y44412D01*
X99013Y44434D01*
X98986Y44458D01*
X98955Y44480D01*
X98920Y44501D01*
X98886Y44523D01*
X98847Y44543D01*
X98807Y44561D01*
X98764Y44578D01*
X98762D01*
X98753Y44581D01*
X98740Y44585D01*
X98724Y44590D01*
X98702Y44596D01*
X98676Y44603D01*
X98647Y44609D01*
X98614Y44616D01*
X98580Y44623D01*
X98541Y44631D01*
X98501Y44638D01*
X98460Y44643D01*
X98372Y44652D01*
X98327Y44654D01*
X98280Y44656D01*
X98248D01*
X98225Y44654D01*
X98198Y44652D01*
X98165Y44651D01*
X98128Y44649D01*
X98090Y44645D01*
X98046Y44640D01*
X98001Y44634D01*
X97908Y44616D01*
X97859Y44607D01*
X97812Y44594D01*
X97764Y44580D01*
X97719Y44563D01*
X97717Y44561D01*
X97708Y44560D01*
X97697Y44554D01*
X97681Y44545D01*
X97661Y44536D01*
X97637Y44523D01*
X97611Y44509D01*
X97584Y44492D01*
X97557Y44472D01*
X97528Y44450D01*
X97497Y44427D01*
X97468Y44401D01*
X97439Y44372D01*
X97411Y44341D01*
X97386Y44308D01*
X97362Y44272D01*
X97360Y44270D01*
X97357Y44263D01*
X97351Y44252D01*
X97344Y44237D01*
X97335Y44219D01*
X97324Y44197D01*
X97315Y44172D01*
X97304Y44145D01*
X97291Y44114D01*
X97282Y44081D01*
X97271Y44045D01*
X97262Y44008D01*
X97255Y43968D01*
X97249Y43928D01*
X97246Y43886D01*
X97244Y43844D01*
Y43841D01*
Y43832D01*
X97246Y43817D01*
Y43797D01*
X97249Y43773D01*
X97253Y43746D01*
X97257Y43713D01*
X97264Y43681D01*
X97273Y43644D01*
X97284Y43606D01*
X97297Y43566D01*
X97311Y43526D01*
X97329Y43486D01*
X97351Y43446D01*
X97377Y43407D01*
X97404Y43369D01*
X97406Y43367D01*
X97411Y43360D01*
X97420Y43351D01*
X97435Y43338D01*
X97451Y43322D01*
X97471Y43304D01*
X97497Y43284D01*
X97524Y43264D01*
X97557Y43242D01*
X97592Y43220D01*
X97632Y43196D01*
X97675Y43176D01*
X97721Y43154D01*
X97772Y43136D01*
X97825Y43120D01*
X97883Y43105D01*
X97799Y42772D01*
X97797D01*
X97794Y42774D01*
X97788Y42776D01*
X97781Y42778D01*
X97772Y42780D01*
X97759Y42783D01*
X97732Y42792D01*
X97697Y42805D01*
X97659Y42820D01*
X97615Y42838D01*
X97568Y42860D01*
X97517Y42883D01*
X97466Y42911D01*
X97415Y42942D01*
X97362Y42976D01*
X97311Y43014D01*
X97262Y43056D01*
X97217Y43102D01*
X97173Y43151D01*
X97171Y43154D01*
X97164Y43164D01*
X97153Y43178D01*
X97140Y43200D01*
X97124Y43225D01*
X97106Y43258D01*
X97085Y43295D01*
X97066Y43336D01*
X97045Y43382D01*
X97026Y43433D01*
X97007Y43488D01*
X96991Y43546D01*
X96978Y43609D01*
X96967Y43675D01*
X96960Y43744D01*
X96958Y43817D01*
Y43819D01*
Y43823D01*
Y43828D01*
Y43835D01*
Y43844D01*
X96960Y43857D01*
Y43884D01*
X96964Y43919D01*
X96967Y43959D01*
X96973Y44004D01*
X96978Y44052D01*
X96987Y44105D01*
X96998Y44157D01*
X97013Y44214D01*
X97027Y44268D01*
X97047Y44323D01*
X97069Y44378D01*
X97095Y44430D01*
X97124Y44480D01*
X97126Y44483D01*
X97131Y44490D01*
X97142Y44503D01*
X97155Y44521D01*
X97171Y44543D01*
X97193Y44567D01*
X97217Y44594D01*
X97246Y44623D01*
X97278Y44654D01*
X97313Y44685D01*
X97353Y44718D01*
X97395Y44751D01*
X97442Y44782D01*
X97491Y44813D01*
X97546Y44842D01*
X97602Y44867D01*
X97604D01*
X97606Y44869D01*
X97617Y44873D01*
X97633Y44880D01*
X97657Y44887D01*
X97686Y44898D01*
X97721Y44909D01*
X97761Y44922D01*
X97804Y44933D01*
X97854Y44945D01*
X97906Y44958D01*
X97961Y44969D01*
X98021Y44980D01*
X98081Y44987D01*
X98145Y44995D01*
X98210Y44998D01*
X98278Y45000D01*
X98305D01*
X98316Y44998D01*
D02*
G37*
G36*
X98702Y42487D02*
X98713D01*
X98740Y42485D01*
X98773Y42481D01*
X98811Y42476D01*
X98853Y42470D01*
X98898Y42459D01*
X98946Y42448D01*
X98997Y42434D01*
X99047Y42416D01*
X99098Y42394D01*
X99149Y42366D01*
X99200Y42337D01*
X99248Y42303D01*
X99293Y42263D01*
X99295Y42261D01*
X99304Y42252D01*
X99315Y42239D01*
X99330Y42223D01*
X99348Y42201D01*
X99368Y42173D01*
X99390Y42143D01*
X99411Y42108D01*
X99433Y42068D01*
X99453Y42026D01*
X99473Y41979D01*
X99492Y41928D01*
X99506Y41875D01*
X99517Y41819D01*
X99526Y41759D01*
X99528Y41697D01*
Y41693D01*
Y41686D01*
Y41673D01*
X99526Y41655D01*
X99524Y41633D01*
X99521Y41607D01*
X99517Y41580D01*
X99512Y41549D01*
X99504Y41515D01*
X99495Y41480D01*
X99484Y41442D01*
X99472Y41404D01*
X99457Y41366D01*
X99439Y41325D01*
X99419Y41287D01*
X99395Y41249D01*
X99393Y41247D01*
X99390Y41240D01*
X99381Y41229D01*
X99371Y41216D01*
X99357Y41198D01*
X99340Y41178D01*
X99321Y41158D01*
X99299Y41134D01*
X99273Y41109D01*
X99244Y41083D01*
X99213Y41058D01*
X99178Y41032D01*
X99142Y41007D01*
X99104Y40983D01*
X99062Y40960D01*
X99017Y40940D01*
X99013Y40938D01*
X99006Y40934D01*
X98991Y40931D01*
X98971Y40923D01*
X98946Y40914D01*
X98915Y40905D01*
X98878Y40896D01*
X98836Y40885D01*
X98789Y40876D01*
X98736Y40867D01*
X98680Y40858D01*
X98616Y40849D01*
X98547Y40841D01*
X98474Y40838D01*
X98394Y40834D01*
X98310Y40832D01*
X98265D01*
X98248Y40834D01*
X98210D01*
X98190Y40836D01*
X98143Y40838D01*
X98090Y40841D01*
X98034Y40845D01*
X97974Y40850D01*
X97912Y40858D01*
X97846Y40867D01*
X97783Y40876D01*
X97719Y40889D01*
X97657Y40903D01*
X97599Y40920D01*
X97542Y40938D01*
X97539Y40940D01*
X97530Y40943D01*
X97515Y40949D01*
X97495Y40958D01*
X97471Y40969D01*
X97444Y40981D01*
X97413Y40998D01*
X97380Y41016D01*
X97346Y41038D01*
X97311Y41060D01*
X97275Y41087D01*
X97238Y41114D01*
X97204Y41145D01*
X97169Y41178D01*
X97136Y41213D01*
X97107Y41251D01*
X97106Y41253D01*
X97102Y41260D01*
X97093Y41271D01*
X97084Y41287D01*
X97073Y41307D01*
X97060Y41331D01*
X97047Y41358D01*
X97033Y41389D01*
X97018Y41422D01*
X97005Y41460D01*
X96993Y41498D01*
X96982Y41542D01*
X96973Y41587D01*
X96965Y41635D01*
X96960Y41684D01*
X96958Y41735D01*
Y41739D01*
Y41748D01*
X96960Y41764D01*
Y41784D01*
X96964Y41809D01*
X96967Y41839D01*
X96973Y41871D01*
X96978Y41906D01*
X96987Y41944D01*
X96998Y41984D01*
X97011Y42024D01*
X97027Y42064D01*
X97045Y42104D01*
X97067Y42144D01*
X97093Y42183D01*
X97122Y42219D01*
X97124Y42221D01*
X97129Y42226D01*
X97138Y42237D01*
X97153Y42248D01*
X97169Y42263D01*
X97189Y42281D01*
X97213Y42299D01*
X97242Y42317D01*
X97273Y42337D01*
X97308Y42355D01*
X97344Y42376D01*
X97386Y42392D01*
X97431Y42408D01*
X97479Y42423D01*
X97530Y42434D01*
X97584Y42443D01*
X97611Y42146D01*
X97610D01*
X97602Y42144D01*
X97592Y42143D01*
X97577Y42139D01*
X97561Y42135D01*
X97540Y42130D01*
X97517Y42123D01*
X97495Y42115D01*
X97444Y42095D01*
X97393Y42070D01*
X97346Y42039D01*
X97324Y42022D01*
X97306Y42002D01*
X97304Y42001D01*
X97302Y41997D01*
X97297Y41991D01*
X97291Y41982D01*
X97284Y41973D01*
X97277Y41961D01*
X97268Y41944D01*
X97260Y41928D01*
X97251Y41910D01*
X97242Y41888D01*
X97228Y41842D01*
X97217Y41789D01*
X97215Y41760D01*
X97213Y41730D01*
Y41728D01*
Y41722D01*
Y41715D01*
X97215Y41706D01*
Y41693D01*
X97217Y41679D01*
X97220Y41644D01*
X97229Y41606D01*
X97240Y41562D01*
X97255Y41520D01*
X97277Y41478D01*
Y41477D01*
X97280Y41473D01*
X97284Y41467D01*
X97289Y41460D01*
X97304Y41440D01*
X97324Y41416D01*
X97348Y41389D01*
X97379Y41360D01*
X97413Y41331D01*
X97451Y41304D01*
X97453D01*
X97457Y41300D01*
X97462Y41296D01*
X97471Y41293D01*
X97482Y41285D01*
X97495Y41280D01*
X97511Y41271D01*
X97530Y41263D01*
X97550Y41254D01*
X97571Y41245D01*
X97595Y41236D01*
X97621Y41225D01*
X97650Y41216D01*
X97679Y41207D01*
X97712Y41198D01*
X97744Y41189D01*
X97746D01*
X97754Y41187D01*
X97763Y41185D01*
X97777Y41182D01*
X97794Y41178D01*
X97813Y41174D01*
X97835Y41169D01*
X97861Y41165D01*
X97888Y41162D01*
X97919Y41156D01*
X97983Y41149D01*
X98052Y41143D01*
X98123Y41142D01*
X98185D01*
X98183Y41143D01*
X98177Y41145D01*
X98170Y41151D01*
X98159Y41158D01*
X98147Y41169D01*
X98132Y41180D01*
X98116Y41193D01*
X98099Y41209D01*
X98079Y41225D01*
X98061Y41245D01*
X98041Y41265D01*
X98021Y41289D01*
X97981Y41338D01*
X97945Y41396D01*
X97943Y41398D01*
X97941Y41404D01*
X97935Y41413D01*
X97930Y41424D01*
X97923Y41440D01*
X97916Y41456D01*
X97908Y41477D01*
X97899Y41500D01*
X97890Y41526D01*
X97883Y41551D01*
X97868Y41611D01*
X97857Y41675D01*
X97855Y41709D01*
X97854Y41744D01*
Y41748D01*
Y41759D01*
X97855Y41775D01*
X97857Y41797D01*
X97861Y41822D01*
X97866Y41855D01*
X97872Y41890D01*
X97883Y41928D01*
X97894Y41968D01*
X97908Y42012D01*
X97926Y42055D01*
X97948Y42099D01*
X97975Y42144D01*
X98005Y42188D01*
X98039Y42232D01*
X98079Y42274D01*
X98081Y42276D01*
X98090Y42283D01*
X98103Y42294D01*
X98121Y42306D01*
X98143Y42323D01*
X98170Y42341D01*
X98203Y42361D01*
X98239Y42381D01*
X98280Y42401D01*
X98325Y42421D01*
X98374Y42439D01*
X98427Y42456D01*
X98483Y42468D01*
X98545Y42479D01*
X98609Y42487D01*
X98676Y42488D01*
X98693D01*
X98702Y42487D01*
D02*
G37*
G36*
X124000Y89367D02*
X122031D01*
X122033Y89365D01*
X122036Y89362D01*
X122042Y89356D01*
X122049Y89347D01*
X122058Y89336D01*
X122071Y89322D01*
X122083Y89305D01*
X122098Y89289D01*
X122113Y89267D01*
X122131Y89245D01*
X122147Y89221D01*
X122167Y89196D01*
X122186Y89167D01*
X122205Y89138D01*
X122246Y89072D01*
X122247Y89070D01*
X122251Y89065D01*
X122256Y89054D01*
X122262Y89041D01*
X122271Y89027D01*
X122282Y89008D01*
X122293Y88987D01*
X122306Y88965D01*
X122331Y88914D01*
X122356Y88859D01*
X122382Y88803D01*
X122404Y88748D01*
X122105D01*
X122104Y88752D01*
X122100Y88759D01*
X122093Y88774D01*
X122083Y88792D01*
X122073Y88814D01*
X122058Y88841D01*
X122042Y88870D01*
X122023Y88901D01*
X122002Y88936D01*
X121980Y88972D01*
X121929Y89048D01*
X121872Y89127D01*
X121810Y89201D01*
X121809Y89203D01*
X121803Y89210D01*
X121794Y89220D01*
X121781Y89232D01*
X121765Y89249D01*
X121747Y89267D01*
X121725Y89287D01*
X121703Y89309D01*
X121678Y89331D01*
X121650Y89354D01*
X121594Y89400D01*
X121534Y89442D01*
X121503Y89460D01*
X121472Y89476D01*
Y89676D01*
X124000D01*
Y89367D01*
D02*
G37*
G36*
X282638Y499059D02*
X282641Y499052D01*
X282648Y499037D01*
X282658Y499019D01*
X282668Y498997D01*
X282683Y498970D01*
X282699Y498941D01*
X282718Y498910D01*
X282739Y498875D01*
X282761Y498839D01*
X282812Y498763D01*
X282869Y498684D01*
X282930Y498610D01*
X282932Y498608D01*
X282938Y498601D01*
X282947Y498592D01*
X282960Y498579D01*
X282976Y498562D01*
X282994Y498544D01*
X283016Y498524D01*
X283038Y498502D01*
X283063Y498481D01*
X283091Y498457D01*
X283147Y498411D01*
X283207Y498369D01*
X283238Y498351D01*
X283269Y498335D01*
Y498135D01*
X280741D01*
Y498444D01*
X282710D01*
X282709Y498446D01*
X282705Y498450D01*
X282699Y498455D01*
X282692Y498464D01*
X282683Y498475D01*
X282670Y498490D01*
X282658Y498506D01*
X282643Y498522D01*
X282628Y498544D01*
X282610Y498566D01*
X282594Y498590D01*
X282574Y498615D01*
X282556Y498644D01*
X282536Y498673D01*
X282496Y498739D01*
X282494Y498741D01*
X282490Y498746D01*
X282485Y498757D01*
X282479Y498770D01*
X282470Y498784D01*
X282459Y498803D01*
X282448Y498824D01*
X282435Y498846D01*
X282410Y498897D01*
X282384Y498952D01*
X282359Y499008D01*
X282337Y499063D01*
X282636D01*
X282638Y499059D01*
D02*
G37*
G36*
X282057Y501809D02*
X282084D01*
X282119Y501806D01*
X282159Y501804D01*
X282204Y501798D01*
X282254Y501793D01*
X282304Y501784D01*
X282359Y501775D01*
X282417Y501762D01*
X282475Y501747D01*
X282534Y501731D01*
X282592Y501711D01*
X282648Y501687D01*
X282705Y501662D01*
X282709Y501660D01*
X282718Y501655D01*
X282732Y501645D01*
X282754Y501635D01*
X282778Y501618D01*
X282805Y501600D01*
X282838Y501576D01*
X282871Y501551D01*
X282905Y501523D01*
X282943Y501491D01*
X282980Y501456D01*
X283016Y501418D01*
X283052Y501376D01*
X283087Y501332D01*
X283120Y501285D01*
X283151Y501234D01*
X283153Y501230D01*
X283158Y501221D01*
X283165Y501207D01*
X283174Y501185D01*
X283187Y501159D01*
X283200Y501129D01*
X283213Y501092D01*
X283227Y501054D01*
X283242Y501010D01*
X283255Y500963D01*
X283269Y500912D01*
X283280Y500859D01*
X283289Y500803D01*
X283296Y500744D01*
X283302Y500684D01*
X283304Y500623D01*
Y500621D01*
Y500619D01*
Y500613D01*
Y500606D01*
Y500597D01*
X283302Y500586D01*
X283300Y500559D01*
X283298Y500526D01*
X283293Y500490D01*
X283287Y500448D01*
X283280Y500401D01*
X283269Y500351D01*
X283256Y500301D01*
X283242Y500248D01*
X283222Y500195D01*
X283200Y500142D01*
X283174Y500087D01*
X283145Y500037D01*
X283111Y499987D01*
X283109Y499984D01*
X283102Y499976D01*
X283091Y499962D01*
X283074Y499946D01*
X283056Y499924D01*
X283031Y499900D01*
X283003Y499875D01*
X282971Y499846D01*
X282934Y499816D01*
X282894Y499785D01*
X282849Y499756D01*
X282801Y499727D01*
X282749Y499698D01*
X282692Y499673D01*
X282632Y499647D01*
X282568Y499627D01*
X282492Y499955D01*
X282496Y499957D01*
X282505Y499958D01*
X282517Y499964D01*
X282537Y499971D01*
X282559Y499980D01*
X282585Y499991D01*
X282614Y500006D01*
X282645Y500020D01*
X282678Y500037D01*
X282710Y500057D01*
X282743Y500077D01*
X282778Y500100D01*
X282809Y500126D01*
X282839Y500151D01*
X282867Y500180D01*
X282892Y500211D01*
X282894Y500213D01*
X282898Y500219D01*
X282903Y500228D01*
X282912Y500240D01*
X282921Y500257D01*
X282932Y500277D01*
X282943Y500301D01*
X282956Y500326D01*
X282967Y500355D01*
X282978Y500386D01*
X282989Y500421D01*
X282998Y500457D01*
X283007Y500497D01*
X283012Y500539D01*
X283016Y500583D01*
X283018Y500630D01*
Y500633D01*
Y500643D01*
Y500657D01*
X283016Y500677D01*
X283014Y500703D01*
X283011Y500732D01*
X283007Y500765D01*
X283000Y500799D01*
X282992Y500837D01*
X282983Y500876D01*
X282972Y500916D01*
X282960Y500957D01*
X282943Y500997D01*
X282923Y501038D01*
X282903Y501078D01*
X282878Y501116D01*
X282876Y501118D01*
X282872Y501125D01*
X282863Y501134D01*
X282852Y501147D01*
X282838Y501163D01*
X282821Y501181D01*
X282801Y501201D01*
X282780Y501223D01*
X282754Y501245D01*
X282727Y501269D01*
X282696Y501291D01*
X282661Y501312D01*
X282627Y501334D01*
X282588Y501354D01*
X282548Y501372D01*
X282505Y501389D01*
X282503D01*
X282494Y501393D01*
X282481Y501396D01*
X282465Y501402D01*
X282443Y501407D01*
X282417Y501414D01*
X282388Y501420D01*
X282355Y501427D01*
X282321Y501434D01*
X282283Y501442D01*
X282243Y501449D01*
X282201Y501454D01*
X282113Y501464D01*
X282068Y501465D01*
X282020Y501467D01*
X281990D01*
X281966Y501465D01*
X281939Y501464D01*
X281906Y501462D01*
X281870Y501460D01*
X281831Y501456D01*
X281788Y501451D01*
X281742Y501445D01*
X281649Y501427D01*
X281600Y501418D01*
X281553Y501405D01*
X281505Y501391D01*
X281460Y501374D01*
X281458Y501372D01*
X281449Y501371D01*
X281438Y501365D01*
X281422Y501356D01*
X281402Y501347D01*
X281378Y501334D01*
X281353Y501320D01*
X281325Y501303D01*
X281298Y501283D01*
X281269Y501261D01*
X281238Y501238D01*
X281209Y501212D01*
X281180Y501183D01*
X281152Y501152D01*
X281127Y501120D01*
X281103Y501083D01*
X281101Y501081D01*
X281098Y501074D01*
X281092Y501063D01*
X281085Y501049D01*
X281076Y501030D01*
X281065Y501008D01*
X281056Y500983D01*
X281045Y500956D01*
X281032Y500925D01*
X281023Y500892D01*
X281012Y500856D01*
X281003Y500819D01*
X280996Y500779D01*
X280990Y500739D01*
X280987Y500697D01*
X280985Y500655D01*
Y500652D01*
Y500643D01*
X280987Y500628D01*
Y500608D01*
X280990Y500584D01*
X280994Y500557D01*
X280998Y500524D01*
X281005Y500492D01*
X281014Y500455D01*
X281025Y500417D01*
X281038Y500377D01*
X281052Y500337D01*
X281070Y500297D01*
X281092Y500257D01*
X281118Y500219D01*
X281145Y500180D01*
X281147Y500178D01*
X281152Y500171D01*
X281161Y500162D01*
X281176Y500149D01*
X281192Y500133D01*
X281212Y500115D01*
X281238Y500095D01*
X281265Y500075D01*
X281298Y500053D01*
X281333Y500031D01*
X281373Y500007D01*
X281416Y499987D01*
X281462Y499966D01*
X281513Y499947D01*
X281565Y499931D01*
X281624Y499916D01*
X281540Y499583D01*
X281538D01*
X281535Y499585D01*
X281529Y499587D01*
X281522Y499589D01*
X281513Y499591D01*
X281500Y499594D01*
X281473Y499603D01*
X281438Y499616D01*
X281400Y499631D01*
X281356Y499649D01*
X281309Y499671D01*
X281258Y499694D01*
X281207Y499722D01*
X281156Y499753D01*
X281103Y499787D01*
X281052Y499825D01*
X281003Y499867D01*
X280958Y499913D01*
X280914Y499962D01*
X280912Y499966D01*
X280905Y499975D01*
X280894Y499989D01*
X280881Y500011D01*
X280865Y500037D01*
X280847Y500069D01*
X280827Y500106D01*
X280807Y500148D01*
X280787Y500193D01*
X280767Y500244D01*
X280748Y500299D01*
X280732Y500357D01*
X280719Y500421D01*
X280708Y500486D01*
X280701Y500555D01*
X280699Y500628D01*
Y500630D01*
Y500633D01*
Y500639D01*
Y500646D01*
Y500655D01*
X280701Y500668D01*
Y500695D01*
X280705Y500730D01*
X280708Y500770D01*
X280714Y500815D01*
X280719Y500863D01*
X280728Y500916D01*
X280739Y500968D01*
X280754Y501025D01*
X280768Y501079D01*
X280788Y501134D01*
X280810Y501189D01*
X280836Y501241D01*
X280865Y501291D01*
X280867Y501294D01*
X280872Y501301D01*
X280883Y501314D01*
X280896Y501332D01*
X280912Y501354D01*
X280934Y501378D01*
X280958Y501405D01*
X280987Y501434D01*
X281019Y501465D01*
X281054Y501496D01*
X281094Y501529D01*
X281136Y501562D01*
X281183Y501593D01*
X281233Y501624D01*
X281287Y501653D01*
X281344Y501678D01*
X281345D01*
X281347Y501680D01*
X281358Y501684D01*
X281374Y501691D01*
X281398Y501698D01*
X281427Y501709D01*
X281462Y501720D01*
X281502Y501733D01*
X281545Y501744D01*
X281595Y501756D01*
X281647Y501769D01*
X281702Y501780D01*
X281762Y501791D01*
X281822Y501798D01*
X281886Y501806D01*
X281951Y501809D01*
X282019Y501811D01*
X282046D01*
X282057Y501809D01*
D02*
G37*
G36*
X282638Y497103D02*
X282641Y497095D01*
X282648Y497081D01*
X282658Y497063D01*
X282668Y497041D01*
X282683Y497014D01*
X282699Y496984D01*
X282718Y496953D01*
X282739Y496919D01*
X282761Y496882D01*
X282812Y496806D01*
X282869Y496728D01*
X282930Y496653D01*
X282932Y496651D01*
X282938Y496644D01*
X282947Y496635D01*
X282960Y496622D01*
X282976Y496606D01*
X282994Y496588D01*
X283016Y496568D01*
X283038Y496546D01*
X283063Y496524D01*
X283091Y496500D01*
X283147Y496455D01*
X283207Y496413D01*
X283238Y496395D01*
X283269Y496378D01*
Y496178D01*
X280741D01*
Y496488D01*
X282710D01*
X282709Y496489D01*
X282705Y496493D01*
X282699Y496498D01*
X282692Y496508D01*
X282683Y496519D01*
X282670Y496533D01*
X282658Y496549D01*
X282643Y496566D01*
X282628Y496588D01*
X282610Y496609D01*
X282594Y496633D01*
X282574Y496659D01*
X282556Y496688D01*
X282536Y496717D01*
X282496Y496782D01*
X282494Y496784D01*
X282490Y496790D01*
X282485Y496801D01*
X282479Y496813D01*
X282470Y496828D01*
X282459Y496846D01*
X282448Y496868D01*
X282435Y496890D01*
X282410Y496941D01*
X282384Y496995D01*
X282359Y497052D01*
X282337Y497106D01*
X282636D01*
X282638Y497103D01*
D02*
G37*
G36*
X78637Y42248D02*
X78641Y42241D01*
X78648Y42226D01*
X78658Y42208D01*
X78668Y42186D01*
X78683Y42159D01*
X78699Y42130D01*
X78718Y42099D01*
X78739Y42064D01*
X78761Y42028D01*
X78812Y41952D01*
X78869Y41873D01*
X78930Y41799D01*
X78932Y41797D01*
X78938Y41790D01*
X78947Y41780D01*
X78960Y41768D01*
X78976Y41751D01*
X78994Y41733D01*
X79016Y41713D01*
X79038Y41691D01*
X79063Y41669D01*
X79091Y41646D01*
X79147Y41600D01*
X79207Y41558D01*
X79238Y41540D01*
X79269Y41524D01*
Y41324D01*
X76741D01*
Y41633D01*
X78710D01*
X78708Y41635D01*
X78705Y41638D01*
X78699Y41644D01*
X78692Y41653D01*
X78683Y41664D01*
X78670Y41679D01*
X78658Y41695D01*
X78643Y41711D01*
X78628Y41733D01*
X78610Y41755D01*
X78594Y41779D01*
X78574Y41804D01*
X78556Y41833D01*
X78536Y41862D01*
X78496Y41928D01*
X78494Y41930D01*
X78490Y41935D01*
X78485Y41946D01*
X78479Y41959D01*
X78470Y41973D01*
X78459Y41992D01*
X78448Y42013D01*
X78435Y42035D01*
X78410Y42086D01*
X78385Y42141D01*
X78359Y42197D01*
X78337Y42252D01*
X78636D01*
X78637Y42248D01*
D02*
G37*
G36*
X78057Y44998D02*
X78084D01*
X78119Y44995D01*
X78159Y44993D01*
X78204Y44987D01*
X78254Y44982D01*
X78304Y44973D01*
X78359Y44964D01*
X78417Y44951D01*
X78475Y44936D01*
X78534Y44920D01*
X78592Y44900D01*
X78648Y44876D01*
X78705Y44851D01*
X78708Y44849D01*
X78718Y44844D01*
X78732Y44834D01*
X78754Y44824D01*
X78778Y44807D01*
X78805Y44789D01*
X78838Y44765D01*
X78870Y44740D01*
X78905Y44712D01*
X78943Y44680D01*
X78980Y44645D01*
X79016Y44607D01*
X79053Y44565D01*
X79087Y44521D01*
X79120Y44474D01*
X79151Y44423D01*
X79153Y44420D01*
X79158Y44410D01*
X79165Y44396D01*
X79174Y44374D01*
X79187Y44348D01*
X79200Y44317D01*
X79213Y44281D01*
X79227Y44243D01*
X79242Y44199D01*
X79255Y44152D01*
X79269Y44101D01*
X79280Y44048D01*
X79289Y43992D01*
X79296Y43933D01*
X79302Y43874D01*
X79304Y43812D01*
Y43810D01*
Y43808D01*
Y43802D01*
Y43795D01*
Y43786D01*
X79302Y43775D01*
X79300Y43748D01*
X79298Y43715D01*
X79293Y43679D01*
X79287Y43637D01*
X79280Y43590D01*
X79269Y43540D01*
X79256Y43489D01*
X79242Y43437D01*
X79222Y43384D01*
X79200Y43331D01*
X79174Y43277D01*
X79145Y43225D01*
X79111Y43176D01*
X79109Y43173D01*
X79102Y43165D01*
X79091Y43151D01*
X79074Y43135D01*
X79056Y43113D01*
X79031Y43089D01*
X79003Y43064D01*
X78971Y43034D01*
X78934Y43005D01*
X78894Y42974D01*
X78849Y42945D01*
X78801Y42916D01*
X78749Y42887D01*
X78692Y42862D01*
X78632Y42836D01*
X78568Y42816D01*
X78492Y43144D01*
X78496Y43145D01*
X78505Y43147D01*
X78517Y43153D01*
X78537Y43160D01*
X78559Y43169D01*
X78585Y43180D01*
X78614Y43195D01*
X78645Y43209D01*
X78677Y43225D01*
X78710Y43246D01*
X78743Y43266D01*
X78778Y43289D01*
X78809Y43315D01*
X78839Y43340D01*
X78867Y43369D01*
X78892Y43400D01*
X78894Y43402D01*
X78898Y43407D01*
X78903Y43417D01*
X78912Y43429D01*
X78921Y43446D01*
X78932Y43466D01*
X78943Y43489D01*
X78956Y43515D01*
X78967Y43544D01*
X78978Y43575D01*
X78989Y43610D01*
X78998Y43646D01*
X79007Y43686D01*
X79012Y43728D01*
X79016Y43772D01*
X79018Y43819D01*
Y43823D01*
Y43832D01*
Y43846D01*
X79016Y43866D01*
X79014Y43892D01*
X79011Y43921D01*
X79007Y43954D01*
X79000Y43988D01*
X78992Y44026D01*
X78983Y44065D01*
X78972Y44105D01*
X78960Y44146D01*
X78943Y44186D01*
X78923Y44227D01*
X78903Y44267D01*
X78878Y44305D01*
X78876Y44307D01*
X78872Y44314D01*
X78863Y44323D01*
X78852Y44336D01*
X78838Y44352D01*
X78821Y44370D01*
X78801Y44390D01*
X78780Y44412D01*
X78754Y44434D01*
X78727Y44458D01*
X78696Y44480D01*
X78661Y44501D01*
X78627Y44523D01*
X78588Y44543D01*
X78548Y44561D01*
X78505Y44578D01*
X78503D01*
X78494Y44581D01*
X78481Y44585D01*
X78465Y44591D01*
X78443Y44596D01*
X78417Y44603D01*
X78388Y44609D01*
X78355Y44616D01*
X78321Y44623D01*
X78283Y44631D01*
X78243Y44638D01*
X78201Y44643D01*
X78113Y44652D01*
X78068Y44654D01*
X78021Y44656D01*
X77990D01*
X77966Y44654D01*
X77939Y44652D01*
X77906Y44651D01*
X77869Y44649D01*
X77831Y44645D01*
X77788Y44640D01*
X77742Y44634D01*
X77649Y44616D01*
X77600Y44607D01*
X77553Y44594D01*
X77505Y44580D01*
X77460Y44563D01*
X77458Y44561D01*
X77449Y44560D01*
X77438Y44554D01*
X77422Y44545D01*
X77402Y44536D01*
X77378Y44523D01*
X77353Y44509D01*
X77325Y44492D01*
X77298Y44472D01*
X77269Y44450D01*
X77238Y44427D01*
X77209Y44401D01*
X77180Y44372D01*
X77152Y44341D01*
X77127Y44308D01*
X77103Y44272D01*
X77101Y44270D01*
X77098Y44263D01*
X77092Y44252D01*
X77085Y44238D01*
X77076Y44219D01*
X77065Y44197D01*
X77056Y44172D01*
X77045Y44145D01*
X77032Y44114D01*
X77023Y44081D01*
X77012Y44045D01*
X77003Y44008D01*
X76996Y43968D01*
X76990Y43928D01*
X76987Y43886D01*
X76985Y43844D01*
Y43841D01*
Y43832D01*
X76987Y43817D01*
Y43797D01*
X76990Y43773D01*
X76994Y43746D01*
X76998Y43713D01*
X77005Y43681D01*
X77014Y43644D01*
X77025Y43606D01*
X77038Y43566D01*
X77052Y43526D01*
X77070Y43486D01*
X77092Y43446D01*
X77118Y43407D01*
X77145Y43369D01*
X77147Y43367D01*
X77152Y43360D01*
X77162Y43351D01*
X77176Y43338D01*
X77192Y43322D01*
X77213Y43304D01*
X77238Y43284D01*
X77265Y43264D01*
X77298Y43242D01*
X77333Y43220D01*
X77373Y43196D01*
X77416Y43176D01*
X77462Y43155D01*
X77513Y43136D01*
X77565Y43120D01*
X77624Y43105D01*
X77540Y42772D01*
X77538D01*
X77535Y42774D01*
X77529Y42776D01*
X77522Y42778D01*
X77513Y42780D01*
X77500Y42783D01*
X77473Y42792D01*
X77438Y42805D01*
X77400Y42820D01*
X77356Y42838D01*
X77309Y42860D01*
X77258Y42883D01*
X77207Y42911D01*
X77156Y42942D01*
X77103Y42976D01*
X77052Y43014D01*
X77003Y43056D01*
X76958Y43102D01*
X76914Y43151D01*
X76912Y43155D01*
X76905Y43164D01*
X76894Y43178D01*
X76881Y43200D01*
X76865Y43225D01*
X76847Y43258D01*
X76827Y43295D01*
X76807Y43337D01*
X76787Y43382D01*
X76767Y43433D01*
X76748Y43488D01*
X76732Y43546D01*
X76719Y43610D01*
X76708Y43675D01*
X76701Y43744D01*
X76699Y43817D01*
Y43819D01*
Y43823D01*
Y43828D01*
Y43835D01*
Y43844D01*
X76701Y43857D01*
Y43884D01*
X76705Y43919D01*
X76708Y43959D01*
X76714Y44004D01*
X76719Y44052D01*
X76728Y44105D01*
X76739Y44157D01*
X76754Y44214D01*
X76768Y44268D01*
X76788Y44323D01*
X76810Y44378D01*
X76836Y44430D01*
X76865Y44480D01*
X76867Y44483D01*
X76872Y44490D01*
X76883Y44503D01*
X76896Y44521D01*
X76912Y44543D01*
X76934Y44567D01*
X76958Y44594D01*
X76987Y44623D01*
X77020Y44654D01*
X77054Y44685D01*
X77094Y44718D01*
X77136Y44751D01*
X77183Y44782D01*
X77232Y44813D01*
X77287Y44842D01*
X77343Y44867D01*
X77345D01*
X77347Y44869D01*
X77358Y44873D01*
X77374Y44880D01*
X77398Y44887D01*
X77427Y44898D01*
X77462Y44909D01*
X77502Y44922D01*
X77545Y44933D01*
X77595Y44945D01*
X77647Y44958D01*
X77702Y44969D01*
X77762Y44980D01*
X77822Y44987D01*
X77886Y44995D01*
X77951Y44998D01*
X78019Y45000D01*
X78046D01*
X78057Y44998D01*
D02*
G37*
%LPC*%
G36*
X78039Y40214D02*
X77940D01*
X77924Y40212D01*
X77882D01*
X77859Y40210D01*
X77833D01*
X77775Y40206D01*
X77713Y40201D01*
X77647Y40195D01*
X77578Y40188D01*
X77509Y40179D01*
X77440Y40166D01*
X77373Y40153D01*
X77309Y40137D01*
X77253Y40117D01*
X77225Y40106D01*
X77201Y40095D01*
X77178Y40082D01*
X77158Y40070D01*
X77156Y40068D01*
X77149Y40062D01*
X77140Y40055D01*
X77127Y40044D01*
X77110Y40030D01*
X77094Y40011D01*
X77074Y39993D01*
X77056Y39970D01*
X77038Y39946D01*
X77018Y39919D01*
X77001Y39889D01*
X76987Y39857D01*
X76972Y39824D01*
X76963Y39788D01*
X76956Y39749D01*
X76954Y39711D01*
Y39709D01*
Y39702D01*
X76956Y39691D01*
X76958Y39676D01*
X76960Y39658D01*
X76965Y39636D01*
X76970Y39613D01*
X76980Y39587D01*
X76990Y39560D01*
X77003Y39531D01*
X77020Y39502D01*
X77039Y39471D01*
X77063Y39442D01*
X77091Y39411D01*
X77122Y39382D01*
X77158Y39354D01*
X77160Y39353D01*
X77169Y39349D01*
X77182Y39342D01*
X77200Y39331D01*
X77225Y39320D01*
X77256Y39309D01*
X77293Y39294D01*
X77338Y39282D01*
X77364Y39274D01*
X77391Y39269D01*
X77418Y39262D01*
X77449Y39254D01*
X77482Y39249D01*
X77516Y39243D01*
X77553Y39236D01*
X77593Y39231D01*
X77633Y39227D01*
X77676Y39222D01*
X77722Y39218D01*
X77769Y39214D01*
X77819Y39213D01*
X77871Y39211D01*
X77926Y39209D01*
X78040D01*
X78061Y39211D01*
X78082D01*
X78106Y39213D01*
X78133D01*
X78190Y39216D01*
X78252Y39222D01*
X78319Y39227D01*
X78386Y39234D01*
X78456Y39243D01*
X78525Y39256D01*
X78592Y39271D01*
X78656Y39287D01*
X78712Y39307D01*
X78739Y39318D01*
X78763Y39329D01*
X78787Y39342D01*
X78807Y39354D01*
X78809Y39356D01*
X78816Y39362D01*
X78825Y39369D01*
X78839Y39380D01*
X78854Y39395D01*
X78872Y39411D01*
X78891Y39431D01*
X78910Y39453D01*
X78929Y39478D01*
X78947Y39505D01*
X78965Y39535D01*
X78980Y39567D01*
X78994Y39602D01*
X79003Y39636D01*
X79011Y39675D01*
X79012Y39715D01*
Y39717D01*
Y39724D01*
X79011Y39735D01*
X79009Y39749D01*
X79007Y39768D01*
X79003Y39789D01*
X78998Y39811D01*
X78991Y39837D01*
X78980Y39864D01*
X78969Y39891D01*
X78954Y39920D01*
X78936Y39948D01*
X78916Y39977D01*
X78892Y40004D01*
X78863Y40030D01*
X78832Y40055D01*
X78830Y40057D01*
X78821Y40062D01*
X78807Y40070D01*
X78787Y40081D01*
X78759Y40091D01*
X78727Y40104D01*
X78687Y40119D01*
X78639Y40133D01*
X78614Y40143D01*
X78585Y40150D01*
X78556Y40157D01*
X78523Y40163D01*
X78490Y40170D01*
X78454Y40177D01*
X78416Y40183D01*
X78375Y40188D01*
X78334Y40193D01*
X78290Y40199D01*
X78244Y40203D01*
X78197Y40206D01*
X78146Y40210D01*
X78093Y40212D01*
X78039Y40214D01*
D02*
G37*
G36*
X98667Y42170D02*
X98656D01*
X98643Y42168D01*
X98627D01*
X98607Y42166D01*
X98583Y42163D01*
X98556Y42157D01*
X98529Y42152D01*
X98498Y42144D01*
X98467Y42135D01*
X98434Y42123D01*
X98401Y42110D01*
X98369Y42094D01*
X98336Y42073D01*
X98305Y42052D01*
X98276Y42026D01*
X98274Y42024D01*
X98270Y42019D01*
X98261Y42012D01*
X98252Y42001D01*
X98241Y41986D01*
X98229Y41970D01*
X98216Y41950D01*
X98201Y41928D01*
X98187Y41902D01*
X98174Y41875D01*
X98161Y41846D01*
X98150Y41815D01*
X98141Y41780D01*
X98134Y41744D01*
X98128Y41708D01*
X98127Y41668D01*
Y41666D01*
Y41658D01*
X98128Y41648D01*
Y41631D01*
X98132Y41613D01*
X98134Y41593D01*
X98139Y41569D01*
X98145Y41542D01*
X98154Y41515D01*
X98163Y41487D01*
X98176Y41458D01*
X98190Y41427D01*
X98207Y41398D01*
X98227Y41369D01*
X98250Y41342D01*
X98276Y41315D01*
X98278Y41313D01*
X98283Y41309D01*
X98292Y41302D01*
X98303Y41293D01*
X98320Y41282D01*
X98338Y41271D01*
X98360Y41258D01*
X98385Y41245D01*
X98412Y41233D01*
X98443Y41220D01*
X98478Y41209D01*
X98516Y41198D01*
X98556Y41189D01*
X98598Y41182D01*
X98643Y41178D01*
X98693Y41176D01*
X98718D01*
X98736Y41178D01*
X98760Y41180D01*
X98785Y41184D01*
X98814Y41189D01*
X98845Y41194D01*
X98878Y41202D01*
X98913Y41211D01*
X98947Y41222D01*
X98984Y41236D01*
X99018Y41253D01*
X99051Y41271D01*
X99084Y41293D01*
X99115Y41318D01*
X99117Y41320D01*
X99122Y41325D01*
X99129Y41333D01*
X99138Y41344D01*
X99151Y41356D01*
X99164Y41373D01*
X99178Y41393D01*
X99193Y41415D01*
X99208Y41438D01*
X99222Y41464D01*
X99235Y41491D01*
X99248Y41522D01*
X99257Y41553D01*
X99264Y41587D01*
X99269Y41622D01*
X99271Y41658D01*
Y41660D01*
Y41668D01*
X99269Y41679D01*
Y41693D01*
X99266Y41711D01*
X99262Y41731D01*
X99257Y41755D01*
X99250Y41780D01*
X99240Y41809D01*
X99230Y41837D01*
X99217Y41868D01*
X99200Y41899D01*
X99180Y41930D01*
X99159Y41959D01*
X99131Y41990D01*
X99102Y42019D01*
X99100Y42021D01*
X99095Y42026D01*
X99086Y42033D01*
X99071Y42042D01*
X99055Y42053D01*
X99035Y42066D01*
X99011Y42081D01*
X98986Y42094D01*
X98955Y42108D01*
X98922Y42123D01*
X98887Y42135D01*
X98847Y42146D01*
X98807Y42155D01*
X98764Y42163D01*
X98716Y42168D01*
X98667Y42170D01*
D02*
G37*
%LPD*%
D29*
X437008Y-59055D02*
X440945D01*
D54*
X270748Y518937D02*
X289252D01*
X270748Y484685D02*
Y518937D01*
Y484685D02*
X289252D01*
Y518937D01*
X66748Y62126D02*
X85252D01*
X66748Y27874D02*
Y62126D01*
Y27874D02*
X85252D01*
Y62126D01*
X90701Y53268D02*
X103299D01*
X90701Y36732D02*
Y53268D01*
Y36732D02*
X103299D01*
Y53268D01*
X117701Y77732D02*
X130299D01*
Y94268D01*
X117701D02*
X130299D01*
X117701Y77732D02*
Y94268D01*
M02*
