G04*
G04 #@! TF.GenerationSoftware,Altium Limited,CircuitStudio,1.5.2 (30)*
G04*
G04 Layer_Color=13948096*
%FSLAX25Y25*%
%MOIN*%
G70*
G01*
G75*
%ADD29C,0.01000*%
G36*
X59663Y323819D02*
X58890D01*
X59882Y328569D01*
X59873Y328565D01*
X59850Y328546D01*
X59813Y328519D01*
X59763Y328487D01*
X59695Y328442D01*
X59618Y328392D01*
X59522Y328337D01*
X59413Y328278D01*
X59290Y328214D01*
X59154Y328151D01*
X59004Y328082D01*
X58844Y328014D01*
X58667Y327946D01*
X58480Y327882D01*
X58280Y327818D01*
X58066Y327759D01*
X58212Y328464D01*
X58217Y328469D01*
X58239Y328473D01*
X58271Y328487D01*
X58312Y328505D01*
X58367Y328528D01*
X58426Y328555D01*
X58494Y328587D01*
X58576Y328624D01*
X58658Y328665D01*
X58749Y328710D01*
X58844Y328760D01*
X58940Y328815D01*
X59149Y328933D01*
X59359Y329065D01*
X59363Y329070D01*
X59381Y329083D01*
X59413Y329101D01*
X59449Y329129D01*
X59500Y329161D01*
X59554Y329202D01*
X59613Y329242D01*
X59677Y329288D01*
X59813Y329393D01*
X59955Y329502D01*
X60087Y329611D01*
X60150Y329666D01*
X60205Y329720D01*
X60214Y329729D01*
X60232Y329752D01*
X60268Y329788D01*
X60309Y329838D01*
X60360Y329898D01*
X60414Y329971D01*
X60469Y330052D01*
X60528Y330139D01*
X60978D01*
X59663Y323819D01*
D02*
G37*
G36*
X97065Y149606D02*
X96291D01*
X97283Y154357D01*
X97274Y154352D01*
X97251Y154334D01*
X97215Y154306D01*
X97165Y154275D01*
X97097Y154229D01*
X97019Y154179D01*
X96924Y154124D01*
X96815Y154065D01*
X96692Y154002D01*
X96555Y153938D01*
X96405Y153870D01*
X96246Y153801D01*
X96069Y153733D01*
X95882Y153670D01*
X95682Y153606D01*
X95468Y153547D01*
X95613Y154252D01*
X95618Y154256D01*
X95641Y154261D01*
X95673Y154275D01*
X95714Y154293D01*
X95768Y154316D01*
X95827Y154343D01*
X95896Y154375D01*
X95977Y154411D01*
X96059Y154452D01*
X96150Y154498D01*
X96246Y154548D01*
X96342Y154602D01*
X96551Y154720D01*
X96760Y154852D01*
X96765Y154857D01*
X96783Y154871D01*
X96815Y154889D01*
X96851Y154916D01*
X96901Y154948D01*
X96956Y154989D01*
X97015Y155030D01*
X97079Y155075D01*
X97215Y155180D01*
X97356Y155289D01*
X97488Y155398D01*
X97552Y155453D01*
X97606Y155508D01*
X97615Y155517D01*
X97634Y155540D01*
X97670Y155576D01*
X97711Y155626D01*
X97761Y155685D01*
X97816Y155758D01*
X97870Y155840D01*
X97929Y155926D01*
X98380D01*
X97065Y149606D01*
D02*
G37*
G36*
X193388Y397168D02*
X195104D01*
Y396444D01*
X193388D01*
Y394720D01*
X192660D01*
Y396444D01*
X190945D01*
Y397168D01*
X192660D01*
Y398883D01*
X193388D01*
Y397168D01*
D02*
G37*
G36*
X281971Y310554D02*
X283686D01*
Y309830D01*
X281971D01*
Y308106D01*
X281243D01*
Y309830D01*
X279528D01*
Y310554D01*
X281243D01*
Y312269D01*
X281971D01*
Y310554D01*
D02*
G37*
G36*
X311498Y401105D02*
X313214D01*
Y400381D01*
X311498D01*
Y398657D01*
X310771D01*
Y400381D01*
X309055D01*
Y401105D01*
X310771D01*
Y402820D01*
X311498D01*
Y401105D01*
D02*
G37*
D29*
X292894Y74740D02*
X292473Y75614D01*
X291527Y75830D01*
X290768Y75225D01*
Y74255D01*
X291527Y73650D01*
X292473Y73866D01*
X292894Y74740D01*
X346457Y78740D02*
X346447Y79739D01*
X346418Y80737D01*
X346369Y81735D01*
X346301Y82731D01*
X346213Y83726D01*
X346106Y84719D01*
X345980Y85709D01*
X345834Y86697D01*
X345670Y87682D01*
X345485Y88664D01*
X345282Y89642D01*
X345060Y90615D01*
X344819Y91584D01*
X344559Y92549D01*
X344280Y93508D01*
X343983Y94461D01*
X343667Y95408D01*
X343332Y96349D01*
X342979Y97284D01*
X342608Y98211D01*
X342219Y99131D01*
X341813Y100043D01*
X341388Y100947D01*
X340946Y101842D01*
X340487Y102729D01*
X340010Y103607D01*
X339516Y104475D01*
X339006Y105333D01*
X338478Y106181D01*
X337935Y107019D01*
X337375Y107846D01*
X336799Y108662D01*
X336207Y109466D01*
X335600Y110259D01*
X334977Y111040D01*
X334340Y111808D01*
X333687Y112564D01*
X333020Y113307D01*
X332338Y114037D01*
X331642Y114754D01*
X330933Y115456D01*
X330209Y116145D01*
X329473Y116820D01*
X328723Y117480D01*
X327961Y118125D01*
X327186Y118755D01*
X326400Y119370D01*
X325601Y119970D01*
X324791Y120554D01*
X323969Y121122D01*
X323137Y121673D01*
X322294Y122209D01*
X321441Y122728D01*
X320577Y123230D01*
X319704Y123715D01*
X318822Y124183D01*
X317931Y124634D01*
X317031Y125067D01*
X316123Y125483D01*
X315207Y125881D01*
X314284Y126261D01*
X313353Y126622D01*
X312415Y126966D01*
X311471Y127291D01*
X310521Y127598D01*
X309564Y127886D01*
X308603Y128156D01*
X307636Y128406D01*
X306664Y128638D01*
X305689Y128851D01*
X304709Y129044D01*
X303726Y129219D01*
X302739Y129374D01*
X301750Y129510D01*
X300758Y129627D01*
X299764Y129724D01*
X298768Y129802D01*
X297771Y129860D01*
X296774Y129899D01*
X295775Y129919D01*
X294776D01*
X293778Y129899D01*
X292780Y129860D01*
X291783Y129802D01*
X290787Y129724D01*
X289793Y129627D01*
X288802Y129510D01*
X287812Y129374D01*
X286826Y129219D01*
X285842Y129044D01*
X284863Y128851D01*
X283887Y128638D01*
X282915Y128406D01*
X281949Y128156D01*
X280987Y127886D01*
X280031Y127598D01*
X279080Y127291D01*
X278136Y126966D01*
X277198Y126622D01*
X276268Y126261D01*
X275344Y125881D01*
X274428Y125483D01*
X273520Y125067D01*
X272620Y124634D01*
X271729Y124183D01*
X270847Y123715D01*
X269974Y123230D01*
X269111Y122728D01*
X268257Y122209D01*
X267414Y121673D01*
X266582Y121122D01*
X265760Y120554D01*
X264950Y119970D01*
X264152Y119370D01*
X263365Y118755D01*
X262590Y118125D01*
X261828Y117480D01*
X261078Y116820D01*
X260342Y116145D01*
X259619Y115456D01*
X258909Y114754D01*
X258213Y114037D01*
X257532Y113307D01*
X256864Y112564D01*
X256212Y111809D01*
X255574Y111040D01*
X254951Y110259D01*
X254344Y109466D01*
X253752Y108662D01*
X253176Y107846D01*
X252616Y107019D01*
X252073Y106181D01*
X251546Y105333D01*
X251035Y104475D01*
X250541Y103607D01*
X250065Y102729D01*
X249605Y101842D01*
X249163Y100947D01*
X248739Y100043D01*
X248332Y99131D01*
X247943Y98211D01*
X247572Y97284D01*
X247219Y96350D01*
X246885Y95408D01*
X246569Y94461D01*
X246271Y93508D01*
X245992Y92549D01*
X245732Y91584D01*
X245491Y90615D01*
X245269Y89642D01*
X245066Y88664D01*
X244882Y87682D01*
X244717Y86697D01*
X244571Y85709D01*
X244445Y84719D01*
X244338Y83726D01*
X244250Y82731D01*
X244182Y81735D01*
X244133Y80737D01*
X244104Y79739D01*
X244094Y78740D01*
X244104Y77742D01*
X244133Y76743D01*
X244182Y75746D01*
X244250Y74749D01*
X244338Y73755D01*
X244445Y72762D01*
X244571Y71771D01*
X244717Y70783D01*
X244882Y69798D01*
X245066Y68817D01*
X245269Y67839D01*
X245491Y66865D01*
X245732Y65896D01*
X245992Y64932D01*
X246271Y63973D01*
X246569Y63020D01*
X246885Y62072D01*
X247219Y61131D01*
X247572Y60197D01*
X247943Y59269D01*
X248332Y58350D01*
X248738Y57438D01*
X249163Y56534D01*
X249605Y55638D01*
X250064Y54751D01*
X250541Y53874D01*
X251035Y53006D01*
X251545Y52147D01*
X252073Y51299D01*
X252616Y50462D01*
X253176Y49635D01*
X253752Y48819D01*
X254344Y48014D01*
X254951Y47221D01*
X255574Y46441D01*
X256211Y45672D01*
X256864Y44916D01*
X257531Y44173D01*
X258213Y43443D01*
X258909Y42727D01*
X259618Y42024D01*
X260342Y41335D01*
X261078Y40661D01*
X261828Y40001D01*
X262590Y39355D01*
X263365Y38725D01*
X264151Y38110D01*
X264950Y37511D01*
X265760Y36927D01*
X266582Y36359D01*
X267414Y35807D01*
X268257Y35272D01*
X269110Y34753D01*
X269974Y34251D01*
X270847Y33765D01*
X271729Y33297D01*
X272620Y32847D01*
X273520Y32413D01*
X274428Y31997D01*
X275344Y31600D01*
X276267Y31220D01*
X277198Y30858D01*
X278136Y30514D01*
X279080Y30189D01*
X280030Y29882D01*
X280987Y29594D01*
X281948Y29325D01*
X282915Y29074D01*
X283887Y28842D01*
X284862Y28630D01*
X285842Y28436D01*
X286825Y28262D01*
X287812Y28106D01*
X288801Y27970D01*
X289793Y27854D01*
X290787Y27756D01*
X291783Y27678D01*
X292780Y27620D01*
X293778Y27581D01*
X294776Y27562D01*
X295775Y27562D01*
X296773Y27581D01*
X297771Y27620D01*
X298768Y27678D01*
X299764Y27756D01*
X300758Y27854D01*
X301749Y27970D01*
X302739Y28106D01*
X303726Y28261D01*
X304709Y28436D01*
X305689Y28629D01*
X306664Y28842D01*
X307636Y29074D01*
X308602Y29325D01*
X309564Y29594D01*
X310520Y29882D01*
X311471Y30189D01*
X312415Y30514D01*
X313353Y30858D01*
X314283Y31220D01*
X315207Y31600D01*
X316123Y31997D01*
X317031Y32413D01*
X317931Y32846D01*
X318822Y33297D01*
X319704Y33765D01*
X320577Y34250D01*
X321440Y34753D01*
X322294Y35271D01*
X323137Y35807D01*
X323969Y36359D01*
X324791Y36927D01*
X325601Y37510D01*
X326399Y38110D01*
X327186Y38725D01*
X327961Y39355D01*
X328723Y40001D01*
X329473Y40661D01*
X330209Y41335D01*
X330932Y42024D01*
X331642Y42726D01*
X332338Y43443D01*
X333019Y44173D01*
X333687Y44916D01*
X334339Y45672D01*
X334977Y46440D01*
X335600Y47221D01*
X336207Y48014D01*
X336799Y48818D01*
X337375Y49634D01*
X337935Y50461D01*
X338478Y51299D01*
X339006Y52147D01*
X339516Y53005D01*
X340010Y53873D01*
X340487Y54751D01*
X340946Y55638D01*
X341388Y56533D01*
X341813Y57437D01*
X342219Y58349D01*
X342608Y59269D01*
X342979Y60196D01*
X343332Y61131D01*
X343666Y62072D01*
X343982Y63019D01*
X344280Y63973D01*
X344559Y64931D01*
X344819Y65896D01*
X345060Y66865D01*
X345282Y67838D01*
X345485Y68816D01*
X345669Y69798D01*
X345834Y70783D01*
X345980Y71771D01*
X346106Y72761D01*
X346213Y73754D01*
X346301Y74749D01*
X346369Y75745D01*
X346418Y76743D01*
X346447Y77741D01*
X346457Y78740D01*
X303150Y78740D02*
X303085Y79747D01*
X302892Y80737D01*
X302574Y81695D01*
X302136Y82604D01*
X301586Y83450D01*
X300932Y84218D01*
X300185Y84896D01*
X299357Y85474D01*
X298463Y85940D01*
X297516Y86289D01*
X296532Y86513D01*
X295528Y86610D01*
X294519Y86578D01*
X293524Y86417D01*
X292556Y86130D01*
X291634Y85721D01*
X290771Y85198D01*
X289982Y84569D01*
X289280Y83844D01*
X288677Y83036D01*
X288181Y82157D01*
X287803Y81221D01*
X287547Y80245D01*
X287418Y79245D01*
Y78236D01*
X287547Y77235D01*
X287803Y76259D01*
X288181Y75324D01*
X288677Y74445D01*
X289280Y73636D01*
X289982Y72911D01*
X290771Y72282D01*
X291634Y71759D01*
X292556Y71351D01*
X293524Y71064D01*
X294519Y70903D01*
X295528Y70870D01*
X296532Y70967D01*
X297516Y71192D01*
X298463Y71540D01*
X299357Y72007D01*
X300185Y72584D01*
X300932Y73262D01*
X301586Y74031D01*
X302136Y74876D01*
X302574Y75785D01*
X302892Y76743D01*
X303085Y77733D01*
X303150Y78740D01*
X254331Y429921D02*
X265354D01*
Y448032D01*
X254331D02*
X265354D01*
X254331Y429921D02*
Y448032D01*
X342458Y123109D02*
X343458Y124108D01*
X345457D01*
X346457Y123109D01*
Y122109D01*
X345457Y121109D01*
X343458D01*
X342458Y120110D01*
Y119110D01*
X343458Y118110D01*
X345457D01*
X346457Y119110D01*
X340459Y124108D02*
Y118110D01*
X338459Y120110D01*
X336460Y118110D01*
Y124108D01*
X334461Y118110D02*
X332461D01*
X333461D01*
Y124108D01*
X334461Y123109D01*
X241776Y60240D02*
X239776D01*
X240776D01*
Y66238D01*
X241776Y65238D01*
M02*
