G04*
G04 #@! TF.GenerationSoftware,Altium Limited,CircuitStudio,1.5.2 (30)*
G04*
G04 Layer_Physical_Order=1*
G04 Layer_Color=11767835*
%FSLAX25Y25*%
%MOIN*%
G70*
G01*
G75*
%ADD10R,0.07087X0.03543*%
%ADD11R,0.24410X0.21457*%
%ADD12R,0.11417X0.09449*%
%ADD13R,0.05315X0.03740*%
%ADD14R,0.06693X0.03740*%
G04:AMPARAMS|DCode=15|XSize=78.74mil|YSize=78.74mil|CornerRadius=19.69mil|HoleSize=0mil|Usage=FLASHONLY|Rotation=270.000|XOffset=0mil|YOffset=0mil|HoleType=Round|Shape=RoundedRectangle|*
%AMROUNDEDRECTD15*
21,1,0.07874,0.03937,0,0,270.0*
21,1,0.03937,0.07874,0,0,270.0*
1,1,0.03937,-0.01969,-0.01969*
1,1,0.03937,-0.01969,0.01969*
1,1,0.03937,0.01969,0.01969*
1,1,0.03937,0.01969,-0.01969*
%
%ADD15ROUNDEDRECTD15*%
%ADD16R,0.05512X0.06102*%
%ADD17R,0.03740X0.05315*%
%ADD18R,0.11024X0.05512*%
G04:AMPARAMS|DCode=19|XSize=29.92mil|YSize=35.43mil|CornerRadius=7.48mil|HoleSize=0mil|Usage=FLASHONLY|Rotation=0.000|XOffset=0mil|YOffset=0mil|HoleType=Round|Shape=RoundedRectangle|*
%AMROUNDEDRECTD19*
21,1,0.02992,0.02047,0,0,0.0*
21,1,0.01496,0.03543,0,0,0.0*
1,1,0.01496,0.00748,-0.01024*
1,1,0.01496,-0.00748,-0.01024*
1,1,0.01496,-0.00748,0.01024*
1,1,0.01496,0.00748,0.01024*
%
%ADD19ROUNDEDRECTD19*%
%ADD20R,0.06102X0.05512*%
%ADD21R,0.06299X0.07874*%
%ADD22R,0.07874X0.05118*%
G04:AMPARAMS|DCode=23|XSize=59.06mil|YSize=82.68mil|CornerRadius=14.76mil|HoleSize=0mil|Usage=FLASHONLY|Rotation=0.000|XOffset=0mil|YOffset=0mil|HoleType=Round|Shape=RoundedRectangle|*
%AMROUNDEDRECTD23*
21,1,0.05906,0.05315,0,0,0.0*
21,1,0.02953,0.08268,0,0,0.0*
1,1,0.02953,0.01476,-0.02658*
1,1,0.02953,-0.01476,-0.02658*
1,1,0.02953,-0.01476,0.02658*
1,1,0.02953,0.01476,0.02658*
%
%ADD23ROUNDEDRECTD23*%
%ADD24R,0.07874X0.05906*%
%ADD25R,0.03543X0.03150*%
%ADD26C,0.03937*%
%ADD27C,0.02000*%
%ADD28C,0.04000*%
%ADD29C,0.01000*%
%ADD30C,0.01500*%
%ADD31C,0.01181*%
%ADD32R,0.35000X0.13000*%
%ADD33R,0.27000X0.36000*%
%ADD34R,0.35177X0.12224*%
%ADD35R,0.10000X0.64000*%
%ADD36R,0.82000X0.07000*%
%ADD37R,0.07000X0.55000*%
%ADD38R,0.73000X0.07000*%
%ADD39R,0.05906X0.05906*%
%ADD40C,0.05906*%
%ADD41R,0.05906X0.05906*%
%ADD42C,0.11417*%
%ADD43C,0.11811*%
%ADD44C,0.05512*%
%ADD45C,0.15748*%
%ADD46R,0.09843X0.09843*%
%ADD47R,0.09843X0.09843*%
%ADD48C,0.19685*%
%ADD49C,0.09843*%
%ADD50C,0.07874*%
%ADD51C,0.05000*%
G36*
X292500Y504114D02*
X283913Y495528D01*
X273291D01*
Y487500D01*
X261572Y487500D01*
X261280Y487695D01*
X260500Y487850D01*
X250345D01*
X247326Y490869D01*
X247517Y491331D01*
X249728D01*
Y498449D01*
X239854D01*
Y491331D01*
X242752D01*
Y490520D01*
X242907Y489739D01*
X243349Y489078D01*
X248058Y484369D01*
X248720Y483927D01*
X249500Y483772D01*
Y480000D01*
X243500Y474000D01*
X243000Y473500D01*
Y456193D01*
X235154D01*
Y450453D01*
X243000D01*
Y448000D01*
X245000D01*
X250000Y443000D01*
X249000Y442000D01*
X249000Y437024D01*
X254906Y431118D01*
Y429512D01*
X256512D01*
X257961Y428063D01*
Y424156D01*
X252144Y418338D01*
X244346D01*
Y419169D01*
X235653D01*
Y413429D01*
X237961D01*
Y412156D01*
X237549Y411744D01*
X214001D01*
Y412362D01*
X213809Y413328D01*
X213262Y414148D01*
X212994Y414326D01*
Y420905D01*
X212892Y421680D01*
X212717Y422104D01*
X212593Y422403D01*
X212117Y423023D01*
X206842Y428298D01*
X206222Y428774D01*
X205711Y428986D01*
X205499Y429073D01*
X204724Y429175D01*
X199000D01*
Y508735D01*
X201476D01*
X202443Y508927D01*
X203262Y509475D01*
X203809Y510294D01*
X204001Y511260D01*
Y516575D01*
X203809Y517541D01*
X203262Y518360D01*
X202443Y518907D01*
X201476Y519100D01*
X199000D01*
Y523604D01*
X199594Y523683D01*
X199805Y523770D01*
X200316Y523982D01*
X200936Y524458D01*
X207975Y531496D01*
X292500D01*
X292500Y504114D01*
D02*
G37*
G36*
X326772Y426812D02*
Y405112D01*
X326310Y404921D01*
X317977Y413253D01*
X317316Y413695D01*
X316535Y413850D01*
X303418D01*
X302819Y414630D01*
X301993Y415264D01*
X301032Y415662D01*
X300500Y415732D01*
Y411811D01*
Y407890D01*
X301032Y407960D01*
X301993Y408358D01*
X302819Y408992D01*
X303418Y409772D01*
X315691D01*
X326772Y398691D01*
Y366142D01*
X317986D01*
Y389764D01*
X317883Y390547D01*
X317581Y391277D01*
X317100Y391903D01*
X305053Y403951D01*
X304426Y404431D01*
X304213Y404520D01*
X303953Y404628D01*
Y405764D01*
X296047D01*
Y404837D01*
X292026D01*
Y420058D01*
X299134Y427165D01*
X326418D01*
X326772Y426812D01*
D02*
G37*
G36*
X13906Y82538D02*
X12786Y81418D01*
X12311Y81480D01*
Y78059D01*
X15732D01*
X15670Y78534D01*
X18097Y80961D01*
X48155D01*
X49910Y79207D01*
Y78658D01*
X49079D01*
Y77039D01*
X45102D01*
Y79051D01*
X41846D01*
Y75000D01*
Y70949D01*
X45102D01*
Y72961D01*
X49079D01*
Y71342D01*
X51449D01*
Y75000D01*
X52449D01*
Y71342D01*
X54819D01*
Y71342D01*
X55181D01*
Y71342D01*
X60921D01*
Y72961D01*
X63898D01*
Y70949D01*
X72307D01*
Y67039D01*
X42921D01*
Y68657D01*
X37319D01*
X37181Y68657D01*
X37000D01*
X36819D01*
X36681Y68657D01*
X31079D01*
Y67039D01*
X24845D01*
X22883Y69001D01*
X22221Y69443D01*
X21441Y69598D01*
X15229D01*
X14630Y70378D01*
X13804Y71012D01*
X12843Y71410D01*
X11811Y71546D01*
X10779Y71410D01*
X9818Y71012D01*
X8992Y70378D01*
X8358Y69552D01*
X7960Y68591D01*
X7824Y67559D01*
X7960Y66527D01*
X8358Y65566D01*
X8992Y64740D01*
X9818Y64106D01*
X10779Y63708D01*
X11811Y63572D01*
X12843Y63708D01*
X13804Y64106D01*
X14630Y64740D01*
X15229Y65520D01*
X20596D01*
X22558Y63558D01*
X23220Y63116D01*
X24000Y62961D01*
X31079D01*
Y61343D01*
X36681D01*
X36819Y61343D01*
X37000D01*
X37181D01*
X37319Y61343D01*
X42921D01*
Y62961D01*
X65000D01*
Y34988D01*
X62011D01*
X61658Y35342D01*
Y35681D01*
X61658Y35819D01*
Y36000D01*
Y36181D01*
X61658Y36319D01*
Y38551D01*
X54343D01*
Y36319D01*
X54343Y36181D01*
Y36000D01*
Y35819D01*
X54343Y35681D01*
Y30079D01*
X61658D01*
Y30910D01*
X64256D01*
X64448Y30448D01*
X61000Y27000D01*
X24884D01*
X22883Y29001D01*
X22221Y29443D01*
X21441Y29598D01*
X18000D01*
Y49000D01*
X15000Y52000D01*
Y53000D01*
X11257D01*
X11151Y53155D01*
X11311Y53417D01*
Y57059D01*
X7890D01*
X7927Y56780D01*
X7453Y56547D01*
X6039Y57961D01*
Y81039D01*
X8000Y83000D01*
X13715D01*
X13906Y82538D01*
D02*
G37*
G36*
X67823Y90000D02*
X68015Y89538D01*
X67345Y88869D01*
X66512D01*
X65830Y88733D01*
X65251Y88347D01*
X64865Y87769D01*
X64729Y87087D01*
Y85039D01*
X64865Y84357D01*
X65221Y83825D01*
Y79051D01*
X63898D01*
Y77039D01*
X60921D01*
Y78658D01*
X55181D01*
Y78658D01*
X54819D01*
Y78658D01*
X53988D01*
Y80051D01*
X53833Y80831D01*
X53391Y81493D01*
X50442Y84442D01*
X49780Y84884D01*
X49097Y85020D01*
X49146Y85520D01*
X55559D01*
X55952Y85598D01*
X56234Y85144D01*
X55943Y84765D01*
X55590Y83914D01*
X55536Y83500D01*
X58500D01*
Y86464D01*
X58086Y86410D01*
X57940Y86349D01*
X57657Y86773D01*
X59442Y88558D01*
X59884Y89220D01*
X60039Y90000D01*
X67823D01*
D02*
G37*
G36*
X244000Y54039D02*
X238205D01*
Y54839D01*
X232602D01*
X232465Y54839D01*
X232283D01*
X232102D01*
X231965Y54839D01*
X230733D01*
Y58989D01*
X231087Y59342D01*
X231681D01*
X231819Y59342D01*
X232000D01*
X232181D01*
X232319Y59342D01*
X237921D01*
Y60961D01*
X244000D01*
Y54039D01*
D02*
G37*
G36*
Y21724D02*
X234160D01*
X232482Y23402D01*
X232689Y23902D01*
X238205D01*
Y31216D01*
X237374D01*
Y35713D01*
X238205D01*
Y43028D01*
X237374D01*
Y47524D01*
X238205D01*
Y49961D01*
X244000D01*
Y21724D01*
D02*
G37*
G36*
X207006Y419665D02*
Y414326D01*
X206738Y414148D01*
X206191Y413328D01*
X205999Y412362D01*
Y407047D01*
X206191Y406081D01*
X206738Y405262D01*
X207557Y404714D01*
X208524Y404522D01*
X211476D01*
X212443Y404714D01*
X213262Y405262D01*
X213809Y406081D01*
X214001Y407047D01*
Y407665D01*
X215762D01*
X217961Y405466D01*
Y397732D01*
X216342D01*
Y391992D01*
X216342D01*
Y391630D01*
X216342D01*
Y390799D01*
X203953D01*
Y392713D01*
X199000D01*
Y404522D01*
X201476D01*
X202443Y404714D01*
X203262Y405262D01*
X203809Y406081D01*
X204001Y407047D01*
Y412362D01*
X203809Y413328D01*
X203262Y414148D01*
X202443Y414695D01*
X201476Y414887D01*
X199000D01*
Y423187D01*
X203484D01*
X207006Y419665D01*
D02*
G37*
G36*
X290113Y426703D02*
X286860Y423451D01*
X286380Y422824D01*
X286077Y422094D01*
X285974Y421311D01*
Y404837D01*
X284253D01*
X281026Y408064D01*
Y411709D01*
X282051D01*
Y418402D01*
Y421658D01*
X278000D01*
X273949D01*
Y418402D01*
Y411709D01*
X274974D01*
Y406811D01*
X275077Y406028D01*
X275379Y405298D01*
X275860Y404671D01*
X280860Y399671D01*
X281487Y399190D01*
X282217Y398888D01*
X283000Y398785D01*
X283000Y398785D01*
X296047D01*
Y397858D01*
X302587D01*
X311935Y388510D01*
Y366142D01*
X259842D01*
X192913Y366142D01*
X188976Y370079D01*
X188976Y385976D01*
X193000Y390000D01*
X196047D01*
Y384807D01*
X203953D01*
Y386721D01*
X216342D01*
Y385890D01*
X223657D01*
Y391630D01*
X223657D01*
Y391992D01*
X223657D01*
Y397732D01*
X222039D01*
Y406311D01*
X222039Y406311D01*
X221884Y407091D01*
X221795Y407225D01*
X222031Y407665D01*
X238394D01*
X239174Y407821D01*
X239836Y408263D01*
X241442Y409869D01*
X241884Y410531D01*
X242039Y411311D01*
Y413429D01*
X244346D01*
Y414260D01*
X252988D01*
X253769Y414415D01*
X254430Y414857D01*
X261442Y421869D01*
X261884Y422531D01*
X262039Y423311D01*
X262039Y423311D01*
Y427165D01*
X289922D01*
X290113Y426703D01*
D02*
G37*
G36*
X244000Y95000D02*
Y65039D01*
X237921D01*
Y66658D01*
X237090D01*
Y70342D01*
X237921D01*
Y77658D01*
X232319D01*
X232181Y77658D01*
X232000D01*
X231819D01*
X231681Y77658D01*
X230988D01*
Y80989D01*
X231342Y81343D01*
X231681D01*
X231819Y81343D01*
X232000D01*
X232181D01*
X232319Y81343D01*
X234551D01*
Y85000D01*
Y88657D01*
X232319D01*
X232181Y88657D01*
X232000D01*
X231819D01*
X231681Y88657D01*
X226079D01*
Y81343D01*
X226910D01*
Y77658D01*
X226079D01*
Y70342D01*
X231681D01*
X231819Y70342D01*
X232000D01*
X232181D01*
X232319Y70342D01*
X233012D01*
Y67011D01*
X232658Y66658D01*
X232319D01*
X232181Y66658D01*
X232000D01*
X231819D01*
X231681Y66658D01*
X226079D01*
Y59342D01*
X227165D01*
Y54839D01*
X226362D01*
Y47524D01*
X231965D01*
X232102Y47524D01*
X232283D01*
X232465D01*
X232602Y47524D01*
X233295D01*
Y43028D01*
X232465D01*
Y43028D01*
X232102D01*
Y43028D01*
X226362D01*
Y35713D01*
X227193D01*
Y31216D01*
X226362D01*
Y23902D01*
X227193D01*
Y23768D01*
X227348Y22987D01*
X227790Y22326D01*
X231873Y18243D01*
X232535Y17801D01*
X233315Y17646D01*
X244000D01*
Y11000D01*
Y10000D01*
X243000Y9000D01*
X145000D01*
X144000Y10000D01*
X143000Y11000D01*
Y12477D01*
X144100Y13380D01*
X145209Y14731D01*
X146034Y16273D01*
X146541Y17945D01*
X146663Y19185D01*
X137795D01*
Y20185D01*
X146663D01*
X146541Y21425D01*
X146034Y23097D01*
X145209Y24639D01*
X144100Y25990D01*
X143000Y26893D01*
Y33000D01*
Y36000D01*
X157000Y50000D01*
X161000Y54000D01*
X161961D01*
Y29953D01*
X160047D01*
Y26500D01*
X164000D01*
Y26000D01*
D01*
Y26500D01*
X167953D01*
Y29953D01*
X166039D01*
Y54000D01*
X188000D01*
X193000Y59000D01*
Y96000D01*
X243000D01*
X244000Y95000D01*
D02*
G37*
%LPC*%
G36*
X62464Y82500D02*
X59500D01*
Y79536D01*
X59914Y79590D01*
X60765Y79943D01*
X61496Y80504D01*
X62057Y81235D01*
X62410Y82086D01*
X62464Y82500D01*
D02*
G37*
G36*
X237921Y84500D02*
X235551D01*
Y81343D01*
X237921D01*
Y84500D01*
D02*
G37*
G36*
X199500Y382681D02*
X198968Y382611D01*
X198007Y382213D01*
X197181Y381579D01*
X196547Y380753D01*
X196149Y379792D01*
X196079Y379260D01*
X199500D01*
Y382681D01*
D02*
G37*
G36*
X200500D02*
Y379260D01*
X203921D01*
X203851Y379792D01*
X203453Y380753D01*
X202819Y381579D01*
X201993Y382213D01*
X201032Y382611D01*
X200500Y382681D01*
D02*
G37*
G36*
X272138Y397138D02*
X269173D01*
X269228Y396724D01*
X269581Y395873D01*
X270142Y395142D01*
X270873Y394581D01*
X271724Y394228D01*
X272138Y394173D01*
Y397138D01*
D02*
G37*
G36*
X203921Y378260D02*
X200500D01*
Y374839D01*
X201032Y374909D01*
X201993Y375307D01*
X202819Y375941D01*
X203453Y376766D01*
X203851Y377728D01*
X203921Y378260D01*
D02*
G37*
G36*
X59500Y86464D02*
Y83500D01*
X62464D01*
X62410Y83914D01*
X62057Y84765D01*
X61496Y85496D01*
X60765Y86057D01*
X59914Y86410D01*
X59500Y86464D01*
D02*
G37*
G36*
X235551Y88657D02*
Y85500D01*
X237921D01*
Y88657D01*
X235551D01*
D02*
G37*
G36*
X199500Y378260D02*
X196079D01*
X196149Y377728D01*
X196547Y376766D01*
X197181Y375941D01*
X198007Y375307D01*
X198968Y374909D01*
X199500Y374839D01*
Y378260D01*
D02*
G37*
G36*
X58500Y82500D02*
X55536D01*
X55590Y82086D01*
X55943Y81235D01*
X56504Y80504D01*
X57235Y79943D01*
X58086Y79590D01*
X58500Y79536D01*
Y82500D01*
D02*
G37*
G36*
X49500Y44500D02*
X46536D01*
X46590Y44086D01*
X46943Y43235D01*
X47504Y42504D01*
X48235Y41943D01*
X49086Y41590D01*
X49500Y41536D01*
Y44500D01*
D02*
G37*
G36*
X53464D02*
X50500D01*
Y41536D01*
X50914Y41590D01*
X51765Y41943D01*
X52496Y42504D01*
X53057Y43235D01*
X53410Y44086D01*
X53464Y44500D01*
D02*
G37*
G36*
X49500Y48464D02*
X49086Y48410D01*
X48235Y48057D01*
X47504Y47496D01*
X46943Y46765D01*
X46590Y45914D01*
X46536Y45500D01*
X49500D01*
Y48464D01*
D02*
G37*
G36*
X61658Y41921D02*
X58500D01*
Y39551D01*
X61658D01*
Y41921D01*
D02*
G37*
G36*
X163500Y25500D02*
X160047D01*
Y22047D01*
X163500D01*
Y25500D01*
D02*
G37*
G36*
X167953D02*
X164500D01*
Y22047D01*
X167953D01*
Y25500D01*
D02*
G37*
G36*
X57500Y41921D02*
X54343D01*
Y39551D01*
X57500D01*
Y41921D01*
D02*
G37*
G36*
X50500Y48464D02*
Y45500D01*
X53464D01*
X53410Y45914D01*
X53057Y46765D01*
X52496Y47496D01*
X51765Y48057D01*
X50914Y48410D01*
X50500Y48464D01*
D02*
G37*
G36*
X11311Y77059D02*
X7890D01*
X7960Y76527D01*
X8358Y75566D01*
X8992Y74740D01*
X9818Y74106D01*
X10779Y73708D01*
X11311Y73638D01*
Y77059D01*
D02*
G37*
G36*
X40846Y79051D02*
X30898D01*
Y77039D01*
X26789D01*
X26765Y77057D01*
X25914Y77410D01*
X25000Y77530D01*
X24086Y77410D01*
X23235Y77057D01*
X22504Y76496D01*
X21943Y75765D01*
X21590Y74914D01*
X21470Y74000D01*
X21590Y73086D01*
X21943Y72235D01*
X22504Y71504D01*
X23235Y70943D01*
X24086Y70590D01*
X25000Y70470D01*
X25914Y70590D01*
X26765Y70943D01*
X27496Y71504D01*
X28057Y72235D01*
X28358Y72961D01*
X30898D01*
Y70949D01*
X40846D01*
Y75000D01*
Y79051D01*
D02*
G37*
G36*
X11311Y81480D02*
X10779Y81410D01*
X9818Y81012D01*
X8992Y80378D01*
X8358Y79553D01*
X7960Y78591D01*
X7890Y78059D01*
X11311D01*
Y81480D01*
D02*
G37*
G36*
X15732Y77059D02*
X12311D01*
Y73638D01*
X12843Y73708D01*
X13804Y74106D01*
X14630Y74740D01*
X15264Y75566D01*
X15662Y76527D01*
X15732Y77059D01*
D02*
G37*
G36*
Y57059D02*
X12311D01*
Y53638D01*
X12843Y53708D01*
X13804Y54106D01*
X14630Y54740D01*
X15264Y55566D01*
X15662Y56527D01*
X15732Y57059D01*
D02*
G37*
G36*
X11311Y61480D02*
X10779Y61410D01*
X9818Y61012D01*
X8992Y60378D01*
X8358Y59553D01*
X7960Y58591D01*
X7890Y58059D01*
X11311D01*
Y61480D01*
D02*
G37*
G36*
X12311D02*
Y58059D01*
X15732D01*
X15662Y58591D01*
X15264Y59553D01*
X14630Y60378D01*
X13804Y61012D01*
X12843Y61410D01*
X12311Y61480D01*
D02*
G37*
G36*
X214001Y513417D02*
X210500D01*
Y508735D01*
X211476D01*
X212443Y508927D01*
X213262Y509475D01*
X213809Y510294D01*
X214001Y511260D01*
Y513417D01*
D02*
G37*
G36*
X279500Y519543D02*
X273291D01*
Y514319D01*
X279500D01*
Y519543D01*
D02*
G37*
G36*
X286709D02*
X280500D01*
Y514319D01*
X286709D01*
Y519543D01*
D02*
G37*
G36*
X209500Y513417D02*
X205999D01*
Y511260D01*
X206191Y510294D01*
X206738Y509475D01*
X207557Y508927D01*
X208524Y508735D01*
X209500D01*
Y513417D01*
D02*
G37*
G36*
X235658Y513362D02*
X228343D01*
Y511130D01*
X228343Y510992D01*
Y510811D01*
Y510630D01*
X228343Y510492D01*
Y504890D01*
X231986D01*
X233586Y503290D01*
X234247Y502848D01*
X235028Y502693D01*
X235028Y502693D01*
X239854D01*
Y501173D01*
X249728D01*
Y502693D01*
X250443D01*
X252059Y501077D01*
Y494874D01*
X260358D01*
Y504748D01*
X254155D01*
X252729Y506174D01*
X252068Y506616D01*
X251287Y506772D01*
X249728D01*
Y508291D01*
X239854D01*
Y506772D01*
X236069D01*
X235658Y507183D01*
Y510492D01*
X235658Y510630D01*
Y510811D01*
Y510992D01*
X235658Y511130D01*
Y513362D01*
D02*
G37*
G36*
X279500Y513319D02*
X273291D01*
Y508095D01*
X279500D01*
Y513319D01*
D02*
G37*
G36*
X286709D02*
X280500D01*
Y508095D01*
X286709D01*
Y513319D01*
D02*
G37*
G36*
X231500Y516732D02*
X228343D01*
Y514362D01*
X231500D01*
Y516732D01*
D02*
G37*
G36*
X217047Y526075D02*
X214083D01*
Y523110D01*
X214496Y523165D01*
X215348Y523518D01*
X216079Y524079D01*
X216640Y524810D01*
X216993Y525661D01*
X217047Y526075D01*
D02*
G37*
G36*
X213083Y530039D02*
X212669Y529985D01*
X211818Y529632D01*
X211087Y529071D01*
X210525Y528340D01*
X210173Y527489D01*
X210118Y527075D01*
X213083D01*
Y530039D01*
D02*
G37*
G36*
X214083D02*
Y527075D01*
X217047D01*
X216993Y527489D01*
X216640Y528340D01*
X216079Y529071D01*
X215348Y529632D01*
X214496Y529985D01*
X214083Y530039D01*
D02*
G37*
G36*
X213083Y526075D02*
X210118D01*
X210173Y525661D01*
X210525Y524810D01*
X211087Y524079D01*
X211818Y523518D01*
X212669Y523165D01*
X213083Y523110D01*
Y526075D01*
D02*
G37*
G36*
X235658Y516732D02*
X232500D01*
Y514362D01*
X235658D01*
Y516732D01*
D02*
G37*
G36*
X209500Y519100D02*
X208524D01*
X207557Y518907D01*
X206738Y518360D01*
X206191Y517541D01*
X205999Y516575D01*
Y514417D01*
X209500D01*
Y519100D01*
D02*
G37*
G36*
X211476D02*
X210500D01*
Y514417D01*
X214001D01*
Y516575D01*
X213809Y517541D01*
X213262Y518360D01*
X212443Y518907D01*
X211476Y519100D01*
D02*
G37*
G36*
X229831Y487716D02*
Y484752D01*
X232795D01*
X232741Y485166D01*
X232388Y486017D01*
X231827Y486748D01*
X231096Y487309D01*
X230244Y487662D01*
X229831Y487716D01*
D02*
G37*
G36*
X299500Y415732D02*
X298968Y415662D01*
X298007Y415264D01*
X297181Y414630D01*
X296547Y413804D01*
X296149Y412843D01*
X296079Y412311D01*
X299500D01*
Y415732D01*
D02*
G37*
G36*
X277500Y425913D02*
X273949D01*
Y422657D01*
X277500D01*
Y425913D01*
D02*
G37*
G36*
X282051D02*
X278500D01*
Y422657D01*
X282051D01*
Y425913D01*
D02*
G37*
G36*
X299500Y411311D02*
X296079D01*
X296149Y410779D01*
X296547Y409818D01*
X297181Y408992D01*
X298007Y408358D01*
X298968Y407960D01*
X299500Y407890D01*
Y411311D01*
D02*
G37*
G36*
X276102Y397138D02*
X273138D01*
Y394173D01*
X273552Y394228D01*
X274403Y394581D01*
X275134Y395142D01*
X275695Y395873D01*
X276048Y396724D01*
X276102Y397138D01*
D02*
G37*
G36*
X272138Y401102D02*
X271724Y401048D01*
X270873Y400695D01*
X270142Y400134D01*
X269581Y399403D01*
X269228Y398552D01*
X269173Y398138D01*
X272138D01*
Y401102D01*
D02*
G37*
G36*
X273138D02*
Y398138D01*
X276102D01*
X276048Y398552D01*
X275695Y399403D01*
X275134Y400134D01*
X274403Y400695D01*
X273552Y401048D01*
X273138Y401102D01*
D02*
G37*
G36*
X239500Y426823D02*
X235653D01*
Y424453D01*
X239500D01*
Y426823D01*
D02*
G37*
G36*
X228831Y483752D02*
X225866D01*
X225921Y483338D01*
X226273Y482487D01*
X226835Y481756D01*
X227566Y481195D01*
X228417Y480842D01*
X228831Y480788D01*
Y483752D01*
D02*
G37*
G36*
X232795D02*
X229831D01*
Y480788D01*
X230244Y480842D01*
X231096Y481195D01*
X231827Y481756D01*
X232388Y482487D01*
X232741Y483338D01*
X232795Y483752D01*
D02*
G37*
G36*
X228831Y487716D02*
X228417Y487662D01*
X227566Y487309D01*
X226835Y486748D01*
X226273Y486017D01*
X225921Y485166D01*
X225866Y484752D01*
X228831D01*
Y487716D01*
D02*
G37*
G36*
X243847Y445169D02*
X240000D01*
Y442799D01*
X243847D01*
Y445169D01*
D02*
G37*
G36*
X244346Y426823D02*
X240500D01*
Y424453D01*
X244346D01*
Y426823D01*
D02*
G37*
G36*
X239500Y442299D02*
D01*
Y441799D01*
X235154D01*
Y439429D01*
X237461D01*
Y435039D01*
Y430193D01*
X235653D01*
Y427823D01*
X244346D01*
Y430193D01*
X241539D01*
Y435039D01*
Y439429D01*
X243847D01*
Y441799D01*
X239500D01*
Y442299D01*
D02*
G37*
G36*
X239000Y445169D02*
X235154D01*
Y442799D01*
X239000D01*
Y445169D01*
D02*
G37*
%LPD*%
D10*
X273465Y470787D02*
D03*
Y452835D02*
D03*
D11*
X297874Y461811D02*
D03*
D12*
X280000Y489803D02*
D03*
Y513819D02*
D03*
X76000Y32992D02*
D03*
Y57008D02*
D03*
D13*
X232000Y507760D02*
D03*
Y513862D02*
D03*
X260000Y468760D02*
D03*
Y474862D02*
D03*
X248000Y124949D02*
D03*
Y131051D02*
D03*
X58000Y99051D02*
D03*
Y92949D02*
D03*
X113000Y137949D02*
D03*
Y144051D02*
D03*
X126000D02*
D03*
Y137949D02*
D03*
X174213Y89665D02*
D03*
Y83563D02*
D03*
X173000Y104949D02*
D03*
Y111051D02*
D03*
X58000Y39051D02*
D03*
Y32949D02*
D03*
X220000Y394862D02*
D03*
Y388760D02*
D03*
D14*
X239500Y442299D02*
D03*
Y453323D02*
D03*
X240000Y427323D02*
D03*
Y416299D02*
D03*
X95000Y105512D02*
D03*
Y94488D02*
D03*
D15*
X103000Y126000D02*
D03*
X164000Y66000D02*
D03*
D16*
X74347Y75000D02*
D03*
X67654D02*
D03*
X34653D02*
D03*
X41346D02*
D03*
X148346Y95000D02*
D03*
X141654D02*
D03*
X147346Y120000D02*
D03*
X140654D02*
D03*
D17*
X260728Y129921D02*
D03*
X266831D02*
D03*
X292224Y137795D02*
D03*
X298327D02*
D03*
X311909D02*
D03*
X318012D02*
D03*
X335531D02*
D03*
X341634D02*
D03*
X359154Y129921D02*
D03*
X365256D02*
D03*
Y106299D02*
D03*
X359154D02*
D03*
X365256Y118110D02*
D03*
X359154D02*
D03*
Y94488D02*
D03*
X365256D02*
D03*
X359154Y82677D02*
D03*
X365256D02*
D03*
Y59055D02*
D03*
X359154D02*
D03*
X365256Y70866D02*
D03*
X359154D02*
D03*
X365256Y47244D02*
D03*
X359154D02*
D03*
Y35433D02*
D03*
X365256D02*
D03*
X339469Y19685D02*
D03*
X345571D02*
D03*
X323721D02*
D03*
X329823D02*
D03*
X307972D02*
D03*
X314075D02*
D03*
X292224D02*
D03*
X298327D02*
D03*
X276476D02*
D03*
X282579D02*
D03*
X260728D02*
D03*
X266831D02*
D03*
X235335Y39370D02*
D03*
X229232D02*
D03*
X235335Y27559D02*
D03*
X229232D02*
D03*
Y51181D02*
D03*
X235335D02*
D03*
X235051Y63000D02*
D03*
X228949D02*
D03*
X235051Y85000D02*
D03*
X228949D02*
D03*
Y74000D02*
D03*
X235051D02*
D03*
X51949Y75000D02*
D03*
X58051D02*
D03*
X40051Y65000D02*
D03*
X33949D02*
D03*
X149051Y84000D02*
D03*
X142949D02*
D03*
X147051Y106000D02*
D03*
X140949D02*
D03*
X133051D02*
D03*
X126949D02*
D03*
D18*
X97000Y39882D02*
D03*
Y50118D02*
D03*
X124000Y91118D02*
D03*
Y80882D02*
D03*
D19*
X74740Y86063D02*
D03*
X67260D02*
D03*
X71000Y93937D02*
D03*
D20*
X36000Y102347D02*
D03*
Y95653D02*
D03*
X47000Y102347D02*
D03*
Y95653D02*
D03*
X278000Y422157D02*
D03*
Y415465D02*
D03*
D21*
X256209Y499811D02*
D03*
D22*
X244791Y494890D02*
D03*
Y504732D02*
D03*
D23*
X100000Y513917D02*
D03*
X120000D02*
D03*
X140000D02*
D03*
X180000D02*
D03*
X190000D02*
D03*
X200000D02*
D03*
X210000D02*
D03*
Y409705D02*
D03*
X200000D02*
D03*
X190000D02*
D03*
X180000D02*
D03*
X140000D02*
D03*
X120000D02*
D03*
X100000D02*
D03*
D24*
X259842Y444488D02*
D03*
Y433465D02*
D03*
D25*
X164937Y90000D02*
D03*
X157063Y86260D02*
D03*
Y93740D02*
D03*
X164339Y108653D02*
D03*
X156465Y104913D02*
D03*
Y112394D02*
D03*
D26*
X210000Y409705D02*
Y420905D01*
X204724Y426181D02*
X210000Y420905D01*
X177165Y426181D02*
X204724D01*
X171260Y432087D02*
X177165Y426181D01*
X171260Y432087D02*
Y522638D01*
X175197Y526575D01*
X198819D01*
X216535Y544291D01*
D27*
X276575Y423583D02*
X278000Y422157D01*
X260000Y423311D02*
Y433465D01*
X252988Y416299D02*
X260000Y423311D01*
X239500Y435039D02*
Y442299D01*
Y427823D02*
Y435039D01*
X323622Y303543D02*
X325984Y301181D01*
X297638Y303543D02*
X323622D01*
X291339Y309842D02*
X297638Y303543D01*
X291339Y309842D02*
Y314961D01*
X361417Y304331D02*
X366000Y308913D01*
X344153Y304331D02*
X361417D01*
X366000Y308913D02*
Y341480D01*
X334587Y350787D02*
X356693D01*
X328287Y344488D02*
X334587Y350787D01*
X356693D02*
X366000Y341480D01*
X308760Y324961D02*
X325138Y341339D01*
X291339Y324961D02*
X308760D01*
X334193Y350394D02*
Y393701D01*
X325138Y341339D02*
X334193Y350394D01*
X205972Y323890D02*
X207028Y322835D01*
X181890Y323890D02*
X205972D01*
X169291Y311291D02*
X181890Y323890D01*
X169291Y311291D02*
Y311709D01*
X126000Y268000D02*
X169291Y311291D01*
X140055Y340945D02*
X169291Y311709D01*
X225984Y341339D02*
X245000Y322323D01*
Y279000D02*
Y322323D01*
X102815Y340945D02*
X140055D01*
X56000Y343000D02*
X71653Y327346D01*
Y322654D02*
Y327346D01*
X71441Y322441D02*
X107874D01*
X39685Y353150D02*
X245000D01*
X21181Y334646D02*
X39685Y353150D01*
X316535Y411811D02*
X334193Y394153D01*
X300000Y411811D02*
X316535D01*
X297874Y459437D02*
X300500Y456811D01*
X297874Y459437D02*
Y461811D01*
X210000Y409705D02*
X216606D01*
X240000Y411311D02*
Y416299D01*
X238394Y409705D02*
X240000Y411311D01*
X216606Y409705D02*
X238394D01*
X200000Y388760D02*
X220000D01*
X244791Y490520D02*
Y494890D01*
Y490520D02*
X249500Y485811D01*
X260500D01*
X264949Y481362D01*
Y474862D02*
Y481362D01*
X251287Y504732D02*
X256209Y499811D01*
X244791Y504732D02*
X251287D01*
X235028D02*
X244791D01*
X232000Y507760D02*
X235028Y504732D01*
X220000Y394862D02*
Y406311D01*
X216606Y409705D02*
X220000Y406311D01*
X240000Y416299D02*
X252988D01*
X239500Y427823D02*
X240000Y427323D01*
X272976Y453323D02*
X273465Y452835D01*
X239500Y453323D02*
X272976D01*
X261024Y452835D02*
X273465D01*
X260000Y451811D02*
X261024Y452835D01*
X260000Y447323D02*
Y451811D01*
X261000Y461811D02*
X297874D01*
X260000Y462811D02*
X261000Y461811D01*
X260000Y462811D02*
Y468760D01*
Y474862D02*
X264949D01*
X269024Y470787D01*
X273465D01*
X31181Y334646D02*
X39535Y343000D01*
X56000D01*
X164000Y26000D02*
Y66000D01*
X26000Y75000D02*
X34653D01*
X25000Y74000D02*
X26000Y75000D01*
X26654Y95653D02*
X36000D01*
X47000D01*
X126949Y128949D02*
X127000Y129000D01*
X126949Y106000D02*
Y128949D01*
X123000Y73000D02*
X124000Y74000D01*
Y80882D01*
X127118Y84000D01*
X142949D01*
X134000Y89000D02*
X135000D01*
X132000Y91000D02*
X134000Y89000D01*
X136000Y79000D02*
X173488D01*
X73000Y110000D02*
X78000Y105000D01*
X21000Y110000D02*
X73000D01*
X11811Y100811D02*
X21000Y110000D01*
X11811Y97559D02*
Y100811D01*
X89000Y117000D02*
X95000Y123000D01*
X13000Y117000D02*
X89000D01*
X4000Y108000D02*
X13000Y117000D01*
X4000Y39000D02*
Y108000D01*
Y39000D02*
X5441Y37559D01*
X11811D01*
X95000Y123000D02*
Y141000D01*
X98051Y144051D01*
X113000D01*
X58000Y90000D02*
Y92949D01*
X55559Y87559D02*
X58000Y90000D01*
X11811Y87559D02*
X55559D01*
X47000Y102347D02*
X49654D01*
X52949Y99051D01*
X74347Y65346D02*
Y75000D01*
X74000Y65000D02*
X74347Y65346D01*
X273000Y79583D02*
X284559Y68024D01*
X273000Y79583D02*
Y86000D01*
X259000Y100000D02*
X273000Y86000D01*
X247000Y100000D02*
X259000D01*
X200000Y147000D02*
X247000Y100000D01*
X148000Y147000D02*
X200000D01*
X256047Y120953D02*
X283965D01*
X252051Y124949D02*
X256047Y120953D01*
X248000Y131051D02*
X254949D01*
X256079Y129921D01*
X260728D01*
X311909Y131000D02*
Y137795D01*
Y126276D02*
Y131000D01*
X285000Y137795D02*
X292224D01*
X268795D02*
X285000D01*
X288000Y131000D02*
X311909D01*
X285000Y134000D02*
X288000Y131000D01*
X285000Y134000D02*
Y137795D01*
X266831Y129921D02*
Y135831D01*
X268795Y137795D01*
X298327D02*
Y141327D01*
X301000Y144000D01*
X315000D01*
X318012Y140988D01*
Y137795D02*
Y140988D01*
X306587Y120953D02*
X311909Y126276D01*
X318012Y137795D02*
X335531D01*
X348000Y129921D02*
X359154D01*
X344079D02*
X348000D01*
Y118000D02*
Y129921D01*
X339642Y109642D02*
X348000Y118000D01*
X326177Y109642D02*
X339642D01*
X341634Y132366D02*
Y137795D01*
Y132366D02*
X344079Y129921D01*
X365256Y118110D02*
Y129921D01*
X359154Y106299D02*
Y118110D01*
X365256Y106299D02*
Y118110D01*
Y82677D02*
Y94488D01*
X359154D02*
Y106299D01*
Y82677D02*
Y94488D01*
X337488Y90051D02*
X341925Y94488D01*
X359154D01*
X365256Y70866D02*
Y82677D01*
Y59055D02*
Y70866D01*
X337488Y67429D02*
X348429D01*
X351866Y70866D01*
X359154D01*
Y59055D02*
Y70866D01*
Y47244D02*
Y59055D01*
X365256Y35433D02*
Y47244D01*
X359154Y26153D02*
Y35433D01*
X352685Y19685D02*
X359154Y26153D01*
X345571Y19685D02*
X352685D01*
X329823D02*
X339469D01*
X326177Y26823D02*
Y47839D01*
Y26823D02*
X329823Y23177D01*
Y19685D02*
Y23177D01*
X314075Y19685D02*
X323721D01*
X306587Y27413D02*
Y36528D01*
Y27413D02*
X307972Y26028D01*
Y19685D02*
Y26028D01*
X298327Y19685D02*
X307972D01*
X282579D02*
X292224D01*
X260213Y52000D02*
X264374Y47839D01*
X236154Y52000D02*
X260213D01*
X235335Y51181D02*
X236154Y52000D01*
X276476Y29039D02*
X283965Y36528D01*
X276476Y19685D02*
Y29039D01*
X266831Y19685D02*
X276476D01*
X233315D02*
X260728D01*
X229232Y23768D02*
X233315Y19685D01*
X229232Y23768D02*
Y27559D01*
Y39370D01*
X235335Y27559D02*
Y39370D01*
Y51181D01*
X248634Y63000D02*
X253063Y67429D01*
X235051Y63000D02*
X248634D01*
X235051D02*
Y74000D01*
X228949D02*
Y85000D01*
X11811Y27559D02*
X21441D01*
X27000Y22000D01*
X171000Y98000D02*
X174000Y101000D01*
Y104949D01*
X126000Y91000D02*
X132000D01*
X137000Y106000D02*
X140949D01*
X133051D02*
X137000D01*
X132000Y114000D02*
X137000Y109000D01*
Y106000D02*
Y109000D01*
X67260Y86063D02*
Y86260D01*
X75957Y32949D02*
X76000Y32992D01*
X58000Y32949D02*
X75957D01*
X97000Y36000D02*
Y39882D01*
X93992Y32992D02*
X97000Y36000D01*
X76000Y32992D02*
X93992D01*
X97000Y50118D02*
Y54000D01*
X93992Y57008D02*
X97000Y54000D01*
X76000Y57008D02*
X93992D01*
X76000D02*
Y63000D01*
X74000Y65000D02*
X76000Y63000D01*
X40051Y65000D02*
X74000D01*
X11811Y67559D02*
X21441D01*
X24000Y65000D01*
X33949D01*
X11811Y77559D02*
X17252Y83000D01*
X49000D01*
X51949Y80051D01*
Y75000D02*
Y80051D01*
X65886Y99051D02*
X71000Y93937D01*
X58000Y99051D02*
X65886D01*
X52949D02*
X58000D01*
X36000Y102347D02*
X47000D01*
X41346Y75000D02*
X51949D01*
X58051D02*
X67654D01*
X74740Y75394D02*
Y86063D01*
X67260Y75394D02*
Y86063D01*
X136299Y157480D02*
X199520D01*
X232051Y124949D02*
X248000D01*
X98425Y210472D02*
Y261425D01*
X105000Y268000D01*
X126000D01*
X216535Y210630D02*
Y262535D01*
X223000Y269000D01*
X235000D01*
X245000Y279000D01*
Y353331D02*
X303000D01*
X199520Y157480D02*
X224500Y132500D01*
X232051Y124949D01*
X173488Y79000D02*
X174213Y79724D01*
Y83563D01*
X27000Y22000D02*
X107630D01*
X141000Y55370D01*
Y63000D01*
D28*
X275590Y345276D02*
X308661D01*
X271654Y341339D02*
X275590Y345276D01*
X271654Y318898D02*
Y341339D01*
X308661Y345276D02*
X314961Y351575D01*
Y389764D01*
X80000Y521811D02*
Y551811D01*
X74291Y516102D02*
X80000Y521811D01*
X50000Y516102D02*
X74291D01*
X50000Y401811D02*
X60000Y391811D01*
X50000Y401811D02*
Y427520D01*
X80000Y391811D02*
Y401811D01*
X87894Y409705D01*
X100000Y513917D02*
Y551811D01*
X275590Y314961D02*
X291339D01*
X271654Y318898D02*
X275590Y314961D01*
X302913Y401811D02*
X314961Y389764D01*
X300000Y401811D02*
X302913D01*
X289000D02*
X300000D01*
X283000D02*
X289000D01*
Y421311D01*
X300500Y432811D01*
Y456811D01*
X278000Y406811D02*
Y415465D01*
Y406811D02*
X283000Y401811D01*
X87894Y409705D02*
X100000D01*
D29*
X207028Y322047D02*
X222106D01*
X207028Y341339D02*
X225984D01*
X251000Y158000D02*
Y336795D01*
X245000Y342795D02*
X251000Y336795D01*
X245000Y342795D02*
Y353150D01*
X88917Y340945D02*
X102815D01*
X65000Y315394D02*
X72835Y323228D01*
X65000Y310000D02*
Y315394D01*
X88425Y210472D02*
X98110Y200787D01*
X108110D01*
X51181Y161819D02*
X55520Y157480D01*
X106299D01*
X51181Y161819D02*
Y334646D01*
X58000Y303000D02*
X65000Y310000D01*
X58000Y167000D02*
Y303000D01*
X141307Y111693D02*
Y119346D01*
X139654Y121000D02*
X141307Y119346D01*
X133000Y121000D02*
X139654D01*
X147000Y117528D02*
Y120000D01*
X121000Y103000D02*
Y118000D01*
X166685Y111000D02*
X173000D01*
X164339Y108653D02*
X166685Y111000D01*
X123000Y101000D02*
X145000D01*
X121000Y103000D02*
X123000Y101000D01*
X134949Y137949D02*
X135000Y138000D01*
X148346Y95000D02*
Y97654D01*
X145000Y101000D02*
X148346Y97654D01*
X152134Y112394D02*
X156465D01*
X147000Y117528D02*
X152134Y112394D01*
X156465D02*
X156661D01*
X160402Y108653D01*
Y99000D02*
Y108653D01*
X141307Y111693D02*
X142000Y111000D01*
X146000D01*
X146819Y110181D01*
Y104913D02*
Y110181D01*
Y104913D02*
X156465D01*
X140717Y90284D02*
Y92905D01*
Y90284D02*
X142000Y89000D01*
X147000D01*
X149606Y93740D02*
X157063D01*
X147000Y89000D02*
X148051Y87949D01*
Y84000D02*
Y87949D01*
X154260Y86260D02*
X157063D01*
X152000Y84000D02*
X154260Y86260D01*
X148051Y84000D02*
X152000D01*
X157063Y95661D02*
X160402Y99000D01*
X157063Y93740D02*
Y95661D01*
X126299Y144350D02*
Y157480D01*
X126000Y144051D02*
X126299Y144350D01*
X88917Y304331D02*
X107933D01*
X208268Y304724D02*
X227284D01*
X108110Y200787D02*
X116299Y192598D01*
Y157480D02*
Y192598D01*
X224500Y132500D02*
X225500D01*
X251000Y158000D01*
X58000Y167000D02*
X62000Y163000D01*
X67000D01*
D30*
X228949Y51465D02*
Y63000D01*
X248000Y124949D02*
X252051D01*
X113000Y137949D02*
X126000D01*
X134949D01*
X95000Y105512D02*
Y114000D01*
Y91000D02*
Y94488D01*
X94000Y90000D02*
X95000Y91000D01*
X71000Y90000D02*
X94000D01*
X67260Y86260D02*
X71000Y90000D01*
D31*
X164937D02*
X173878D01*
D32*
X310000Y486311D02*
D03*
D33*
X314000Y462311D02*
D03*
D34*
X309911Y438199D02*
D03*
D35*
X110000Y100000D02*
D03*
D36*
X146000Y71500D02*
D03*
D37*
X183500Y97500D02*
D03*
D38*
X150500Y128500D02*
D03*
D39*
X216535Y544291D02*
D03*
X106299Y157480D02*
D03*
X51181Y334646D02*
D03*
D40*
X226535Y544291D02*
D03*
X11811Y37559D02*
D03*
Y47559D02*
D03*
Y57559D02*
D03*
Y67559D02*
D03*
Y77559D02*
D03*
Y87559D02*
D03*
Y97559D02*
D03*
X116299Y157480D02*
D03*
X126299D02*
D03*
X136299D02*
D03*
X300000Y411811D02*
D03*
X291339Y324961D02*
D03*
X41181Y334646D02*
D03*
X31181D02*
D03*
X21181D02*
D03*
X200000Y378760D02*
D03*
D41*
X11811Y27559D02*
D03*
X164000Y26000D02*
D03*
X300000Y401811D02*
D03*
X291339Y314961D02*
D03*
X200000Y388760D02*
D03*
D42*
X226043Y341339D02*
D03*
Y322835D02*
D03*
Y304331D02*
D03*
X207028Y341339D02*
D03*
Y322835D02*
D03*
Y304331D02*
D03*
X88917D02*
D03*
Y322835D02*
D03*
Y341339D02*
D03*
X107933Y304331D02*
D03*
Y322835D02*
D03*
Y341339D02*
D03*
X344153D02*
D03*
Y322835D02*
D03*
Y304331D02*
D03*
X325138Y341339D02*
D03*
Y322835D02*
D03*
Y304331D02*
D03*
D43*
X196535Y190630D02*
D03*
X236535Y230630D02*
D03*
X118425Y230472D02*
D03*
X78425Y190472D02*
D03*
X50000Y516102D02*
D03*
Y427520D02*
D03*
D44*
X206535Y210630D02*
D03*
X216535D02*
D03*
X98425Y210472D02*
D03*
X88425D02*
D03*
D45*
X275590Y295276D02*
D03*
X157480Y196850D02*
D03*
X137795Y314961D02*
D03*
X19685Y137795D02*
D03*
X137795Y19685D02*
D03*
X19685Y196850D02*
D03*
X370079Y153543D02*
D03*
X196850Y551181D02*
D03*
X374016Y374016D02*
D03*
Y551181D02*
D03*
X19685Y374016D02*
D03*
Y551181D02*
D03*
D46*
X80000Y391811D02*
D03*
X60000D02*
D03*
D47*
X100000Y551811D02*
D03*
X80000D02*
D03*
D48*
X184772Y461811D02*
D03*
X125716D02*
D03*
D49*
X284559Y89457D02*
D03*
X305992Y68024D02*
D03*
Y89457D02*
D03*
X253063Y90051D02*
D03*
X264374Y109642D02*
D03*
X283965Y120953D02*
D03*
X306587D02*
D03*
X326177Y109642D02*
D03*
X337488Y90051D02*
D03*
Y67429D02*
D03*
X326177Y47839D02*
D03*
X306587Y36528D02*
D03*
X283965D02*
D03*
X264374Y47839D02*
D03*
X253063Y67429D02*
D03*
X284559Y68024D02*
D03*
D50*
X61024Y138779D02*
D03*
X224410Y107283D02*
D03*
D51*
X272638Y397638D02*
D03*
X229331Y484252D02*
D03*
X213583Y526575D02*
D03*
X59000Y83000D02*
D03*
X50000Y45000D02*
D03*
X121000Y118000D02*
D03*
X25000Y74000D02*
D03*
X26654Y95653D02*
D03*
X135000Y89000D02*
D03*
X136000Y79000D02*
D03*
X78000Y105000D02*
D03*
X148000Y147000D02*
D03*
X141000Y63000D02*
D03*
X171000Y98000D02*
D03*
X132000Y114000D02*
D03*
X133000Y121000D02*
D03*
X135000Y138000D02*
D03*
X95000Y114000D02*
D03*
X303000Y353331D02*
D03*
X67000Y163000D02*
D03*
X144685Y128937D02*
D03*
X160433D02*
D03*
X183071D02*
D03*
X125000D02*
D03*
X109252D02*
D03*
Y109252D02*
D03*
X110236Y71850D02*
D03*
X109252Y90551D02*
D03*
X183071D02*
D03*
Y70866D02*
D03*
X164370D02*
D03*
X131890D02*
D03*
X150591D02*
D03*
X183071Y110236D02*
D03*
M02*
