G04*
G04 #@! TF.GenerationSoftware,Altium Limited,CircuitStudio,1.5.2 (30)*
G04*
G04 Layer_Physical_Order=2*
G04 Layer_Color=10066431*
%FSLAX25Y25*%
%MOIN*%
G70*
G01*
G75*
%ADD27C,0.02000*%
%ADD29C,0.01000*%
%ADD30C,0.01500*%
%ADD39R,0.05906X0.05906*%
%ADD40C,0.05906*%
%ADD41R,0.05906X0.05906*%
%ADD42C,0.11417*%
%ADD43C,0.11811*%
%ADD44C,0.05512*%
%ADD45C,0.15748*%
%ADD46R,0.09843X0.09843*%
%ADD47R,0.09843X0.09843*%
%ADD48C,0.19685*%
%ADD49C,0.09843*%
%ADD50C,0.07874*%
%ADD51C,0.05000*%
G36*
X384992Y290457D02*
X379969Y285433D01*
X284968D01*
X259992Y260457D01*
Y215457D01*
X247236Y202819D01*
X177157D01*
X169406Y212992D01*
X144488Y212598D01*
X136213Y203606D01*
X51968Y203150D01*
X46850Y209055D01*
X14119Y209330D01*
X4992Y218457D01*
Y346457D01*
X59455D01*
X59646Y345995D01*
X52250Y338598D01*
X47228D01*
Y330693D01*
X55134D01*
Y335715D01*
X69349Y349929D01*
X128187D01*
X175227Y302889D01*
X175889Y302447D01*
X176669Y302291D01*
X200636D01*
X200800Y301751D01*
X201423Y300586D01*
X202261Y299564D01*
X203282Y298726D01*
X204448Y298103D01*
X205712Y297719D01*
X207028Y297590D01*
X208343Y297719D01*
X209607Y298103D01*
X210773Y298726D01*
X211794Y299564D01*
X212633Y300586D01*
X213256Y301751D01*
X213639Y303016D01*
X213769Y304331D01*
X213639Y305646D01*
X213256Y306910D01*
X212633Y308076D01*
X211794Y309097D01*
X210773Y309936D01*
X209607Y310559D01*
X208343Y310942D01*
X207028Y311072D01*
X205712Y310942D01*
X204448Y310559D01*
X203282Y309936D01*
X202261Y309097D01*
X201423Y308076D01*
X200800Y306910D01*
X200636Y306370D01*
X177514D01*
X133889Y349995D01*
X134080Y350457D01*
X300961D01*
Y330465D01*
X301116Y329684D01*
X301558Y329023D01*
X309188Y321393D01*
X309850Y320951D01*
X310630Y320795D01*
X310630Y320795D01*
X318746D01*
X318910Y320255D01*
X319533Y319090D01*
X320371Y318068D01*
X321393Y317230D01*
X322558Y316607D01*
X323823Y316223D01*
X325138Y316093D01*
X326453Y316223D01*
X327717Y316607D01*
X328883Y317230D01*
X329905Y318068D01*
X330743Y319090D01*
X331366Y320255D01*
X331749Y321519D01*
X331879Y322835D01*
X331749Y324150D01*
X331366Y325414D01*
X330743Y326580D01*
X329905Y327601D01*
X328883Y328440D01*
X327717Y329063D01*
X326453Y329446D01*
X325138Y329576D01*
X323823Y329446D01*
X322558Y329063D01*
X321393Y328440D01*
X320371Y327601D01*
X319533Y326580D01*
X318910Y325414D01*
X318746Y324874D01*
X311475D01*
X305039Y331309D01*
Y350457D01*
X384992D01*
Y290457D01*
D02*
G37*
G36*
X390000Y155000D02*
Y15000D01*
X380000Y5000D01*
X55000D01*
X40000Y20000D01*
X5000D01*
Y170000D01*
X75463D01*
X75654Y169538D01*
X71155Y165039D01*
X69847D01*
X69496Y165496D01*
X68765Y166057D01*
X67914Y166410D01*
X67000Y166530D01*
X66086Y166410D01*
X65235Y166057D01*
X64504Y165496D01*
X63943Y164765D01*
X63590Y163914D01*
X63470Y163000D01*
X63590Y162086D01*
X63943Y161235D01*
X64504Y160504D01*
X65235Y159943D01*
X66086Y159590D01*
X67000Y159470D01*
X67914Y159590D01*
X68765Y159943D01*
X69496Y160504D01*
X69847Y160961D01*
X72000D01*
X72780Y161116D01*
X73442Y161558D01*
X79845Y167961D01*
X121155D01*
X124260Y164856D01*
Y160898D01*
X123480Y160300D01*
X122846Y159474D01*
X122448Y158512D01*
X122312Y157480D01*
X122448Y156448D01*
X122846Y155487D01*
X123480Y154661D01*
X124306Y154028D01*
X125267Y153629D01*
X126299Y153493D01*
X127331Y153629D01*
X128293Y154028D01*
X129118Y154661D01*
X129752Y155487D01*
X130150Y156448D01*
X130286Y157480D01*
X130150Y158512D01*
X129752Y159474D01*
X129118Y160300D01*
X128338Y160898D01*
Y165701D01*
X128183Y166481D01*
X127741Y167143D01*
X125346Y169538D01*
X125537Y170000D01*
X375000D01*
X390000Y155000D01*
D02*
G37*
G36*
X295276Y531496D02*
Y488545D01*
X294920Y488193D01*
X274938Y488438D01*
X266000Y479500D01*
X264500Y478000D01*
X264700Y429134D01*
X326772D01*
Y366496D01*
X326418Y366142D01*
X185000Y366404D01*
X185047Y437016D01*
X200787Y452756D01*
X200787Y471654D01*
X185039Y484252D01*
X185039Y531496D01*
X221457Y531496D01*
Y555118D01*
X295276D01*
Y531496D01*
D02*
G37*
%LPC*%
G36*
X182571Y90051D02*
X179606D01*
X179661Y89638D01*
X180014Y88786D01*
X180575Y88055D01*
X181306Y87494D01*
X182157Y87141D01*
X182571Y87087D01*
Y90051D01*
D02*
G37*
G36*
X109752Y94016D02*
Y91051D01*
X112716D01*
X112662Y91465D01*
X112309Y92316D01*
X111748Y93047D01*
X111017Y93608D01*
X110166Y93961D01*
X109752Y94016D01*
D02*
G37*
G36*
X108752D02*
X108338Y93961D01*
X107487Y93608D01*
X106756Y93047D01*
X106195Y92316D01*
X105842Y91465D01*
X105788Y91051D01*
X108752D01*
Y94016D01*
D02*
G37*
G36*
X186535Y90051D02*
X183571D01*
Y87087D01*
X183984Y87141D01*
X184836Y87494D01*
X185567Y88055D01*
X186128Y88786D01*
X186481Y89638D01*
X186535Y90051D01*
D02*
G37*
G36*
X229323Y106783D02*
X224909D01*
Y102370D01*
X225698Y102473D01*
X226899Y102971D01*
X227931Y103762D01*
X228722Y104794D01*
X229219Y105995D01*
X229323Y106783D01*
D02*
G37*
G36*
X264374Y115592D02*
X263213Y115477D01*
X262097Y115139D01*
X261068Y114589D01*
X260167Y113849D01*
X259427Y112947D01*
X258877Y111919D01*
X258538Y110802D01*
X258424Y109642D01*
X258538Y108481D01*
X258877Y107365D01*
X259427Y106336D01*
X260167Y105435D01*
X261068Y104695D01*
X262097Y104145D01*
X263213Y103806D01*
X264374Y103692D01*
X265535Y103806D01*
X266651Y104145D01*
X267680Y104695D01*
X268581Y105435D01*
X269321Y106336D01*
X269871Y107365D01*
X270210Y108481D01*
X270324Y109642D01*
X270210Y110802D01*
X269871Y111919D01*
X269321Y112947D01*
X268581Y113849D01*
X267680Y114589D01*
X266651Y115139D01*
X265535Y115477D01*
X264374Y115592D01*
D02*
G37*
G36*
X326177D02*
X325016Y115477D01*
X323900Y115139D01*
X322872Y114589D01*
X321970Y113849D01*
X321230Y112947D01*
X320680Y111919D01*
X320342Y110802D01*
X320227Y109642D01*
X320342Y108481D01*
X320680Y107365D01*
X321230Y106336D01*
X321970Y105435D01*
X322872Y104695D01*
X323900Y104145D01*
X325016Y103806D01*
X326177Y103692D01*
X327338Y103806D01*
X328454Y104145D01*
X329483Y104695D01*
X330384Y105435D01*
X331124Y106336D01*
X331674Y107365D01*
X332013Y108481D01*
X332127Y109642D01*
X332013Y110802D01*
X331674Y111919D01*
X331124Y112947D01*
X330384Y113849D01*
X329483Y114589D01*
X328454Y115139D01*
X327338Y115477D01*
X326177Y115592D01*
D02*
G37*
G36*
X223909Y106783D02*
X219496D01*
X219600Y105995D01*
X220097Y104794D01*
X220888Y103762D01*
X221920Y102971D01*
X223121Y102473D01*
X223909Y102370D01*
Y106783D01*
D02*
G37*
G36*
X182571Y94016D02*
X182157Y93961D01*
X181306Y93608D01*
X180575Y93047D01*
X180014Y92316D01*
X179661Y91465D01*
X179606Y91051D01*
X182571D01*
Y94016D01*
D02*
G37*
G36*
X183571D02*
Y91051D01*
X186535D01*
X186481Y91465D01*
X186128Y92316D01*
X185567Y93047D01*
X184836Y93608D01*
X183984Y93961D01*
X183571Y94016D01*
D02*
G37*
G36*
X11811Y101546D02*
X10779Y101410D01*
X9818Y101012D01*
X8992Y100378D01*
X8358Y99553D01*
X7960Y98591D01*
X7824Y97559D01*
X7960Y96527D01*
X8358Y95566D01*
X8992Y94740D01*
X9818Y94106D01*
X10779Y93708D01*
X11811Y93572D01*
X12843Y93708D01*
X13804Y94106D01*
X14630Y94740D01*
X15264Y95566D01*
X15662Y96527D01*
X15798Y97559D01*
X15662Y98591D01*
X15264Y99553D01*
X14630Y100378D01*
X13804Y101012D01*
X12843Y101410D01*
X11811Y101546D01*
D02*
G37*
G36*
X112716Y90051D02*
X109752D01*
Y87087D01*
X110166Y87141D01*
X111017Y87494D01*
X111748Y88055D01*
X112309Y88786D01*
X112662Y89638D01*
X112716Y90051D01*
D02*
G37*
G36*
X135000Y141530D02*
X134086Y141410D01*
X133235Y141057D01*
X132504Y140496D01*
X131943Y139765D01*
X131590Y138914D01*
X131470Y138000D01*
X131590Y137086D01*
X131943Y136235D01*
X132504Y135504D01*
X133216Y134958D01*
Y124719D01*
X133000Y124530D01*
X132086Y124410D01*
X131235Y124057D01*
X130504Y123496D01*
X129943Y122765D01*
X129590Y121914D01*
X129470Y121000D01*
X129590Y120086D01*
X129943Y119235D01*
X130504Y118504D01*
X131235Y117943D01*
X131251Y117936D01*
X131184Y117423D01*
X131086Y117410D01*
X130235Y117057D01*
X129504Y116496D01*
X128943Y115765D01*
X128590Y114914D01*
X128470Y114000D01*
X128590Y113086D01*
X128943Y112235D01*
X129504Y111504D01*
X129961Y111153D01*
Y110000D01*
X130116Y109220D01*
X130558Y108558D01*
X133204Y105912D01*
X133116Y105780D01*
X132961Y105000D01*
Y91847D01*
X132504Y91496D01*
X131943Y90765D01*
X131590Y89914D01*
X131470Y89000D01*
X131590Y88086D01*
X131943Y87235D01*
X132504Y86504D01*
X133235Y85943D01*
X134086Y85590D01*
X135000Y85470D01*
X135914Y85590D01*
X136765Y85943D01*
X137496Y86504D01*
X138057Y87235D01*
X138410Y88086D01*
X138461Y88473D01*
X138961Y88440D01*
Y81654D01*
X138713Y81570D01*
X138461Y81523D01*
X137765Y82057D01*
X136914Y82410D01*
X136000Y82530D01*
X135086Y82410D01*
X134235Y82057D01*
X133504Y81496D01*
X133153Y81039D01*
X99845D01*
X90039Y90845D01*
Y95000D01*
X90039Y95000D01*
X89884Y95780D01*
X89442Y96442D01*
X89442Y96442D01*
X81455Y104429D01*
X81530Y105000D01*
X81410Y105914D01*
X81057Y106765D01*
X80496Y107496D01*
X79765Y108057D01*
X78914Y108410D01*
X78000Y108530D01*
X77086Y108410D01*
X76235Y108057D01*
X75504Y107496D01*
X74943Y106765D01*
X74590Y105914D01*
X74470Y105000D01*
X74590Y104086D01*
X74943Y103235D01*
X75504Y102504D01*
X76235Y101943D01*
X77086Y101590D01*
X78000Y101470D01*
X78571Y101545D01*
X85961Y94155D01*
Y90000D01*
X86116Y89220D01*
X86558Y88558D01*
X97558Y77558D01*
X98220Y77116D01*
X99000Y76961D01*
X133153D01*
X133504Y76504D01*
X134235Y75943D01*
X135086Y75590D01*
X136000Y75470D01*
X136914Y75590D01*
X137765Y75943D01*
X138461Y76477D01*
X138713Y76430D01*
X138961Y76346D01*
Y65847D01*
X138504Y65496D01*
X137943Y64765D01*
X137590Y63914D01*
X137470Y63000D01*
X137590Y62086D01*
X137943Y61235D01*
X138504Y60504D01*
X139235Y59943D01*
X140086Y59590D01*
X141000Y59470D01*
X141914Y59590D01*
X142765Y59943D01*
X143496Y60504D01*
X144057Y61235D01*
X144410Y62086D01*
X144530Y63000D01*
X144410Y63914D01*
X144057Y64765D01*
X143496Y65496D01*
X143039Y65847D01*
Y89155D01*
X149845Y95961D01*
X168153D01*
X168504Y95504D01*
X169235Y94943D01*
X170086Y94590D01*
X171000Y94470D01*
X171914Y94590D01*
X172765Y94943D01*
X173496Y95504D01*
X174057Y96235D01*
X174410Y97086D01*
X174530Y98000D01*
X174410Y98914D01*
X174057Y99765D01*
X173496Y100496D01*
X172765Y101057D01*
X171914Y101410D01*
X171000Y101530D01*
X170086Y101410D01*
X169235Y101057D01*
X168504Y100496D01*
X168153Y100039D01*
X149000D01*
X148220Y99884D01*
X147558Y99442D01*
X139558Y91442D01*
X139116Y90780D01*
X138961Y90000D01*
Y89560D01*
X138461Y89527D01*
X138410Y89914D01*
X138057Y90765D01*
X137496Y91496D01*
X137039Y91847D01*
Y104155D01*
X137442Y104558D01*
X137884Y105220D01*
X138039Y106000D01*
X137884Y106780D01*
X137442Y107442D01*
X134173Y110711D01*
X134201Y111277D01*
X134496Y111504D01*
X135057Y112235D01*
X135410Y113086D01*
X135530Y114000D01*
X135410Y114914D01*
X135057Y115765D01*
X134496Y116496D01*
X133765Y117057D01*
X133749Y117064D01*
X133816Y117577D01*
X133914Y117590D01*
X134765Y117943D01*
X135496Y118504D01*
X136057Y119235D01*
X136410Y120086D01*
X136530Y121000D01*
X136410Y121914D01*
X136398Y121942D01*
X136455Y122028D01*
X136648Y122317D01*
X136784Y123000D01*
X136784Y123000D01*
Y134958D01*
X137496Y135504D01*
X138057Y136235D01*
X138410Y137086D01*
X138530Y138000D01*
X138410Y138914D01*
X138057Y139765D01*
X137496Y140496D01*
X136765Y141057D01*
X135914Y141410D01*
X135000Y141530D01*
D02*
G37*
G36*
X58500Y86464D02*
X58086Y86410D01*
X57235Y86057D01*
X56504Y85496D01*
X55943Y84765D01*
X55590Y83914D01*
X55536Y83500D01*
X58500D01*
Y86464D01*
D02*
G37*
G36*
X59500D02*
Y83500D01*
X62464D01*
X62410Y83914D01*
X62057Y84765D01*
X61496Y85496D01*
X60765Y86057D01*
X59914Y86410D01*
X59500Y86464D01*
D02*
G37*
G36*
X12311Y81480D02*
Y78059D01*
X15732D01*
X15662Y78591D01*
X15264Y79553D01*
X14630Y80378D01*
X13804Y81012D01*
X12843Y81410D01*
X12311Y81480D01*
D02*
G37*
G36*
X58500Y82500D02*
X55536D01*
X55590Y82086D01*
X55943Y81235D01*
X56504Y80504D01*
X57235Y79943D01*
X58086Y79590D01*
X58500Y79536D01*
Y82500D01*
D02*
G37*
G36*
X62464D02*
X59500D01*
Y79536D01*
X59914Y79590D01*
X60765Y79943D01*
X61496Y80504D01*
X62057Y81235D01*
X62410Y82086D01*
X62464Y82500D01*
D02*
G37*
G36*
X253063Y96001D02*
X251902Y95887D01*
X250786Y95548D01*
X249757Y94998D01*
X248856Y94258D01*
X248116Y93357D01*
X247566Y92328D01*
X247227Y91212D01*
X247113Y90051D01*
X247227Y88890D01*
X247566Y87774D01*
X248116Y86746D01*
X248856Y85844D01*
X249757Y85104D01*
X250786Y84554D01*
X251902Y84216D01*
X253063Y84101D01*
X254224Y84216D01*
X255340Y84554D01*
X256369Y85104D01*
X257270Y85844D01*
X258010Y86746D01*
X258560Y87774D01*
X258899Y88890D01*
X259013Y90051D01*
X258899Y91212D01*
X258560Y92328D01*
X258010Y93357D01*
X257270Y94258D01*
X256369Y94998D01*
X255340Y95548D01*
X254224Y95887D01*
X253063Y96001D01*
D02*
G37*
G36*
X337488D02*
X336327Y95887D01*
X335211Y95548D01*
X334183Y94998D01*
X333281Y94258D01*
X332541Y93357D01*
X331991Y92328D01*
X331653Y91212D01*
X331538Y90051D01*
X331653Y88890D01*
X331991Y87774D01*
X332541Y86746D01*
X333281Y85844D01*
X334183Y85104D01*
X335211Y84554D01*
X336327Y84216D01*
X337488Y84101D01*
X338649Y84216D01*
X339765Y84554D01*
X340794Y85104D01*
X341695Y85844D01*
X342435Y86746D01*
X342985Y87774D01*
X343324Y88890D01*
X343438Y90051D01*
X343324Y91212D01*
X342985Y92328D01*
X342435Y93357D01*
X341695Y94258D01*
X340794Y94998D01*
X339765Y95548D01*
X338649Y95887D01*
X337488Y96001D01*
D02*
G37*
G36*
X108752Y90051D02*
X105788D01*
X105842Y89638D01*
X106195Y88786D01*
X106756Y88055D01*
X107487Y87494D01*
X108338Y87141D01*
X108752Y87087D01*
Y90051D01*
D02*
G37*
G36*
X284559Y95407D02*
X283398Y95292D01*
X282282Y94954D01*
X281254Y94404D01*
X280352Y93664D01*
X279612Y92762D01*
X279062Y91734D01*
X278724Y90618D01*
X278609Y89457D01*
X278724Y88296D01*
X279062Y87180D01*
X279612Y86151D01*
X280352Y85250D01*
X281254Y84509D01*
X282282Y83960D01*
X283398Y83621D01*
X284559Y83507D01*
X285720Y83621D01*
X286836Y83960D01*
X287865Y84509D01*
X288766Y85250D01*
X289506Y86151D01*
X290056Y87180D01*
X290395Y88296D01*
X290509Y89457D01*
X290395Y90618D01*
X290056Y91734D01*
X289506Y92762D01*
X288766Y93664D01*
X287865Y94404D01*
X286836Y94954D01*
X285720Y95292D01*
X284559Y95407D01*
D02*
G37*
G36*
X305992D02*
X304831Y95292D01*
X303715Y94954D01*
X302687Y94404D01*
X301785Y93664D01*
X301045Y92762D01*
X300495Y91734D01*
X300157Y90618D01*
X300042Y89457D01*
X300157Y88296D01*
X300495Y87180D01*
X301045Y86151D01*
X301785Y85250D01*
X302687Y84509D01*
X303715Y83960D01*
X304831Y83621D01*
X305992Y83507D01*
X307153Y83621D01*
X308269Y83960D01*
X309298Y84509D01*
X310199Y85250D01*
X310939Y86151D01*
X311489Y87180D01*
X311828Y88296D01*
X311942Y89457D01*
X311828Y90618D01*
X311489Y91734D01*
X310939Y92762D01*
X310199Y93664D01*
X309298Y94404D01*
X308269Y94954D01*
X307153Y95292D01*
X305992Y95407D01*
D02*
G37*
G36*
X11811Y91546D02*
X10779Y91410D01*
X9818Y91012D01*
X8992Y90378D01*
X8358Y89552D01*
X7960Y88591D01*
X7824Y87559D01*
X7960Y86527D01*
X8358Y85566D01*
X8992Y84740D01*
X9818Y84106D01*
X10779Y83708D01*
X11811Y83572D01*
X12843Y83708D01*
X13804Y84106D01*
X14630Y84740D01*
X15264Y85566D01*
X15662Y86527D01*
X15798Y87559D01*
X15662Y88591D01*
X15264Y89552D01*
X14630Y90378D01*
X13804Y91012D01*
X12843Y91410D01*
X11811Y91546D01*
D02*
G37*
G36*
X108752Y108752D02*
X105788D01*
X105842Y108338D01*
X106195Y107487D01*
X106756Y106756D01*
X107487Y106195D01*
X108338Y105842D01*
X108752Y105788D01*
Y108752D01*
D02*
G37*
G36*
X144185Y128437D02*
X141221D01*
X141275Y128023D01*
X141628Y127172D01*
X142189Y126441D01*
X142920Y125880D01*
X143771Y125527D01*
X144185Y125473D01*
Y128437D01*
D02*
G37*
G36*
X148149D02*
X145185D01*
Y125473D01*
X145599Y125527D01*
X146450Y125880D01*
X147181Y126441D01*
X147742Y127172D01*
X148095Y128023D01*
X148149Y128437D01*
D02*
G37*
G36*
X159933D02*
X156969D01*
X157023Y128023D01*
X157376Y127172D01*
X157937Y126441D01*
X158668Y125880D01*
X159519Y125527D01*
X159933Y125473D01*
Y128437D01*
D02*
G37*
G36*
X112716D02*
X109752D01*
Y125473D01*
X110166Y125527D01*
X111017Y125880D01*
X111748Y126441D01*
X112309Y127172D01*
X112662Y128023D01*
X112716Y128437D01*
D02*
G37*
G36*
X124500D02*
X121536D01*
X121590Y128023D01*
X121943Y127172D01*
X122504Y126441D01*
X123235Y125880D01*
X124086Y125527D01*
X124500Y125473D01*
Y128437D01*
D02*
G37*
G36*
X128464D02*
X125500D01*
Y125473D01*
X125914Y125527D01*
X126765Y125880D01*
X127496Y126441D01*
X128057Y127172D01*
X128410Y128023D01*
X128464Y128437D01*
D02*
G37*
G36*
X19185Y137295D02*
X10817D01*
X10939Y136056D01*
X11447Y134383D01*
X12271Y132841D01*
X13380Y131490D01*
X14731Y130381D01*
X16273Y129557D01*
X17945Y129050D01*
X19185Y128928D01*
Y137295D01*
D02*
G37*
G36*
X28553D02*
X20185D01*
Y128928D01*
X21425Y129050D01*
X23097Y129557D01*
X24639Y130381D01*
X25990Y131490D01*
X27099Y132841D01*
X27923Y134383D01*
X28431Y136056D01*
X28553Y137295D01*
D02*
G37*
G36*
X108752Y132401D02*
X108338Y132347D01*
X107487Y131994D01*
X106756Y131433D01*
X106195Y130702D01*
X105842Y129851D01*
X105788Y129437D01*
X108752D01*
Y132401D01*
D02*
G37*
G36*
X163897Y128437D02*
X160933D01*
Y125473D01*
X161347Y125527D01*
X162198Y125880D01*
X162929Y126441D01*
X163490Y127172D01*
X163843Y128023D01*
X163897Y128437D01*
D02*
G37*
G36*
X182571D02*
X179606D01*
X179661Y128023D01*
X180014Y127172D01*
X180575Y126441D01*
X181306Y125880D01*
X182157Y125527D01*
X182571Y125473D01*
Y128437D01*
D02*
G37*
G36*
X186535D02*
X183571D01*
Y125473D01*
X183984Y125527D01*
X184836Y125880D01*
X185567Y126441D01*
X186128Y127172D01*
X186481Y128023D01*
X186535Y128437D01*
D02*
G37*
G36*
X108752D02*
X105788D01*
X105842Y128023D01*
X106195Y127172D01*
X106756Y126441D01*
X107487Y125880D01*
X108338Y125527D01*
X108752Y125473D01*
Y128437D01*
D02*
G37*
G36*
X223909Y112197D02*
X223121Y112093D01*
X221920Y111596D01*
X220888Y110805D01*
X220097Y109773D01*
X219600Y108572D01*
X219496Y107783D01*
X223909D01*
Y112197D01*
D02*
G37*
G36*
X224909D02*
Y107783D01*
X229323D01*
X229219Y108572D01*
X228722Y109773D01*
X227931Y110805D01*
X226899Y111596D01*
X225698Y112093D01*
X224909Y112197D01*
D02*
G37*
G36*
X108752Y112716D02*
X108338Y112662D01*
X107487Y112309D01*
X106756Y111748D01*
X106195Y111017D01*
X105842Y110166D01*
X105788Y109752D01*
X108752D01*
Y112716D01*
D02*
G37*
G36*
X112716Y108752D02*
X109752D01*
Y105788D01*
X110166Y105842D01*
X111017Y106195D01*
X111748Y106756D01*
X112309Y107487D01*
X112662Y108338D01*
X112716Y108752D01*
D02*
G37*
G36*
X182571Y109736D02*
X179606D01*
X179661Y109323D01*
X180014Y108471D01*
X180575Y107740D01*
X181306Y107179D01*
X182157Y106826D01*
X182571Y106772D01*
Y109736D01*
D02*
G37*
G36*
X186535D02*
X183571D01*
Y106772D01*
X183984Y106826D01*
X184836Y107179D01*
X185567Y107740D01*
X186128Y108471D01*
X186481Y109323D01*
X186535Y109736D01*
D02*
G37*
G36*
X283965Y126903D02*
X282804Y126788D01*
X281688Y126450D01*
X280659Y125900D01*
X279757Y125160D01*
X279017Y124258D01*
X278468Y123230D01*
X278129Y122114D01*
X278015Y120953D01*
X278129Y119792D01*
X278468Y118676D01*
X279017Y117647D01*
X279757Y116745D01*
X280659Y116006D01*
X281688Y115456D01*
X282804Y115117D01*
X283965Y115003D01*
X285125Y115117D01*
X286242Y115456D01*
X287270Y116006D01*
X288172Y116745D01*
X288912Y117647D01*
X289462Y118676D01*
X289800Y119792D01*
X289914Y120953D01*
X289800Y122114D01*
X289462Y123230D01*
X288912Y124258D01*
X288172Y125160D01*
X287270Y125900D01*
X286242Y126450D01*
X285125Y126788D01*
X283965Y126903D01*
D02*
G37*
G36*
X306587D02*
X305426Y126788D01*
X304310Y126450D01*
X303281Y125900D01*
X302379Y125160D01*
X301639Y124258D01*
X301090Y123230D01*
X300751Y122114D01*
X300637Y120953D01*
X300751Y119792D01*
X301090Y118676D01*
X301639Y117647D01*
X302379Y116745D01*
X303281Y116006D01*
X304310Y115456D01*
X305426Y115117D01*
X306587Y115003D01*
X307747Y115117D01*
X308863Y115456D01*
X309892Y116006D01*
X310794Y116745D01*
X311534Y117647D01*
X312084Y118676D01*
X312422Y119792D01*
X312537Y120953D01*
X312422Y122114D01*
X312084Y123230D01*
X311534Y124258D01*
X310794Y125160D01*
X309892Y125900D01*
X308863Y126450D01*
X307747Y126788D01*
X306587Y126903D01*
D02*
G37*
G36*
X121000Y121530D02*
X120086Y121410D01*
X119235Y121057D01*
X118504Y120496D01*
X117957Y119784D01*
X99000D01*
X98317Y119649D01*
X97738Y119262D01*
X97738Y119262D01*
X95890Y117413D01*
X95000Y117530D01*
X94086Y117410D01*
X93235Y117057D01*
X92504Y116496D01*
X91943Y115765D01*
X91590Y114914D01*
X91470Y114000D01*
X91590Y113086D01*
X91943Y112235D01*
X92504Y111504D01*
X93235Y110943D01*
X94086Y110590D01*
X95000Y110470D01*
X95914Y110590D01*
X96765Y110943D01*
X97496Y111504D01*
X98057Y112235D01*
X98410Y113086D01*
X98530Y114000D01*
X98413Y114890D01*
X99739Y116216D01*
X117957D01*
X118504Y115504D01*
X119235Y114943D01*
X120086Y114590D01*
X121000Y114470D01*
X121914Y114590D01*
X122765Y114943D01*
X123496Y115504D01*
X124057Y116235D01*
X124410Y117086D01*
X124530Y118000D01*
X124410Y118914D01*
X124057Y119765D01*
X123496Y120496D01*
X122765Y121057D01*
X121914Y121410D01*
X121000Y121530D01*
D02*
G37*
G36*
X109752Y112716D02*
Y109752D01*
X112716D01*
X112662Y110166D01*
X112309Y111017D01*
X111748Y111748D01*
X111017Y112309D01*
X110166Y112662D01*
X109752Y112716D01*
D02*
G37*
G36*
X182571Y113701D02*
X182157Y113646D01*
X181306Y113294D01*
X180575Y112732D01*
X180014Y112001D01*
X179661Y111150D01*
X179606Y110736D01*
X182571D01*
Y113701D01*
D02*
G37*
G36*
X183571D02*
Y110736D01*
X186535D01*
X186481Y111150D01*
X186128Y112001D01*
X185567Y112732D01*
X184836Y113294D01*
X183984Y113646D01*
X183571Y113701D01*
D02*
G37*
G36*
X11311Y81480D02*
X10779Y81410D01*
X9818Y81012D01*
X8992Y80378D01*
X8358Y79553D01*
X7960Y78591D01*
X7890Y78059D01*
X11311D01*
Y81480D01*
D02*
G37*
G36*
X11811Y51546D02*
X10779Y51410D01*
X9818Y51012D01*
X8992Y50378D01*
X8358Y49553D01*
X7960Y48591D01*
X7824Y47559D01*
X7960Y46527D01*
X8358Y45566D01*
X8992Y44740D01*
X9818Y44106D01*
X10779Y43708D01*
X11811Y43572D01*
X12843Y43708D01*
X13804Y44106D01*
X14630Y44740D01*
X15264Y45566D01*
X15662Y46527D01*
X15798Y47559D01*
X15662Y48591D01*
X15264Y49553D01*
X14630Y50378D01*
X13804Y51012D01*
X12843Y51410D01*
X11811Y51546D01*
D02*
G37*
G36*
X49500Y48464D02*
X49086Y48410D01*
X48235Y48057D01*
X47504Y47496D01*
X46943Y46765D01*
X46590Y45914D01*
X46536Y45500D01*
X49500D01*
Y48464D01*
D02*
G37*
G36*
X50500D02*
Y45500D01*
X53464D01*
X53410Y45914D01*
X53057Y46765D01*
X52496Y47496D01*
X51765Y48057D01*
X50914Y48410D01*
X50500Y48464D01*
D02*
G37*
G36*
X53464Y44500D02*
X50500D01*
Y41536D01*
X50914Y41590D01*
X51765Y41943D01*
X52496Y42504D01*
X53057Y43235D01*
X53410Y44086D01*
X53464Y44500D01*
D02*
G37*
G36*
X264374Y53789D02*
X263213Y53674D01*
X262097Y53336D01*
X261068Y52786D01*
X260167Y52046D01*
X259427Y51144D01*
X258877Y50116D01*
X258538Y48999D01*
X258424Y47839D01*
X258538Y46678D01*
X258877Y45562D01*
X259427Y44533D01*
X260167Y43631D01*
X261068Y42891D01*
X262097Y42342D01*
X263213Y42003D01*
X264374Y41889D01*
X265535Y42003D01*
X266651Y42342D01*
X267680Y42891D01*
X268581Y43631D01*
X269321Y44533D01*
X269871Y45562D01*
X270210Y46678D01*
X270324Y47839D01*
X270210Y48999D01*
X269871Y50116D01*
X269321Y51144D01*
X268581Y52046D01*
X267680Y52786D01*
X266651Y53336D01*
X265535Y53674D01*
X264374Y53789D01*
D02*
G37*
G36*
X326177D02*
X325016Y53674D01*
X323900Y53336D01*
X322872Y52786D01*
X321970Y52046D01*
X321230Y51144D01*
X320680Y50116D01*
X320342Y48999D01*
X320227Y47839D01*
X320342Y46678D01*
X320680Y45562D01*
X321230Y44533D01*
X321970Y43631D01*
X322872Y42891D01*
X323900Y42342D01*
X325016Y42003D01*
X326177Y41889D01*
X327338Y42003D01*
X328454Y42342D01*
X329483Y42891D01*
X330384Y43631D01*
X331124Y44533D01*
X331674Y45562D01*
X332013Y46678D01*
X332127Y47839D01*
X332013Y48999D01*
X331674Y50116D01*
X331124Y51144D01*
X330384Y52046D01*
X329483Y52786D01*
X328454Y53336D01*
X327338Y53674D01*
X326177Y53789D01*
D02*
G37*
G36*
X12311Y61480D02*
Y58059D01*
X15732D01*
X15662Y58591D01*
X15264Y59553D01*
X14630Y60378D01*
X13804Y61012D01*
X12843Y61410D01*
X12311Y61480D01*
D02*
G37*
G36*
X253063Y73379D02*
X251902Y73265D01*
X250786Y72926D01*
X249757Y72376D01*
X248856Y71636D01*
X248116Y70735D01*
X247566Y69706D01*
X247227Y68590D01*
X247113Y67429D01*
X247227Y66268D01*
X247566Y65152D01*
X248116Y64124D01*
X248856Y63222D01*
X249757Y62482D01*
X250786Y61932D01*
X251902Y61594D01*
X253063Y61479D01*
X254224Y61594D01*
X255340Y61932D01*
X256369Y62482D01*
X257270Y63222D01*
X258010Y64124D01*
X258560Y65152D01*
X258899Y66268D01*
X259013Y67429D01*
X258899Y68590D01*
X258560Y69706D01*
X258010Y70735D01*
X257270Y71636D01*
X256369Y72376D01*
X255340Y72926D01*
X254224Y73265D01*
X253063Y73379D01*
D02*
G37*
G36*
X337488D02*
X336327Y73265D01*
X335211Y72926D01*
X334183Y72376D01*
X333281Y71636D01*
X332541Y70735D01*
X331991Y69706D01*
X331653Y68590D01*
X331538Y67429D01*
X331653Y66268D01*
X331991Y65152D01*
X332541Y64124D01*
X333281Y63222D01*
X334183Y62482D01*
X335211Y61932D01*
X336327Y61594D01*
X337488Y61479D01*
X338649Y61594D01*
X339765Y61932D01*
X340794Y62482D01*
X341695Y63222D01*
X342435Y64124D01*
X342985Y65152D01*
X343324Y66268D01*
X343438Y67429D01*
X343324Y68590D01*
X342985Y69706D01*
X342435Y70735D01*
X341695Y71636D01*
X340794Y72376D01*
X339765Y72926D01*
X338649Y73265D01*
X337488Y73379D01*
D02*
G37*
G36*
X11311Y57059D02*
X7890D01*
X7960Y56527D01*
X8358Y55566D01*
X8992Y54740D01*
X9818Y54106D01*
X10779Y53708D01*
X11311Y53638D01*
Y57059D01*
D02*
G37*
G36*
X15732D02*
X12311D01*
Y53638D01*
X12843Y53708D01*
X13804Y54106D01*
X14630Y54740D01*
X15264Y55566D01*
X15662Y56527D01*
X15732Y57059D01*
D02*
G37*
G36*
X11311Y61480D02*
X10779Y61410D01*
X9818Y61012D01*
X8992Y60378D01*
X8358Y59553D01*
X7960Y58591D01*
X7890Y58059D01*
X11311D01*
Y61480D01*
D02*
G37*
G36*
X49500Y44500D02*
X46536D01*
X46590Y44086D01*
X46943Y43235D01*
X47504Y42504D01*
X48235Y41943D01*
X49086Y41590D01*
X49500Y41536D01*
Y44500D01*
D02*
G37*
G36*
X138295Y28553D02*
Y20185D01*
X146663D01*
X146541Y21425D01*
X146034Y23097D01*
X145209Y24639D01*
X144100Y25990D01*
X142749Y27099D01*
X141208Y27923D01*
X139535Y28431D01*
X138295Y28553D01*
D02*
G37*
G36*
X163500Y25500D02*
X160047D01*
Y22047D01*
X163500D01*
Y25500D01*
D02*
G37*
G36*
X167953D02*
X164500D01*
Y22047D01*
X167953D01*
Y25500D01*
D02*
G37*
G36*
X137295Y19185D02*
X128928D01*
X129050Y17945D01*
X129557Y16273D01*
X130381Y14731D01*
X131490Y13380D01*
X132841Y12271D01*
X134383Y11447D01*
X136056Y10939D01*
X137295Y10817D01*
Y19185D01*
D02*
G37*
G36*
X146663D02*
X138295D01*
Y10817D01*
X139535Y10939D01*
X141208Y11447D01*
X142749Y12271D01*
X144100Y13380D01*
X145209Y14731D01*
X146034Y16273D01*
X146541Y17945D01*
X146663Y19185D01*
D02*
G37*
G36*
X137295Y28553D02*
X136056Y28431D01*
X134383Y27923D01*
X132841Y27099D01*
X131490Y25990D01*
X130381Y24639D01*
X129557Y23097D01*
X129050Y21425D01*
X128928Y20185D01*
X137295D01*
Y28553D01*
D02*
G37*
G36*
X283965Y42478D02*
X282804Y42363D01*
X281688Y42025D01*
X280659Y41475D01*
X279757Y40735D01*
X279017Y39833D01*
X278468Y38805D01*
X278129Y37688D01*
X278015Y36528D01*
X278129Y35367D01*
X278468Y34251D01*
X279017Y33222D01*
X279757Y32320D01*
X280659Y31580D01*
X281688Y31031D01*
X282804Y30692D01*
X283965Y30578D01*
X285125Y30692D01*
X286242Y31031D01*
X287270Y31580D01*
X288172Y32320D01*
X288912Y33222D01*
X289462Y34251D01*
X289800Y35367D01*
X289914Y36528D01*
X289800Y37688D01*
X289462Y38805D01*
X288912Y39833D01*
X288172Y40735D01*
X287270Y41475D01*
X286242Y42025D01*
X285125Y42363D01*
X283965Y42478D01*
D02*
G37*
G36*
X306587D02*
X305426Y42363D01*
X304310Y42025D01*
X303281Y41475D01*
X302379Y40735D01*
X301639Y39833D01*
X301090Y38805D01*
X300751Y37688D01*
X300637Y36528D01*
X300751Y35367D01*
X301090Y34251D01*
X301639Y33222D01*
X302379Y32320D01*
X303281Y31580D01*
X304310Y31031D01*
X305426Y30692D01*
X306587Y30578D01*
X307747Y30692D01*
X308863Y31031D01*
X309892Y31580D01*
X310794Y32320D01*
X311534Y33222D01*
X312084Y34251D01*
X312422Y35367D01*
X312537Y36528D01*
X312422Y37688D01*
X312084Y38805D01*
X311534Y39833D01*
X310794Y40735D01*
X309892Y41475D01*
X308863Y42025D01*
X307747Y42363D01*
X306587Y42478D01*
D02*
G37*
G36*
X11811Y41546D02*
X10779Y41410D01*
X9818Y41012D01*
X8992Y40378D01*
X8358Y39553D01*
X7960Y38591D01*
X7824Y37559D01*
X7960Y36527D01*
X8358Y35566D01*
X8992Y34740D01*
X9818Y34106D01*
X10779Y33708D01*
X11811Y33572D01*
X12843Y33708D01*
X13804Y34106D01*
X14630Y34740D01*
X15264Y35566D01*
X15662Y36527D01*
X15798Y37559D01*
X15662Y38591D01*
X15264Y39553D01*
X14630Y40378D01*
X13804Y41012D01*
X12843Y41410D01*
X11811Y41546D01*
D02*
G37*
G36*
X15764Y31512D02*
X7858D01*
Y23606D01*
X15764D01*
Y31512D01*
D02*
G37*
G36*
X163500Y29953D02*
X160047D01*
Y26500D01*
X163500D01*
Y29953D01*
D02*
G37*
G36*
X167953D02*
X164500D01*
Y26500D01*
X167953D01*
Y29953D01*
D02*
G37*
G36*
X284559Y73974D02*
X283398Y73859D01*
X282282Y73521D01*
X281254Y72971D01*
X280352Y72231D01*
X279612Y71329D01*
X279062Y70301D01*
X278724Y69184D01*
X278609Y68024D01*
X278724Y66863D01*
X279062Y65747D01*
X279612Y64718D01*
X280352Y63816D01*
X281254Y63076D01*
X282282Y62527D01*
X283398Y62188D01*
X284559Y62074D01*
X285720Y62188D01*
X286836Y62527D01*
X287865Y63076D01*
X288766Y63816D01*
X289506Y64718D01*
X290056Y65747D01*
X290395Y66863D01*
X290509Y68024D01*
X290395Y69184D01*
X290056Y70301D01*
X289506Y71329D01*
X288766Y72231D01*
X287865Y72971D01*
X286836Y73521D01*
X285720Y73859D01*
X284559Y73974D01*
D02*
G37*
G36*
X151091Y74331D02*
Y71366D01*
X154055D01*
X154000Y71780D01*
X153648Y72631D01*
X153087Y73362D01*
X152356Y73923D01*
X151504Y74276D01*
X151091Y74331D01*
D02*
G37*
G36*
X163870D02*
X163456Y74276D01*
X162605Y73923D01*
X161874Y73362D01*
X161313Y72631D01*
X160960Y71780D01*
X160906Y71366D01*
X163870D01*
Y74331D01*
D02*
G37*
G36*
X164870D02*
Y71366D01*
X167834D01*
X167780Y71780D01*
X167427Y72631D01*
X166866Y73362D01*
X166135Y73923D01*
X165284Y74276D01*
X164870Y74331D01*
D02*
G37*
G36*
X131390D02*
X130976Y74276D01*
X130125Y73923D01*
X129393Y73362D01*
X128832Y72631D01*
X128480Y71780D01*
X128425Y71366D01*
X131390D01*
Y74331D01*
D02*
G37*
G36*
X132390D02*
Y71366D01*
X135354D01*
X135300Y71780D01*
X134947Y72631D01*
X134386Y73362D01*
X133655Y73923D01*
X132803Y74276D01*
X132390Y74331D01*
D02*
G37*
G36*
X150091D02*
X149677Y74276D01*
X148826Y73923D01*
X148094Y73362D01*
X147533Y72631D01*
X147181Y71780D01*
X147126Y71366D01*
X150091D01*
Y74331D01*
D02*
G37*
G36*
X110736Y75315D02*
Y72350D01*
X113701D01*
X113646Y72764D01*
X113294Y73615D01*
X112732Y74347D01*
X112001Y74908D01*
X111150Y75260D01*
X110736Y75315D01*
D02*
G37*
G36*
X15732Y77059D02*
X12311D01*
Y73638D01*
X12843Y73708D01*
X13804Y74106D01*
X14630Y74740D01*
X15264Y75566D01*
X15662Y76527D01*
X15732Y77059D01*
D02*
G37*
G36*
X11311D02*
X7890D01*
X7960Y76527D01*
X8358Y75566D01*
X8992Y74740D01*
X9818Y74106D01*
X10779Y73708D01*
X11311Y73638D01*
Y77059D01*
D02*
G37*
G36*
X182571Y74331D02*
X182157Y74276D01*
X181306Y73923D01*
X180575Y73362D01*
X180014Y72631D01*
X179661Y71780D01*
X179606Y71366D01*
X182571D01*
Y74331D01*
D02*
G37*
G36*
X183571D02*
Y71366D01*
X186535D01*
X186481Y71780D01*
X186128Y72631D01*
X185567Y73362D01*
X184836Y73923D01*
X183984Y74276D01*
X183571Y74331D01*
D02*
G37*
G36*
X109736Y75315D02*
X109323Y75260D01*
X108471Y74908D01*
X107740Y74347D01*
X107179Y73615D01*
X106826Y72764D01*
X106772Y72350D01*
X109736D01*
Y75315D01*
D02*
G37*
G36*
X26654Y99184D02*
X25740Y99063D01*
X24889Y98711D01*
X24157Y98150D01*
X23596Y97419D01*
X23244Y96567D01*
X23123Y95653D01*
X23218Y94933D01*
X23116Y94780D01*
X22961Y94000D01*
Y76847D01*
X22504Y76496D01*
X21943Y75765D01*
X21590Y74914D01*
X21470Y74000D01*
X21590Y73086D01*
X21943Y72235D01*
X22504Y71504D01*
X23235Y70943D01*
X24086Y70590D01*
X25000Y70470D01*
X25914Y70590D01*
X26765Y70943D01*
X27496Y71504D01*
X28057Y72235D01*
X28410Y73086D01*
X28530Y74000D01*
X28410Y74914D01*
X28057Y75765D01*
X27496Y76496D01*
X27039Y76847D01*
Y92174D01*
X27567Y92244D01*
X28419Y92596D01*
X29150Y93157D01*
X29711Y93888D01*
X30064Y94740D01*
X30184Y95653D01*
X30064Y96567D01*
X29711Y97419D01*
X29150Y98150D01*
X28419Y98711D01*
X27567Y99063D01*
X26654Y99184D01*
D02*
G37*
G36*
X135354Y70366D02*
X132390D01*
Y67402D01*
X132803Y67456D01*
X133655Y67809D01*
X134386Y68370D01*
X134947Y69101D01*
X135300Y69952D01*
X135354Y70366D01*
D02*
G37*
G36*
X150091D02*
X147126D01*
X147181Y69952D01*
X147533Y69101D01*
X148094Y68370D01*
X148826Y67809D01*
X149677Y67456D01*
X150091Y67402D01*
Y70366D01*
D02*
G37*
G36*
X154055D02*
X151091D01*
Y67402D01*
X151504Y67456D01*
X152356Y67809D01*
X153087Y68370D01*
X153648Y69101D01*
X154000Y69952D01*
X154055Y70366D01*
D02*
G37*
G36*
X305992Y73974D02*
X304831Y73859D01*
X303715Y73521D01*
X302687Y72971D01*
X301785Y72231D01*
X301045Y71329D01*
X300495Y70301D01*
X300157Y69184D01*
X300042Y68024D01*
X300157Y66863D01*
X300495Y65747D01*
X301045Y64718D01*
X301785Y63816D01*
X302687Y63076D01*
X303715Y62527D01*
X304831Y62188D01*
X305992Y62074D01*
X307153Y62188D01*
X308269Y62527D01*
X309298Y63076D01*
X310199Y63816D01*
X310939Y64718D01*
X311489Y65747D01*
X311828Y66863D01*
X311942Y68024D01*
X311828Y69184D01*
X311489Y70301D01*
X310939Y71329D01*
X310199Y72231D01*
X309298Y72971D01*
X308269Y73521D01*
X307153Y73859D01*
X305992Y73974D01*
D02*
G37*
G36*
X11811Y71546D02*
X10779Y71410D01*
X9818Y71012D01*
X8992Y70378D01*
X8358Y69552D01*
X7960Y68591D01*
X7824Y67559D01*
X7960Y66527D01*
X8358Y65566D01*
X8992Y64740D01*
X9818Y64106D01*
X10779Y63708D01*
X11811Y63572D01*
X12843Y63708D01*
X13804Y64106D01*
X14630Y64740D01*
X15264Y65566D01*
X15662Y66527D01*
X15798Y67559D01*
X15662Y68591D01*
X15264Y69552D01*
X14630Y70378D01*
X13804Y71012D01*
X12843Y71410D01*
X11811Y71546D01*
D02*
G37*
G36*
X131390Y70366D02*
X128425D01*
X128480Y69952D01*
X128832Y69101D01*
X129393Y68370D01*
X130125Y67809D01*
X130976Y67456D01*
X131390Y67402D01*
Y70366D01*
D02*
G37*
G36*
X186535D02*
X183571D01*
Y67402D01*
X183984Y67456D01*
X184836Y67809D01*
X185567Y68370D01*
X186128Y69101D01*
X186481Y69952D01*
X186535Y70366D01*
D02*
G37*
G36*
X109736Y71350D02*
X106772D01*
X106826Y70937D01*
X107179Y70085D01*
X107740Y69354D01*
X108471Y68793D01*
X109323Y68441D01*
X109736Y68386D01*
Y71350D01*
D02*
G37*
G36*
X113701D02*
X110736D01*
Y68386D01*
X111150Y68441D01*
X112001Y68793D01*
X112732Y69354D01*
X113294Y70085D01*
X113646Y70937D01*
X113701Y71350D01*
D02*
G37*
G36*
X163870Y70366D02*
X160906D01*
X160960Y69952D01*
X161313Y69101D01*
X161874Y68370D01*
X162605Y67809D01*
X163456Y67456D01*
X163870Y67402D01*
Y70366D01*
D02*
G37*
G36*
X167834D02*
X164870D01*
Y67402D01*
X165284Y67456D01*
X166135Y67809D01*
X166866Y68370D01*
X167427Y69101D01*
X167780Y69952D01*
X167834Y70366D01*
D02*
G37*
G36*
X182571D02*
X179606D01*
X179661Y69952D01*
X180014Y69101D01*
X180575Y68370D01*
X181306Y67809D01*
X182157Y67456D01*
X182571Y67402D01*
Y70366D01*
D02*
G37*
G36*
X109752Y132401D02*
Y129437D01*
X112716D01*
X112662Y129851D01*
X112309Y130702D01*
X111748Y131433D01*
X111017Y131994D01*
X110166Y132347D01*
X109752Y132401D01*
D02*
G37*
G36*
X40681Y334146D02*
X37260D01*
X37330Y333614D01*
X37728Y332652D01*
X38362Y331826D01*
X39188Y331193D01*
X40149Y330795D01*
X40681Y330725D01*
Y334146D01*
D02*
G37*
G36*
X45102D02*
X41681D01*
Y330725D01*
X42213Y330795D01*
X43174Y331193D01*
X44000Y331826D01*
X44634Y332652D01*
X45032Y333614D01*
X45102Y334146D01*
D02*
G37*
G36*
X88917Y348080D02*
X87602Y347950D01*
X86338Y347567D01*
X85172Y346944D01*
X84151Y346105D01*
X83312Y345084D01*
X82689Y343918D01*
X82306Y342654D01*
X82176Y341339D01*
X82306Y340023D01*
X82689Y338759D01*
X83312Y337593D01*
X84151Y336572D01*
X85172Y335734D01*
X86338Y335111D01*
X87602Y334727D01*
X88917Y334597D01*
X90232Y334727D01*
X91497Y335111D01*
X92663Y335734D01*
X93684Y336572D01*
X94522Y337593D01*
X95145Y338759D01*
X95529Y340023D01*
X95658Y341339D01*
X95529Y342654D01*
X95145Y343918D01*
X94522Y345084D01*
X93684Y346105D01*
X92663Y346944D01*
X91497Y347567D01*
X90232Y347950D01*
X88917Y348080D01*
D02*
G37*
G36*
X344654Y329526D02*
Y323335D01*
X350845D01*
X350765Y324150D01*
X350381Y325414D01*
X349759Y326580D01*
X348920Y327601D01*
X347899Y328440D01*
X346733Y329063D01*
X345469Y329446D01*
X344654Y329526D01*
D02*
G37*
G36*
X21181Y338632D02*
X20149Y338497D01*
X19188Y338098D01*
X18362Y337465D01*
X17728Y336639D01*
X17330Y335678D01*
X17194Y334646D01*
X17330Y333614D01*
X17728Y332652D01*
X18362Y331826D01*
X19188Y331193D01*
X20149Y330795D01*
X21181Y330659D01*
X22213Y330795D01*
X23175Y331193D01*
X24000Y331826D01*
X24634Y332652D01*
X25032Y333614D01*
X25168Y334646D01*
X25032Y335678D01*
X24634Y336639D01*
X24000Y337465D01*
X23175Y338098D01*
X22213Y338497D01*
X21181Y338632D01*
D02*
G37*
G36*
X31181D02*
X30149Y338497D01*
X29188Y338098D01*
X28362Y337465D01*
X27728Y336639D01*
X27330Y335678D01*
X27194Y334646D01*
X27330Y333614D01*
X27728Y332652D01*
X28362Y331826D01*
X29188Y331193D01*
X30149Y330795D01*
X31181Y330659D01*
X32213Y330795D01*
X33174Y331193D01*
X34000Y331826D01*
X34634Y332652D01*
X35032Y333614D01*
X35168Y334646D01*
X35032Y335678D01*
X34634Y336639D01*
X34000Y337465D01*
X33174Y338098D01*
X32213Y338497D01*
X31181Y338632D01*
D02*
G37*
G36*
X325138Y348080D02*
X323823Y347950D01*
X322558Y347567D01*
X321393Y346944D01*
X320371Y346105D01*
X319533Y345084D01*
X318910Y343918D01*
X318526Y342654D01*
X318397Y341339D01*
X318526Y340023D01*
X318910Y338759D01*
X319533Y337593D01*
X320371Y336572D01*
X321393Y335734D01*
X322558Y335111D01*
X323823Y334727D01*
X325138Y334597D01*
X326453Y334727D01*
X327717Y335111D01*
X328883Y335734D01*
X329905Y336572D01*
X330743Y337593D01*
X331366Y338759D01*
X331749Y340023D01*
X331879Y341339D01*
X331749Y342654D01*
X331366Y343918D01*
X330743Y345084D01*
X329905Y346105D01*
X328883Y346944D01*
X327717Y347567D01*
X326453Y347950D01*
X325138Y348080D01*
D02*
G37*
G36*
X40681Y338567D02*
X40149Y338497D01*
X39188Y338098D01*
X38362Y337465D01*
X37728Y336639D01*
X37330Y335678D01*
X37260Y335146D01*
X40681D01*
Y338567D01*
D02*
G37*
G36*
X41681D02*
Y335146D01*
X45102D01*
X45032Y335678D01*
X44634Y336639D01*
X44000Y337465D01*
X43174Y338098D01*
X42213Y338497D01*
X41681Y338567D01*
D02*
G37*
G36*
X107933Y348080D02*
X106618Y347950D01*
X105353Y347567D01*
X104188Y346944D01*
X103166Y346105D01*
X102328Y345084D01*
X101705Y343918D01*
X101321Y342654D01*
X101192Y341339D01*
X101321Y340023D01*
X101705Y338759D01*
X102328Y337593D01*
X103166Y336572D01*
X104188Y335734D01*
X105353Y335111D01*
X106618Y334727D01*
X107933Y334597D01*
X109248Y334727D01*
X110513Y335111D01*
X111678Y335734D01*
X112700Y336572D01*
X113538Y337593D01*
X114161Y338759D01*
X114545Y340023D01*
X114674Y341339D01*
X114545Y342654D01*
X114161Y343918D01*
X113538Y345084D01*
X112700Y346105D01*
X111678Y346944D01*
X110513Y347567D01*
X109248Y347950D01*
X107933Y348080D01*
D02*
G37*
G36*
X207028D02*
X205712Y347950D01*
X204448Y347567D01*
X203282Y346944D01*
X202261Y346105D01*
X201423Y345084D01*
X200800Y343918D01*
X200416Y342654D01*
X200286Y341339D01*
X200416Y340023D01*
X200800Y338759D01*
X201423Y337593D01*
X202261Y336572D01*
X203282Y335734D01*
X204448Y335111D01*
X205712Y334727D01*
X207028Y334597D01*
X208343Y334727D01*
X209607Y335111D01*
X210773Y335734D01*
X211794Y336572D01*
X212633Y337593D01*
X213256Y338759D01*
X213639Y340023D01*
X213769Y341339D01*
X213639Y342654D01*
X213256Y343918D01*
X212633Y345084D01*
X211794Y346105D01*
X210773Y346944D01*
X209607Y347567D01*
X208343Y347950D01*
X207028Y348080D01*
D02*
G37*
G36*
X226043D02*
X224728Y347950D01*
X223464Y347567D01*
X222298Y346944D01*
X221277Y346105D01*
X220438Y345084D01*
X219815Y343918D01*
X219432Y342654D01*
X219302Y341339D01*
X219432Y340023D01*
X219815Y338759D01*
X220438Y337593D01*
X221277Y336572D01*
X222298Y335734D01*
X223464Y335111D01*
X224728Y334727D01*
X226043Y334597D01*
X227358Y334727D01*
X228623Y335111D01*
X229788Y335734D01*
X230810Y336572D01*
X231648Y337593D01*
X232271Y338759D01*
X232655Y340023D01*
X232784Y341339D01*
X232655Y342654D01*
X232271Y343918D01*
X231648Y345084D01*
X230810Y346105D01*
X229788Y346944D01*
X228623Y347567D01*
X227358Y347950D01*
X226043Y348080D01*
D02*
G37*
G36*
X343653Y329526D02*
X342838Y329446D01*
X341574Y329063D01*
X340408Y328440D01*
X339387Y327601D01*
X338548Y326580D01*
X337926Y325414D01*
X337542Y324150D01*
X337462Y323335D01*
X343653D01*
Y329526D01*
D02*
G37*
G36*
X137295Y323828D02*
X136056Y323706D01*
X134383Y323199D01*
X132841Y322375D01*
X131490Y321266D01*
X130381Y319915D01*
X129557Y318373D01*
X129050Y316700D01*
X128928Y315461D01*
X137295D01*
Y323828D01*
D02*
G37*
G36*
X138295D02*
Y315461D01*
X146663D01*
X146541Y316700D01*
X146034Y318373D01*
X145209Y319915D01*
X144100Y321266D01*
X142749Y322375D01*
X141208Y323199D01*
X139535Y323706D01*
X138295Y323828D01*
D02*
G37*
G36*
X88917Y329576D02*
X87602Y329446D01*
X86338Y329063D01*
X85172Y328440D01*
X84151Y327601D01*
X83312Y326580D01*
X82689Y325414D01*
X82306Y324150D01*
X82176Y322835D01*
X82306Y321519D01*
X82689Y320255D01*
X83312Y319090D01*
X84151Y318068D01*
X85172Y317230D01*
X86338Y316607D01*
X87602Y316223D01*
X88917Y316093D01*
X90232Y316223D01*
X91497Y316607D01*
X92663Y317230D01*
X93684Y318068D01*
X94522Y319090D01*
X95145Y320255D01*
X95529Y321519D01*
X95658Y322835D01*
X95529Y324150D01*
X95145Y325414D01*
X94522Y326580D01*
X93684Y327601D01*
X92663Y328440D01*
X91497Y329063D01*
X90232Y329446D01*
X88917Y329576D01*
D02*
G37*
G36*
X137295Y314461D02*
X128928D01*
X129050Y313221D01*
X129557Y311548D01*
X130381Y310007D01*
X131490Y308655D01*
X132841Y307546D01*
X134383Y306722D01*
X136056Y306215D01*
X137295Y306093D01*
Y314461D01*
D02*
G37*
G36*
X146663D02*
X138295D01*
Y306093D01*
X139535Y306215D01*
X141208Y306722D01*
X142749Y307546D01*
X144100Y308655D01*
X145209Y310007D01*
X146034Y311548D01*
X146541Y313221D01*
X146663Y314461D01*
D02*
G37*
G36*
X295291Y318913D02*
X287386D01*
Y311008D01*
X295291D01*
Y318913D01*
D02*
G37*
G36*
X343653Y322335D02*
X337462D01*
X337542Y321519D01*
X337926Y320255D01*
X338548Y319090D01*
X339387Y318068D01*
X340408Y317230D01*
X341574Y316607D01*
X342838Y316223D01*
X343653Y316143D01*
Y322335D01*
D02*
G37*
G36*
X350845D02*
X344654D01*
Y316143D01*
X345469Y316223D01*
X346733Y316607D01*
X347899Y317230D01*
X348920Y318068D01*
X349759Y319090D01*
X350381Y320255D01*
X350765Y321519D01*
X350845Y322335D01*
D02*
G37*
G36*
X291339Y328947D02*
X290307Y328812D01*
X289345Y328413D01*
X288519Y327780D01*
X287886Y326954D01*
X287488Y325992D01*
X287352Y324961D01*
X287488Y323929D01*
X287886Y322967D01*
X288519Y322142D01*
X289345Y321508D01*
X290307Y321110D01*
X291339Y320974D01*
X292371Y321110D01*
X293332Y321508D01*
X294158Y322142D01*
X294791Y322967D01*
X295190Y323929D01*
X295325Y324961D01*
X295190Y325992D01*
X294791Y326954D01*
X294158Y327780D01*
X293332Y328413D01*
X292371Y328812D01*
X291339Y328947D01*
D02*
G37*
G36*
X107933Y329576D02*
X106618Y329446D01*
X105353Y329063D01*
X104188Y328440D01*
X103166Y327601D01*
X102328Y326580D01*
X101705Y325414D01*
X101321Y324150D01*
X101192Y322835D01*
X101321Y321519D01*
X101705Y320255D01*
X102328Y319090D01*
X103166Y318068D01*
X104188Y317230D01*
X105353Y316607D01*
X106618Y316223D01*
X107933Y316093D01*
X109248Y316223D01*
X110513Y316607D01*
X111678Y317230D01*
X112700Y318068D01*
X113538Y319090D01*
X114161Y320255D01*
X114545Y321519D01*
X114674Y322835D01*
X114545Y324150D01*
X114161Y325414D01*
X113538Y326580D01*
X112700Y327601D01*
X111678Y328440D01*
X110513Y329063D01*
X109248Y329446D01*
X107933Y329576D01*
D02*
G37*
G36*
X207028D02*
X205712Y329446D01*
X204448Y329063D01*
X203282Y328440D01*
X202261Y327601D01*
X201423Y326580D01*
X200800Y325414D01*
X200416Y324150D01*
X200286Y322835D01*
X200416Y321519D01*
X200800Y320255D01*
X201423Y319090D01*
X202261Y318068D01*
X203282Y317230D01*
X204448Y316607D01*
X205712Y316223D01*
X207028Y316093D01*
X208343Y316223D01*
X209607Y316607D01*
X210773Y317230D01*
X211794Y318068D01*
X212633Y319090D01*
X213256Y320255D01*
X213639Y321519D01*
X213769Y322835D01*
X213639Y324150D01*
X213256Y325414D01*
X212633Y326580D01*
X211794Y327601D01*
X210773Y328440D01*
X209607Y329063D01*
X208343Y329446D01*
X207028Y329576D01*
D02*
G37*
G36*
X226043D02*
X224728Y329446D01*
X223464Y329063D01*
X222298Y328440D01*
X221277Y327601D01*
X220438Y326580D01*
X219815Y325414D01*
X219432Y324150D01*
X219302Y322835D01*
X219432Y321519D01*
X219815Y320255D01*
X220438Y319090D01*
X221277Y318068D01*
X222298Y317230D01*
X223464Y316607D01*
X224728Y316223D01*
X226043Y316093D01*
X227358Y316223D01*
X228623Y316607D01*
X229788Y317230D01*
X230810Y318068D01*
X231648Y319090D01*
X232271Y320255D01*
X232655Y321519D01*
X232784Y322835D01*
X232655Y324150D01*
X232271Y325414D01*
X231648Y326580D01*
X230810Y327601D01*
X229788Y328440D01*
X228623Y329063D01*
X227358Y329446D01*
X226043Y329576D01*
D02*
G37*
G36*
X199500Y378260D02*
X196079D01*
X196149Y377728D01*
X196547Y376766D01*
X197181Y375941D01*
X198007Y375307D01*
X198968Y374909D01*
X199500Y374839D01*
Y378260D01*
D02*
G37*
G36*
X229831Y487716D02*
Y484752D01*
X232795D01*
X232741Y485166D01*
X232388Y486017D01*
X231827Y486748D01*
X231096Y487309D01*
X230244Y487662D01*
X229831Y487716D01*
D02*
G37*
G36*
X213083Y526075D02*
X210118D01*
X210173Y525661D01*
X210525Y524810D01*
X211087Y524079D01*
X211818Y523518D01*
X212669Y523165D01*
X213083Y523110D01*
Y526075D01*
D02*
G37*
G36*
X217047D02*
X214083D01*
Y523110D01*
X214496Y523165D01*
X215348Y523518D01*
X216079Y524079D01*
X216640Y524810D01*
X216993Y525661D01*
X217047Y526075D01*
D02*
G37*
G36*
X228831Y483752D02*
X225866D01*
X225921Y483338D01*
X226273Y482487D01*
X226835Y481756D01*
X227566Y481195D01*
X228417Y480842D01*
X228831Y480788D01*
Y483752D01*
D02*
G37*
G36*
X232795D02*
X229831D01*
Y480788D01*
X230244Y480842D01*
X231096Y481195D01*
X231827Y481756D01*
X232388Y482487D01*
X232741Y483338D01*
X232795Y483752D01*
D02*
G37*
G36*
X228831Y487716D02*
X228417Y487662D01*
X227566Y487309D01*
X226835Y486748D01*
X226273Y486017D01*
X225921Y485166D01*
X225866Y484752D01*
X228831D01*
Y487716D01*
D02*
G37*
G36*
X230456Y543791D02*
X227035D01*
Y540370D01*
X227567Y540440D01*
X228529Y540839D01*
X229355Y541472D01*
X229988Y542298D01*
X230386Y543259D01*
X230456Y543791D01*
D02*
G37*
G36*
X226035Y548212D02*
X225503Y548142D01*
X224542Y547744D01*
X223716Y547111D01*
X223083Y546285D01*
X222684Y545323D01*
X222614Y544791D01*
X226035D01*
Y548212D01*
D02*
G37*
G36*
X227035D02*
Y544791D01*
X230456D01*
X230386Y545323D01*
X229988Y546285D01*
X229355Y547111D01*
X228529Y547744D01*
X227567Y548142D01*
X227035Y548212D01*
D02*
G37*
G36*
X213083Y530039D02*
X212669Y529985D01*
X211818Y529632D01*
X211087Y529071D01*
X210525Y528340D01*
X210173Y527489D01*
X210118Y527075D01*
X213083D01*
Y530039D01*
D02*
G37*
G36*
X214083D02*
Y527075D01*
X217047D01*
X216993Y527489D01*
X216640Y528340D01*
X216079Y529071D01*
X215348Y529632D01*
X214496Y529985D01*
X214083Y530039D01*
D02*
G37*
G36*
X226035Y543791D02*
X222614D01*
X222684Y543259D01*
X223083Y542298D01*
X223716Y541472D01*
X224542Y540839D01*
X225503Y540440D01*
X226035Y540370D01*
Y543791D01*
D02*
G37*
G36*
X300500Y415732D02*
Y412311D01*
X303921D01*
X303851Y412843D01*
X303453Y413804D01*
X302819Y414630D01*
X301993Y415264D01*
X301032Y415662D01*
X300500Y415732D01*
D02*
G37*
G36*
X203953Y392713D02*
X196047D01*
Y384807D01*
X203953D01*
Y392713D01*
D02*
G37*
G36*
X272138Y397138D02*
X269173D01*
X269228Y396724D01*
X269581Y395873D01*
X270142Y395142D01*
X270873Y394581D01*
X271724Y394228D01*
X272138Y394173D01*
Y397138D01*
D02*
G37*
G36*
X276102D02*
X273138D01*
Y394173D01*
X273552Y394228D01*
X274403Y394581D01*
X275134Y395142D01*
X275695Y395873D01*
X276048Y396724D01*
X276102Y397138D01*
D02*
G37*
G36*
X203921Y378260D02*
X200500D01*
Y374839D01*
X201032Y374909D01*
X201993Y375307D01*
X202819Y375941D01*
X203453Y376766D01*
X203851Y377728D01*
X203921Y378260D01*
D02*
G37*
G36*
X199500Y382681D02*
X198968Y382611D01*
X198007Y382213D01*
X197181Y381579D01*
X196547Y380753D01*
X196149Y379792D01*
X196079Y379260D01*
X199500D01*
Y382681D01*
D02*
G37*
G36*
X200500D02*
Y379260D01*
X203921D01*
X203851Y379792D01*
X203453Y380753D01*
X202819Y381579D01*
X201993Y382213D01*
X201032Y382611D01*
X200500Y382681D01*
D02*
G37*
G36*
X299500Y411311D02*
X296079D01*
X296149Y410779D01*
X296547Y409818D01*
X297181Y408992D01*
X298007Y408358D01*
X298968Y407960D01*
X299500Y407890D01*
Y411311D01*
D02*
G37*
G36*
X303921D02*
X300500D01*
Y407890D01*
X301032Y407960D01*
X301993Y408358D01*
X302819Y408992D01*
X303453Y409818D01*
X303851Y410779D01*
X303921Y411311D01*
D02*
G37*
G36*
X299500Y415732D02*
X298968Y415662D01*
X298007Y415264D01*
X297181Y414630D01*
X296547Y413804D01*
X296149Y412843D01*
X296079Y412311D01*
X299500D01*
Y415732D01*
D02*
G37*
G36*
X303953Y405764D02*
X296047D01*
Y397858D01*
X303953D01*
Y405764D01*
D02*
G37*
G36*
X272138Y401102D02*
X271724Y401048D01*
X270873Y400695D01*
X270142Y400134D01*
X269581Y399403D01*
X269228Y398552D01*
X269173Y398138D01*
X272138D01*
Y401102D01*
D02*
G37*
G36*
X273138D02*
Y398138D01*
X276102D01*
X276048Y398552D01*
X275695Y399403D01*
X275134Y400134D01*
X274403Y400695D01*
X273552Y401048D01*
X273138Y401102D01*
D02*
G37*
G36*
X378946Y153043D02*
X370579D01*
Y144676D01*
X371818Y144798D01*
X373491Y145305D01*
X375033Y146129D01*
X376384Y147238D01*
X377493Y148589D01*
X378317Y150131D01*
X378824Y151804D01*
X378946Y153043D01*
D02*
G37*
G36*
X136299Y161467D02*
X135267Y161331D01*
X134306Y160933D01*
X133480Y160300D01*
X132846Y159474D01*
X132448Y158512D01*
X132312Y157480D01*
X132448Y156448D01*
X132846Y155487D01*
X133480Y154661D01*
X134306Y154028D01*
X135267Y153629D01*
X136299Y153493D01*
X137331Y153629D01*
X138293Y154028D01*
X139118Y154661D01*
X139752Y155487D01*
X140150Y156448D01*
X140286Y157480D01*
X140150Y158512D01*
X139752Y159474D01*
X139118Y160300D01*
X138293Y160933D01*
X137331Y161331D01*
X136299Y161467D01*
D02*
G37*
G36*
X115799Y156980D02*
X112378D01*
X112448Y156448D01*
X112847Y155487D01*
X113480Y154661D01*
X114306Y154028D01*
X115267Y153629D01*
X115799Y153559D01*
Y156980D01*
D02*
G37*
G36*
X61524Y143693D02*
Y139279D01*
X65937D01*
X65834Y140068D01*
X65336Y141269D01*
X64545Y142301D01*
X63513Y143092D01*
X62312Y143589D01*
X61524Y143693D01*
D02*
G37*
G36*
X110252Y161433D02*
X102347D01*
Y153528D01*
X104260D01*
Y148701D01*
X104415Y147920D01*
X104857Y147259D01*
X106558Y145558D01*
X107220Y145116D01*
X108000Y144961D01*
X145153D01*
X145504Y144504D01*
X146235Y143943D01*
X147086Y143590D01*
X148000Y143470D01*
X148914Y143590D01*
X149765Y143943D01*
X150496Y144504D01*
X151057Y145235D01*
X151410Y146086D01*
X151530Y147000D01*
X151410Y147914D01*
X151057Y148765D01*
X150496Y149496D01*
X149765Y150057D01*
X148914Y150410D01*
X148000Y150530D01*
X147086Y150410D01*
X146235Y150057D01*
X145504Y149496D01*
X145153Y149039D01*
X108845D01*
X108338Y149546D01*
Y153528D01*
X110252D01*
Y161433D01*
D02*
G37*
G36*
X369579Y153043D02*
X361211D01*
X361333Y151804D01*
X361841Y150131D01*
X362665Y148589D01*
X363773Y147238D01*
X365125Y146129D01*
X366666Y145305D01*
X368339Y144798D01*
X369579Y144676D01*
Y153043D01*
D02*
G37*
G36*
X115799Y161401D02*
X115267Y161331D01*
X114306Y160933D01*
X113480Y160300D01*
X112847Y159474D01*
X112448Y158512D01*
X112378Y157980D01*
X115799D01*
Y161401D01*
D02*
G37*
G36*
X116799D02*
Y157980D01*
X120220D01*
X120150Y158512D01*
X119752Y159474D01*
X119118Y160300D01*
X118293Y160933D01*
X117331Y161331D01*
X116799Y161401D01*
D02*
G37*
G36*
X98425Y214261D02*
X97445Y214132D01*
X96531Y213753D01*
X95746Y213151D01*
X95144Y212367D01*
X94766Y211453D01*
X94637Y210472D01*
X94766Y209492D01*
X95144Y208578D01*
X95746Y207794D01*
X96531Y207192D01*
X97445Y206813D01*
X98425Y206684D01*
X99406Y206813D01*
X100319Y207192D01*
X101104Y207794D01*
X101706Y208578D01*
X102084Y209492D01*
X102214Y210472D01*
X102084Y211453D01*
X101706Y212367D01*
X101104Y213151D01*
X100319Y213753D01*
X99406Y214132D01*
X98425Y214261D01*
D02*
G37*
G36*
X120220Y156980D02*
X116799D01*
Y153559D01*
X117331Y153629D01*
X118293Y154028D01*
X119118Y154661D01*
X119752Y155487D01*
X120150Y156448D01*
X120220Y156980D01*
D02*
G37*
G36*
X369579Y162411D02*
X368339Y162289D01*
X366666Y161782D01*
X365125Y160958D01*
X363773Y159849D01*
X362665Y158497D01*
X361841Y156956D01*
X361333Y155283D01*
X361211Y154043D01*
X369579D01*
Y162411D01*
D02*
G37*
G36*
X370579D02*
Y154043D01*
X378946D01*
X378824Y155283D01*
X378317Y156956D01*
X377493Y158497D01*
X376384Y159849D01*
X375033Y160958D01*
X373491Y161782D01*
X371818Y162289D01*
X370579Y162411D01*
D02*
G37*
G36*
X60524Y143693D02*
X59735Y143589D01*
X58534Y143092D01*
X57503Y142301D01*
X56711Y141269D01*
X56214Y140068D01*
X56110Y139279D01*
X60524D01*
Y143693D01*
D02*
G37*
G36*
X145185Y132401D02*
Y129437D01*
X148149D01*
X148095Y129851D01*
X147742Y130702D01*
X147181Y131433D01*
X146450Y131994D01*
X145599Y132347D01*
X145185Y132401D01*
D02*
G37*
G36*
X159933D02*
X159519Y132347D01*
X158668Y131994D01*
X157937Y131433D01*
X157376Y130702D01*
X157023Y129851D01*
X156969Y129437D01*
X159933D01*
Y132401D01*
D02*
G37*
G36*
X160933D02*
Y129437D01*
X163897D01*
X163843Y129851D01*
X163490Y130702D01*
X162929Y131433D01*
X162198Y131994D01*
X161347Y132347D01*
X160933Y132401D01*
D02*
G37*
G36*
X124500D02*
X124086Y132347D01*
X123235Y131994D01*
X122504Y131433D01*
X121943Y130702D01*
X121590Y129851D01*
X121536Y129437D01*
X124500D01*
Y132401D01*
D02*
G37*
G36*
X125500D02*
Y129437D01*
X128464D01*
X128410Y129851D01*
X128057Y130702D01*
X127496Y131433D01*
X126765Y131994D01*
X125914Y132347D01*
X125500Y132401D01*
D02*
G37*
G36*
X144185D02*
X143771Y132347D01*
X142920Y131994D01*
X142189Y131433D01*
X141628Y130702D01*
X141275Y129851D01*
X141221Y129437D01*
X144185D01*
Y132401D01*
D02*
G37*
G36*
X65937Y138279D02*
X61524D01*
Y133866D01*
X62312Y133970D01*
X63513Y134467D01*
X64545Y135258D01*
X65336Y136290D01*
X65834Y137491D01*
X65937Y138279D01*
D02*
G37*
G36*
X19185Y146663D02*
X17945Y146541D01*
X16273Y146034D01*
X14731Y145209D01*
X13380Y144100D01*
X12271Y142749D01*
X11447Y141208D01*
X10939Y139535D01*
X10817Y138295D01*
X19185D01*
Y146663D01*
D02*
G37*
G36*
X20185D02*
Y138295D01*
X28553D01*
X28431Y139535D01*
X27923Y141208D01*
X27099Y142749D01*
X25990Y144100D01*
X24639Y145209D01*
X23097Y146034D01*
X21425Y146541D01*
X20185Y146663D01*
D02*
G37*
G36*
X182571Y132401D02*
X182157Y132347D01*
X181306Y131994D01*
X180575Y131433D01*
X180014Y130702D01*
X179661Y129851D01*
X179606Y129437D01*
X182571D01*
Y132401D01*
D02*
G37*
G36*
X183571D02*
Y129437D01*
X186535D01*
X186481Y129851D01*
X186128Y130702D01*
X185567Y131433D01*
X184836Y131994D01*
X183984Y132347D01*
X183571Y132401D01*
D02*
G37*
G36*
X60524Y138279D02*
X56110D01*
X56214Y137491D01*
X56711Y136290D01*
X57503Y135258D01*
X58534Y134467D01*
X59735Y133970D01*
X60524Y133866D01*
Y138279D01*
D02*
G37*
G36*
X87925Y209972D02*
X84703D01*
X84766Y209492D01*
X85144Y208578D01*
X85747Y207794D01*
X86531Y207192D01*
X87445Y206813D01*
X87925Y206750D01*
Y209972D01*
D02*
G37*
G36*
X344153Y311072D02*
X342838Y310942D01*
X341574Y310559D01*
X340408Y309936D01*
X339387Y309097D01*
X338548Y308076D01*
X337926Y306910D01*
X337542Y305646D01*
X337412Y304331D01*
X337542Y303016D01*
X337926Y301751D01*
X338548Y300586D01*
X339387Y299564D01*
X340408Y298726D01*
X341574Y298103D01*
X342838Y297719D01*
X344153Y297590D01*
X345469Y297719D01*
X346733Y298103D01*
X347899Y298726D01*
X348920Y299564D01*
X349759Y300586D01*
X350381Y301751D01*
X350765Y303016D01*
X350895Y304331D01*
X350765Y305646D01*
X350381Y306910D01*
X349759Y308076D01*
X348920Y309097D01*
X347899Y309936D01*
X346733Y310559D01*
X345469Y310942D01*
X344153Y311072D01*
D02*
G37*
G36*
X88417Y303831D02*
X82226D01*
X82306Y303016D01*
X82689Y301751D01*
X83312Y300586D01*
X84151Y299564D01*
X85172Y298726D01*
X86338Y298103D01*
X87602Y297719D01*
X88417Y297639D01*
Y303831D01*
D02*
G37*
G36*
X95609D02*
X89417D01*
Y297639D01*
X90232Y297719D01*
X91497Y298103D01*
X92663Y298726D01*
X93684Y299564D01*
X94522Y300586D01*
X95145Y301751D01*
X95529Y303016D01*
X95609Y303831D01*
D02*
G37*
G36*
X275091Y304143D02*
X273851Y304021D01*
X272178Y303514D01*
X270637Y302690D01*
X269285Y301581D01*
X268176Y300230D01*
X267352Y298688D01*
X266845Y297015D01*
X266723Y295776D01*
X275091D01*
Y304143D01*
D02*
G37*
G36*
X276091D02*
Y295776D01*
X284458D01*
X284336Y297015D01*
X283829Y298688D01*
X283005Y300230D01*
X281896Y301581D01*
X280544Y302690D01*
X279003Y303514D01*
X277330Y304021D01*
X276091Y304143D01*
D02*
G37*
G36*
X226043Y311072D02*
X224728Y310942D01*
X223464Y310559D01*
X222298Y309936D01*
X221277Y309097D01*
X220438Y308076D01*
X219815Y306910D01*
X219432Y305646D01*
X219302Y304331D01*
X219432Y303016D01*
X219815Y301751D01*
X220438Y300586D01*
X221277Y299564D01*
X222298Y298726D01*
X223464Y298103D01*
X224728Y297719D01*
X226043Y297590D01*
X227358Y297719D01*
X228623Y298103D01*
X229788Y298726D01*
X230810Y299564D01*
X231648Y300586D01*
X232271Y301751D01*
X232655Y303016D01*
X232784Y304331D01*
X232655Y305646D01*
X232271Y306910D01*
X231648Y308076D01*
X230810Y309097D01*
X229788Y309936D01*
X228623Y310559D01*
X227358Y310942D01*
X226043Y311072D01*
D02*
G37*
G36*
X89417Y311023D02*
Y304831D01*
X95609D01*
X95529Y305646D01*
X95145Y306910D01*
X94522Y308076D01*
X93684Y309097D01*
X92663Y309936D01*
X91497Y310559D01*
X90232Y310942D01*
X89417Y311023D01*
D02*
G37*
G36*
X107433D02*
X106618Y310942D01*
X105353Y310559D01*
X104188Y309936D01*
X103166Y309097D01*
X102328Y308076D01*
X101705Y306910D01*
X101321Y305646D01*
X101241Y304831D01*
X107433D01*
Y311023D01*
D02*
G37*
G36*
X108433D02*
Y304831D01*
X114625D01*
X114545Y305646D01*
X114161Y306910D01*
X113538Y308076D01*
X112700Y309097D01*
X111678Y309936D01*
X110513Y310559D01*
X109248Y310942D01*
X108433Y311023D01*
D02*
G37*
G36*
X107433Y303831D02*
X101241D01*
X101321Y303016D01*
X101705Y301751D01*
X102328Y300586D01*
X103166Y299564D01*
X104188Y298726D01*
X105353Y298103D01*
X106618Y297719D01*
X107433Y297639D01*
Y303831D01*
D02*
G37*
G36*
X114625D02*
X108433D01*
Y297639D01*
X109248Y297719D01*
X110513Y298103D01*
X111678Y298726D01*
X112700Y299564D01*
X113538Y300586D01*
X114161Y301751D01*
X114545Y303016D01*
X114625Y303831D01*
D02*
G37*
G36*
X88417Y311023D02*
X87602Y310942D01*
X86338Y310559D01*
X85172Y309936D01*
X84151Y309097D01*
X83312Y308076D01*
X82689Y306910D01*
X82306Y305646D01*
X82226Y304831D01*
X88417D01*
Y311023D01*
D02*
G37*
G36*
X344153Y348080D02*
X342838Y347950D01*
X341574Y347567D01*
X340408Y346944D01*
X339387Y346105D01*
X338548Y345084D01*
X337926Y343918D01*
X337542Y342654D01*
X337412Y341339D01*
X337542Y340023D01*
X337926Y338759D01*
X338548Y337593D01*
X339387Y336572D01*
X340408Y335734D01*
X341574Y335111D01*
X342747Y334755D01*
X343373Y334336D01*
X344153Y334181D01*
X344934Y334336D01*
X345560Y334755D01*
X346733Y335111D01*
X347899Y335734D01*
X348920Y336572D01*
X349759Y337593D01*
X350381Y338759D01*
X350546Y339299D01*
X354667D01*
X363961Y330006D01*
Y296963D01*
X360376Y293378D01*
X330569D01*
X327177Y296770D01*
Y297939D01*
X327717Y298103D01*
X328883Y298726D01*
X329905Y299564D01*
X330743Y300586D01*
X331366Y301751D01*
X331749Y303016D01*
X331879Y304331D01*
X331749Y305646D01*
X331366Y306910D01*
X330743Y308076D01*
X329905Y309097D01*
X328883Y309936D01*
X327717Y310559D01*
X326453Y310942D01*
X325138Y311072D01*
X323823Y310942D01*
X322558Y310559D01*
X321393Y309936D01*
X320371Y309097D01*
X319533Y308076D01*
X318910Y306910D01*
X318526Y305646D01*
X318397Y304331D01*
X318526Y303016D01*
X318910Y301751D01*
X319533Y300586D01*
X320371Y299564D01*
X321393Y298726D01*
X322558Y298103D01*
X323099Y297939D01*
Y295925D01*
X323254Y295145D01*
X323696Y294483D01*
X328282Y289897D01*
X328944Y289455D01*
X329724Y289299D01*
X329725Y289299D01*
X361221D01*
X362001Y289455D01*
X362662Y289897D01*
X367442Y294676D01*
X367884Y295338D01*
X368039Y296118D01*
X368039Y296118D01*
Y330850D01*
X368039Y330850D01*
X367884Y331631D01*
X367442Y332292D01*
X356954Y342780D01*
X356292Y343222D01*
X355512Y343378D01*
X350546D01*
X350381Y343918D01*
X349759Y345084D01*
X348920Y346105D01*
X347899Y346944D01*
X346733Y347567D01*
X345469Y347950D01*
X344153Y348080D01*
D02*
G37*
G36*
X210258Y210130D02*
X207035D01*
Y206907D01*
X207516Y206971D01*
X208430Y207349D01*
X209214Y207951D01*
X209816Y208736D01*
X210195Y209649D01*
X210258Y210130D01*
D02*
G37*
G36*
X87925Y214195D02*
X87445Y214132D01*
X86531Y213753D01*
X85747Y213151D01*
X85144Y212367D01*
X84766Y211453D01*
X84703Y210972D01*
X87925D01*
Y214195D01*
D02*
G37*
G36*
X88925D02*
Y210972D01*
X92148D01*
X92084Y211453D01*
X91706Y212367D01*
X91104Y213151D01*
X90319Y213753D01*
X89406Y214132D01*
X88925Y214195D01*
D02*
G37*
G36*
X92148Y209972D02*
X88925D01*
Y206750D01*
X89406Y206813D01*
X90319Y207192D01*
X91104Y207794D01*
X91706Y208578D01*
X92084Y209492D01*
X92148Y209972D01*
D02*
G37*
G36*
X216535Y214418D02*
X215555Y214289D01*
X214641Y213911D01*
X213857Y213309D01*
X213255Y212524D01*
X212876Y211610D01*
X212747Y210630D01*
X212876Y209649D01*
X213255Y208736D01*
X213857Y207951D01*
X214641Y207349D01*
X215555Y206971D01*
X216535Y206842D01*
X217516Y206971D01*
X218430Y207349D01*
X219214Y207951D01*
X219816Y208736D01*
X220195Y209649D01*
X220324Y210630D01*
X220195Y211610D01*
X219816Y212524D01*
X219214Y213309D01*
X218430Y213911D01*
X217516Y214289D01*
X216535Y214418D01*
D02*
G37*
G36*
X206035Y210130D02*
X202813D01*
X202876Y209649D01*
X203255Y208736D01*
X203857Y207951D01*
X204641Y207349D01*
X205555Y206971D01*
X206035Y206907D01*
Y210130D01*
D02*
G37*
G36*
X236535Y237569D02*
X235182Y237436D01*
X233880Y237041D01*
X232680Y236399D01*
X231629Y235537D01*
X230766Y234485D01*
X230125Y233285D01*
X229730Y231984D01*
X229596Y230630D01*
X229730Y229276D01*
X230125Y227975D01*
X230766Y226775D01*
X231629Y225723D01*
X232680Y224860D01*
X233880Y224219D01*
X235182Y223824D01*
X236535Y223691D01*
X237889Y223824D01*
X239191Y224219D01*
X240390Y224860D01*
X241442Y225723D01*
X242305Y226775D01*
X242946Y227975D01*
X243341Y229276D01*
X243474Y230630D01*
X243341Y231984D01*
X242946Y233285D01*
X242305Y234485D01*
X241442Y235537D01*
X240390Y236399D01*
X239191Y237041D01*
X237889Y237436D01*
X236535Y237569D01*
D02*
G37*
G36*
X275091Y294776D02*
X266723D01*
X266845Y293536D01*
X267352Y291863D01*
X268176Y290322D01*
X269285Y288970D01*
X270637Y287861D01*
X272178Y287037D01*
X273851Y286530D01*
X275091Y286408D01*
Y294776D01*
D02*
G37*
G36*
X284458D02*
X276091D01*
Y286408D01*
X277330Y286530D01*
X279003Y287037D01*
X280544Y287861D01*
X281896Y288970D01*
X283005Y290322D01*
X283829Y291863D01*
X284336Y293536D01*
X284458Y294776D01*
D02*
G37*
G36*
X206035Y214352D02*
X205555Y214289D01*
X204641Y213911D01*
X203857Y213309D01*
X203255Y212524D01*
X202876Y211610D01*
X202813Y211130D01*
X206035D01*
Y214352D01*
D02*
G37*
G36*
X207035D02*
Y211130D01*
X210258D01*
X210195Y211610D01*
X209816Y212524D01*
X209214Y213309D01*
X208430Y213911D01*
X207516Y214289D01*
X207035Y214352D01*
D02*
G37*
G36*
X118425Y237411D02*
X117071Y237278D01*
X115770Y236883D01*
X114570Y236242D01*
X113519Y235379D01*
X112656Y234328D01*
X112014Y233128D01*
X111620Y231826D01*
X111486Y230472D01*
X111620Y229119D01*
X112014Y227817D01*
X112656Y226617D01*
X113519Y225566D01*
X114570Y224703D01*
X115770Y224062D01*
X117071Y223667D01*
X118425Y223534D01*
X119779Y223667D01*
X121081Y224062D01*
X122280Y224703D01*
X123332Y225566D01*
X124195Y226617D01*
X124836Y227817D01*
X125231Y229119D01*
X125364Y230472D01*
X125231Y231826D01*
X124836Y233128D01*
X124195Y234328D01*
X123332Y235379D01*
X122280Y236242D01*
X121081Y236883D01*
X119779Y237278D01*
X118425Y237411D01*
D02*
G37*
%LPD*%
D27*
X361221Y291339D02*
X366000Y296118D01*
X329724Y291339D02*
X361221D01*
X325138Y295925D02*
X329724Y291339D01*
X366000Y296118D02*
Y330850D01*
X325138Y295925D02*
Y304331D01*
X345276Y341339D02*
X355512D01*
X344153Y340216D02*
X345276Y341339D01*
X344153Y336221D02*
Y340216D01*
X355512Y341339D02*
X366000Y330850D01*
X310630Y322835D02*
X325138D01*
X303000Y330465D02*
X310630Y322835D01*
X303000Y330465D02*
Y353331D01*
X176669Y304331D02*
X207028D01*
X129032Y351969D02*
X176669Y304331D01*
X68504Y351969D02*
X129032D01*
X51181Y334646D02*
X68504Y351969D01*
X99000Y79000D02*
X136000D01*
X25000Y74000D02*
Y94000D01*
X26654Y95653D01*
X135000Y89000D02*
Y105000D01*
X136000Y106000D01*
X88000Y90000D02*
X99000Y79000D01*
X88000Y90000D02*
Y95000D01*
X78000Y105000D02*
X88000Y95000D01*
X108000Y147000D02*
X148000D01*
X106299Y148701D02*
X108000Y147000D01*
X106299Y148701D02*
Y157480D01*
X141000Y63000D02*
Y90000D01*
X149000Y98000D01*
X171000D01*
X132000Y110000D02*
Y114000D01*
Y110000D02*
X136000Y106000D01*
X79000Y170000D02*
X122000D01*
X126299Y165701D01*
Y157480D02*
Y165701D01*
X67000Y163000D02*
X72000D01*
X79000Y170000D01*
D29*
X133000Y120000D02*
Y121000D01*
D30*
X95000Y114000D02*
X99000Y118000D01*
X121000D01*
X133000Y121000D02*
X135000Y123000D01*
Y138000D01*
D39*
X216535Y544291D02*
D03*
X106299Y157480D02*
D03*
X51181Y334646D02*
D03*
D40*
X226535Y544291D02*
D03*
X11811Y37559D02*
D03*
Y47559D02*
D03*
Y57559D02*
D03*
Y67559D02*
D03*
Y77559D02*
D03*
Y87559D02*
D03*
Y97559D02*
D03*
X116299Y157480D02*
D03*
X126299D02*
D03*
X136299D02*
D03*
X300000Y411811D02*
D03*
X291339Y324961D02*
D03*
X41181Y334646D02*
D03*
X31181D02*
D03*
X21181D02*
D03*
X200000Y378760D02*
D03*
D41*
X11811Y27559D02*
D03*
X164000Y26000D02*
D03*
X300000Y401811D02*
D03*
X291339Y314961D02*
D03*
X200000Y388760D02*
D03*
D42*
X226043Y341339D02*
D03*
Y322835D02*
D03*
Y304331D02*
D03*
X207028Y341339D02*
D03*
Y322835D02*
D03*
Y304331D02*
D03*
X88917D02*
D03*
Y322835D02*
D03*
Y341339D02*
D03*
X107933Y304331D02*
D03*
Y322835D02*
D03*
Y341339D02*
D03*
X344153D02*
D03*
Y322835D02*
D03*
Y304331D02*
D03*
X325138Y341339D02*
D03*
Y322835D02*
D03*
Y304331D02*
D03*
D43*
X196535Y190630D02*
D03*
X236535Y230630D02*
D03*
X118425Y230472D02*
D03*
X78425Y190472D02*
D03*
X50000Y516102D02*
D03*
Y427520D02*
D03*
D44*
X206535Y210630D02*
D03*
X216535D02*
D03*
X98425Y210472D02*
D03*
X88425D02*
D03*
D45*
X275590Y295276D02*
D03*
X157480Y196850D02*
D03*
X137795Y314961D02*
D03*
X19685Y137795D02*
D03*
X137795Y19685D02*
D03*
X19685Y196850D02*
D03*
X370079Y153543D02*
D03*
X196850Y551181D02*
D03*
X374016Y374016D02*
D03*
Y551181D02*
D03*
X19685Y374016D02*
D03*
Y551181D02*
D03*
D46*
X80000Y391811D02*
D03*
X60000D02*
D03*
D47*
X100000Y551811D02*
D03*
X80000D02*
D03*
D48*
X184772Y461811D02*
D03*
X125716D02*
D03*
D49*
X284559Y89457D02*
D03*
X305992Y68024D02*
D03*
Y89457D02*
D03*
X253063Y90051D02*
D03*
X264374Y109642D02*
D03*
X283965Y120953D02*
D03*
X306587D02*
D03*
X326177Y109642D02*
D03*
X337488Y90051D02*
D03*
Y67429D02*
D03*
X326177Y47839D02*
D03*
X306587Y36528D02*
D03*
X283965D02*
D03*
X264374Y47839D02*
D03*
X253063Y67429D02*
D03*
X284559Y68024D02*
D03*
D50*
X61024Y138779D02*
D03*
X224410Y107283D02*
D03*
D51*
X272638Y397638D02*
D03*
X229331Y484252D02*
D03*
X213583Y526575D02*
D03*
X59000Y83000D02*
D03*
X50000Y45000D02*
D03*
X121000Y118000D02*
D03*
X25000Y74000D02*
D03*
X26654Y95653D02*
D03*
X135000Y89000D02*
D03*
X136000Y79000D02*
D03*
X78000Y105000D02*
D03*
X148000Y147000D02*
D03*
X141000Y63000D02*
D03*
X171000Y98000D02*
D03*
X132000Y114000D02*
D03*
X133000Y121000D02*
D03*
X135000Y138000D02*
D03*
X95000Y114000D02*
D03*
X303000Y353331D02*
D03*
X67000Y163000D02*
D03*
X144685Y128937D02*
D03*
X160433D02*
D03*
X183071D02*
D03*
X125000D02*
D03*
X109252D02*
D03*
Y109252D02*
D03*
X110236Y71850D02*
D03*
X109252Y90551D02*
D03*
X183071D02*
D03*
Y70866D02*
D03*
X164370D02*
D03*
X131890D02*
D03*
X150591D02*
D03*
X183071Y110236D02*
D03*
M02*
