G04*
G04 #@! TF.GenerationSoftware,Altium Limited,CircuitStudio,1.5.2 (30)*
G04*
G04 Layer_Color=20142*
%FSLAX25Y25*%
%MOIN*%
G70*
G01*
G75*
%ADD12R,0.11417X0.09449*%
%ADD18R,0.11024X0.05512*%
%ADD55R,0.81890X0.07087*%
%ADD56R,0.07087X0.57087*%
%ADD57R,0.74803X0.07480*%
%ADD58R,0.10236X0.51181*%
%ADD59R,0.07887X0.04343*%
%ADD60R,0.25210X0.22257*%
%ADD61R,0.06115X0.04540*%
%ADD62R,0.07493X0.04540*%
G04:AMPARAMS|DCode=63|XSize=86.74mil|YSize=86.74mil|CornerRadius=23.69mil|HoleSize=0mil|Usage=FLASHONLY|Rotation=270.000|XOffset=0mil|YOffset=0mil|HoleType=Round|Shape=RoundedRectangle|*
%AMROUNDEDRECTD63*
21,1,0.08674,0.03937,0,0,270.0*
21,1,0.03937,0.08674,0,0,270.0*
1,1,0.04737,-0.01969,-0.01969*
1,1,0.04737,-0.01969,0.01969*
1,1,0.04737,0.01969,0.01969*
1,1,0.04737,0.01969,-0.01969*
%
%ADD63ROUNDEDRECTD63*%
%ADD64R,0.06312X0.06902*%
%ADD65R,0.04540X0.06115*%
G04:AMPARAMS|DCode=66|XSize=37.92mil|YSize=43.43mil|CornerRadius=11.48mil|HoleSize=0mil|Usage=FLASHONLY|Rotation=0.000|XOffset=0mil|YOffset=0mil|HoleType=Round|Shape=RoundedRectangle|*
%AMROUNDEDRECTD66*
21,1,0.03792,0.02047,0,0,0.0*
21,1,0.01496,0.04343,0,0,0.0*
1,1,0.02296,0.00748,-0.01024*
1,1,0.02296,-0.00748,-0.01024*
1,1,0.02296,-0.00748,0.01024*
1,1,0.02296,0.00748,0.01024*
%
%ADD66ROUNDEDRECTD66*%
%ADD67R,0.06902X0.06312*%
%ADD68R,0.07099X0.08674*%
%ADD69R,0.08674X0.05918*%
G04:AMPARAMS|DCode=70|XSize=67.06mil|YSize=90.68mil|CornerRadius=18.76mil|HoleSize=0mil|Usage=FLASHONLY|Rotation=0.000|XOffset=0mil|YOffset=0mil|HoleType=Round|Shape=RoundedRectangle|*
%AMROUNDEDRECTD70*
21,1,0.06706,0.05315,0,0,0.0*
21,1,0.02953,0.09068,0,0,0.0*
1,1,0.03753,0.01476,-0.02658*
1,1,0.03753,-0.01476,-0.02658*
1,1,0.03753,-0.01476,0.02658*
1,1,0.03753,0.01476,0.02658*
%
%ADD70ROUNDEDRECTD70*%
%ADD71R,0.08674X0.06706*%
%ADD72R,0.04343X0.03950*%
%ADD73R,0.06706X0.06706*%
%ADD74C,0.06706*%
%ADD75R,0.06706X0.06706*%
%ADD76C,0.12217*%
%ADD77C,0.12611*%
%ADD78C,0.06312*%
%ADD79C,0.16548*%
%ADD80R,0.10642X0.10642*%
%ADD81R,0.10642X0.10642*%
%ADD82C,0.20485*%
%ADD83C,0.10642*%
%ADD84C,0.08674*%
%ADD85C,0.05800*%
D12*
X280000Y489803D02*
D03*
Y513819D02*
D03*
X76000Y32992D02*
D03*
Y57008D02*
D03*
D18*
X97000Y39882D02*
D03*
Y50118D02*
D03*
X124000Y91118D02*
D03*
Y80882D02*
D03*
D55*
X146063Y128347D02*
D03*
D56*
X183465Y96260D02*
D03*
D57*
X142520Y71457D02*
D03*
D58*
X110236Y100787D02*
D03*
D59*
X273465Y470787D02*
D03*
Y452835D02*
D03*
D60*
X297874Y461811D02*
D03*
D61*
X232000Y507760D02*
D03*
Y513862D02*
D03*
X260000Y468760D02*
D03*
Y474862D02*
D03*
X248000Y124949D02*
D03*
Y131051D02*
D03*
X58000Y99051D02*
D03*
Y92949D02*
D03*
X113000Y137949D02*
D03*
Y144051D02*
D03*
X126000D02*
D03*
Y137949D02*
D03*
X174213Y89665D02*
D03*
Y83563D02*
D03*
X173000Y104949D02*
D03*
Y111051D02*
D03*
X58000Y39051D02*
D03*
Y32949D02*
D03*
X220000Y394862D02*
D03*
Y388760D02*
D03*
D62*
X239500Y442299D02*
D03*
Y453323D02*
D03*
X240000Y427323D02*
D03*
Y416299D02*
D03*
X95000Y105512D02*
D03*
Y94488D02*
D03*
D63*
X103000Y126000D02*
D03*
X164000Y66000D02*
D03*
D64*
X74347Y75000D02*
D03*
X67654D02*
D03*
X34653D02*
D03*
X41346D02*
D03*
X148346Y95000D02*
D03*
X141654D02*
D03*
X147346Y120000D02*
D03*
X140654D02*
D03*
D65*
X260728Y129921D02*
D03*
X266831D02*
D03*
X292224Y137795D02*
D03*
X298327D02*
D03*
X311909D02*
D03*
X318012D02*
D03*
X335531D02*
D03*
X341634D02*
D03*
X359154Y129921D02*
D03*
X365256D02*
D03*
Y106299D02*
D03*
X359154D02*
D03*
X365256Y118110D02*
D03*
X359154D02*
D03*
Y94488D02*
D03*
X365256D02*
D03*
X359154Y82677D02*
D03*
X365256D02*
D03*
Y59055D02*
D03*
X359154D02*
D03*
X365256Y70866D02*
D03*
X359154D02*
D03*
X365256Y47244D02*
D03*
X359154D02*
D03*
Y35433D02*
D03*
X365256D02*
D03*
X339469Y19685D02*
D03*
X345571D02*
D03*
X323721D02*
D03*
X329823D02*
D03*
X307972D02*
D03*
X314075D02*
D03*
X292224D02*
D03*
X298327D02*
D03*
X276476D02*
D03*
X282579D02*
D03*
X260728D02*
D03*
X266831D02*
D03*
X235335Y39370D02*
D03*
X229232D02*
D03*
X235335Y27559D02*
D03*
X229232D02*
D03*
Y51181D02*
D03*
X235335D02*
D03*
X235051Y63000D02*
D03*
X228949D02*
D03*
X235051Y85000D02*
D03*
X228949D02*
D03*
Y74000D02*
D03*
X235051D02*
D03*
X51949Y75000D02*
D03*
X58051D02*
D03*
X40051Y65000D02*
D03*
X33949D02*
D03*
X149051Y84000D02*
D03*
X142949D02*
D03*
X147051Y106000D02*
D03*
X140949D02*
D03*
X133051D02*
D03*
X126949D02*
D03*
D66*
X74740Y86063D02*
D03*
X67260D02*
D03*
X71000Y93937D02*
D03*
D67*
X36000Y102347D02*
D03*
Y95653D02*
D03*
X47000Y102347D02*
D03*
Y95653D02*
D03*
X278000Y422157D02*
D03*
Y415465D02*
D03*
D68*
X256209Y499811D02*
D03*
D69*
X244791Y494890D02*
D03*
Y504732D02*
D03*
D70*
X100000Y513917D02*
D03*
X120000D02*
D03*
X140000D02*
D03*
X180000D02*
D03*
X190000D02*
D03*
X200000D02*
D03*
X210000D02*
D03*
Y409705D02*
D03*
X200000D02*
D03*
X190000D02*
D03*
X180000D02*
D03*
X140000D02*
D03*
X120000D02*
D03*
X100000D02*
D03*
D71*
X259842Y444488D02*
D03*
Y433465D02*
D03*
D72*
X164937Y90000D02*
D03*
X157063Y86260D02*
D03*
Y93740D02*
D03*
X164339Y108653D02*
D03*
X156465Y104913D02*
D03*
Y112394D02*
D03*
D73*
X216535Y544291D02*
D03*
X106299Y157480D02*
D03*
X51181Y334646D02*
D03*
D74*
X226535Y544291D02*
D03*
X11811Y37559D02*
D03*
Y47559D02*
D03*
Y57559D02*
D03*
Y67559D02*
D03*
Y77559D02*
D03*
Y87559D02*
D03*
Y97559D02*
D03*
X116299Y157480D02*
D03*
X126299D02*
D03*
X136299D02*
D03*
X300000Y411811D02*
D03*
X291339Y324961D02*
D03*
X41181Y334646D02*
D03*
X31181D02*
D03*
X21181D02*
D03*
X200000Y378760D02*
D03*
D75*
X11811Y27559D02*
D03*
X164000Y26000D02*
D03*
X300000Y401811D02*
D03*
X291339Y314961D02*
D03*
X200000Y388760D02*
D03*
D76*
X226043Y341339D02*
D03*
Y322835D02*
D03*
Y304331D02*
D03*
X207028Y341339D02*
D03*
Y322835D02*
D03*
Y304331D02*
D03*
X88917D02*
D03*
Y322835D02*
D03*
Y341339D02*
D03*
X107933Y304331D02*
D03*
Y322835D02*
D03*
Y341339D02*
D03*
X344153D02*
D03*
Y322835D02*
D03*
Y304331D02*
D03*
X325138Y341339D02*
D03*
Y322835D02*
D03*
Y304331D02*
D03*
D77*
X196535Y190630D02*
D03*
X236535Y230630D02*
D03*
X118425Y230472D02*
D03*
X78425Y190472D02*
D03*
X50000Y516102D02*
D03*
Y427520D02*
D03*
D78*
X206535Y210630D02*
D03*
X216535D02*
D03*
X98425Y210472D02*
D03*
X88425D02*
D03*
D79*
X275590Y295276D02*
D03*
X157480Y196850D02*
D03*
X137795Y314961D02*
D03*
X19685Y137795D02*
D03*
X137795Y19685D02*
D03*
X19685Y196850D02*
D03*
X370079Y153543D02*
D03*
X196850Y551181D02*
D03*
X374016Y374016D02*
D03*
Y551181D02*
D03*
X19685Y374016D02*
D03*
Y551181D02*
D03*
D80*
X80000Y391811D02*
D03*
X60000D02*
D03*
D81*
X100000Y551811D02*
D03*
X80000D02*
D03*
D82*
X184772Y461811D02*
D03*
X125716D02*
D03*
D83*
X284559Y89457D02*
D03*
X305992Y68024D02*
D03*
Y89457D02*
D03*
X253063Y90051D02*
D03*
X264374Y109642D02*
D03*
X283965Y120953D02*
D03*
X306587D02*
D03*
X326177Y109642D02*
D03*
X337488Y90051D02*
D03*
Y67429D02*
D03*
X326177Y47839D02*
D03*
X306587Y36528D02*
D03*
X283965D02*
D03*
X264374Y47839D02*
D03*
X253063Y67429D02*
D03*
X284559Y68024D02*
D03*
D84*
X61024Y138779D02*
D03*
X224410Y107283D02*
D03*
D85*
X272638Y397638D02*
D03*
X229331Y484252D02*
D03*
X213583Y526575D02*
D03*
X59000Y83000D02*
D03*
X50000Y45000D02*
D03*
X25000Y74000D02*
D03*
X26654Y95653D02*
D03*
X78000Y105000D02*
D03*
X148000Y147000D02*
D03*
X141000Y63000D02*
D03*
X135000Y138000D02*
D03*
X95000Y114000D02*
D03*
X303000Y353331D02*
D03*
X67000Y163000D02*
D03*
X144685Y128937D02*
D03*
X160433D02*
D03*
X183071D02*
D03*
X125000D02*
D03*
X109252D02*
D03*
Y109252D02*
D03*
X110236Y71850D02*
D03*
X109252Y90551D02*
D03*
X183071D02*
D03*
Y70866D02*
D03*
X164370D02*
D03*
X131890D02*
D03*
X150591D02*
D03*
X183071Y110236D02*
D03*
M02*
